<?xml version="1.0" encoding="UTF-8" standalone="no"?>
<!DOCTYPE svg PUBLIC "-//W3C//DTD SVG 1.1//EN" "http://www.w3.org/Graphics/SVG/1.1/DTD/svg11.dtd">
<svg width="100%" height="100%" viewBox="0 0 512 512" version="1.1" xmlns="http://www.w3.org/2000/svg" xmlns:xlink="http://www.w3.org/1999/xlink" xml:space="preserve" xmlns:serif="http://www.serif.com/" style="fill-rule:evenodd;clip-rule:evenodd;stroke-miterlimit:10;">
    <g transform="matrix(1,0,0,1,43.3584,504.296)">
        <path d="M0,-325.053C26.867,-317.349 26.698,-296.129 26.698,-296.129L103.857,-280.54C103.857,-280.54 133.619,-319.532 199.136,-313.977C217.272,-312.439 360.642,-323.796 360.642,-323.796C360.642,-323.796 364.4,-264.064 284.642,-257.796C359.524,-263.68 466.593,-259.963 466.593,-259.963C466.593,-259.963 484.313,-219.931 368.142,-205.238C427.642,-151.296 436.615,-128.942 443.642,-85.296C453.176,-26.072 443.05,-7.296 416.975,7.704L-43.358,7.704C-55.636,7.704 -47.766,-24.389 -43.358,-40.629C12.642,-89.629 272.3,-46.071 205.097,-99.627C159.845,-135.69 8.824,-141.931 -15.05,-165.363C-34.991,-184.933 -40.358,-228.497 -40.358,-228.497L-30.707,-320.84C-30.707,-320.84 -26.867,-332.757 0,-325.053" style="fill:rgb(255,186,0);fill-rule:nonzero;"/>
    </g>
    <g transform="matrix(-0.530941,-0.847409,-0.847409,0.530941,26.6225,208.061)">
        <path d="M-11.278,-20.376C-18.629,-20.376 -24.588,-14.417 -24.588,-7.066C-24.588,0.284 -18.629,6.243 -11.279,6.243C-3.928,6.243 2.031,0.284 2.031,-7.066C2.031,-14.417 -3.928,-20.376 -11.278,-20.376" style="fill:rgb(35,31,32);fill-rule:nonzero;"/>
    </g>
    <g transform="matrix(0,73.4786,71.0434,0,208.656,304.505)">
        <ellipse cx="0" cy="0" rx="1" ry="1" style="fill:url(#_Radial1);"/>
    </g>
    <g transform="matrix(0.993956,0.109782,0.109782,-0.993956,6.01594,268.055)">
        <path d="M-2.148,-8.028L142.393,-8.028C142.393,-8.028 133.817,-33.624 105.027,-40.157C76.238,-46.691 16.328,-47.715 11.18,-42.562C6.031,-37.41 -2.148,-8.028 -2.148,-8.028" style="fill:rgb(234,106,46);fill-rule:nonzero;"/>
    </g>
    <g transform="matrix(-0.615772,0.787925,0.787925,0.615772,232.756,266.804)">
        <path d="M23.633,-58.508C18.512,-55.012 7.212,13.107 8.544,15.344C9.876,17.582 22.229,22.645 23.633,20.665C25.038,18.687 44.556,-62.793 39.494,-64.932C34.428,-67.072 23.633,-58.508 23.633,-58.508Z" style="fill:rgb(46,46,46);fill-rule:nonzero;stroke:rgb(34,37,47);stroke-width:4px;"/>
    </g>
    <defs>
        <radialGradient id="_Radial1" cx="0" cy="0" r="1" gradientUnits="userSpaceOnUse" gradientTransform="matrix(0,1,1,0,-9.27473e-06,9.27473e-06)"><stop offset="0" style="stop-color:rgb(247,135,37);stop-opacity:1"/><stop offset="1" style="stop-color:rgb(255,186,0);stop-opacity:1"/></radialGradient>
    </defs>
</svg>
