<?xml version="1.0" encoding="UTF-8" standalone="no"?>
<!DOCTYPE svg PUBLIC "-//W3C//DTD SVG 1.1//EN" "http://www.w3.org/Graphics/SVG/1.1/DTD/svg11.dtd">
<svg width="100%" height="100%" viewBox="0 0 512 512" version="1.1" xmlns="http://www.w3.org/2000/svg" xmlns:xlink="http://www.w3.org/1999/xlink" xml:space="preserve" xmlns:serif="http://www.serif.com/" style="fill-rule:evenodd;clip-rule:evenodd;stroke-linejoin:round;stroke-miterlimit:1.41421;">
    <rect id="Artboard1" x="0" y="0" width="512" height="512" style="fill:none;"/>
    <g id="Artboard11" serif:id="Artboard1">
        <g id="Layer-2" serif:id="Layer 2">
            <g transform="matrix(0.999451,-0.033136,0.033136,0.999451,55.1864,466.143)">
                <path d="M0,-376.63C26.196,-369.305 26.175,-348.569 26.175,-348.569L88.576,-360.715C88.576,-360.715 112.238,-400.262 144.161,-392.239C156.256,-391.977 169.436,-387.44 234.189,-391.344C239.54,-391.666 245.856,-389.853 251.308,-391.941C313.084,-415.591 379.617,-445.246 379.617,-445.246C379.617,-445.246 415.678,-392.396 336.883,-343.999C336.883,-342.458 336.633,-344.289 337.633,-342.333C339.515,-342.541 348.864,-344.589 464.958,-383.307C464.958,-383.307 494.64,-309.333 391.754,-275.518C380.92,-271.351 386.023,-263.078 390.14,-253.833C407.412,-215.048 403.14,-160.833 389.64,-102.333C375.458,-40.873 324.826,29.116 312.598,40.316C188.081,68.616 65.657,-19.434 89.138,-38.956C120.717,-65.21 161.7,-99.531 178.78,-123.333C194.272,-144.923 211.64,-193.897 190.14,-197.397C134.285,-206.49 5.243,-183.968 -16.063,-204.66C-35.6,-223.632 -41.117,-266.161 -41.117,-266.161L-29.853,-372.28C-29.853,-372.28 -26.196,-383.954 0,-376.63" style="fill:rgb(255,186,0);fill-rule:nonzero;"/>
                <clipPath id="_clip1">
                    <path d="M0,-376.63C26.196,-369.305 26.175,-348.569 26.175,-348.569L88.576,-360.715C88.576,-360.715 112.238,-400.262 144.161,-392.239C156.256,-391.977 169.436,-387.44 234.189,-391.344C239.54,-391.666 245.856,-389.853 251.308,-391.941C313.084,-415.591 379.617,-445.246 379.617,-445.246C379.617,-445.246 415.678,-392.396 336.883,-343.999C336.883,-342.458 336.633,-344.289 337.633,-342.333C339.515,-342.541 348.864,-344.589 464.958,-383.307C464.958,-383.307 494.64,-309.333 391.754,-275.518C380.92,-271.351 386.023,-263.078 390.14,-253.833C407.412,-215.048 403.14,-160.833 389.64,-102.333C375.458,-40.873 324.826,29.116 312.598,40.316C188.081,68.616 65.657,-19.434 89.138,-38.956C120.717,-65.21 161.7,-99.531 178.78,-123.333C194.272,-144.923 211.64,-193.897 190.14,-197.397C134.285,-206.49 5.243,-183.968 -16.063,-204.66C-35.6,-223.632 -41.117,-266.161 -41.117,-266.161L-29.853,-372.28C-29.853,-372.28 -26.196,-383.954 0,-376.63" clip-rule="nonzero"/>
                </clipPath>
                <g clip-path="url(#_clip1)">
                    <g transform="matrix(0,91.4233,88.3934,0,166.289,-253.005)">
                        <ellipse cx="-0" cy="0" rx="1" ry="1" style="fill:url(#_Radial2);"/>
                    </g>
                </g>
            </g>
            <g transform="matrix(-0.810051,0.586359,0.586359,0.810051,49.0557,119.442)">
                <path d="M6.534,-21.372C12.982,-21.345 18.21,-16.092 18.21,-9.639C18.21,-3.185 12.982,2.024 6.534,1.998C0.086,1.971 -5.142,-3.282 -5.142,-9.735C-5.142,-16.189 0.086,-21.398 6.534,-21.372" style="fill:rgb(35,31,32);fill-rule:nonzero;"/>
            </g>
            <g transform="matrix(0.422607,0.360296,-0.449529,0.527273,128.431,-53.4883)">
                <path d="M227.647,360.473C259.711,335.986 269.065,325.619 277.403,333.027C286.296,340.928 272.415,349.117 239.409,374.767C208.126,399.079 198.499,409.522 189.122,400.648C180.547,392.534 190.607,388.76 227.647,360.473Z" style="fill:rgb(47,47,47);fill-rule:nonzero;stroke:rgb(27,32,49);stroke-width:8.54px;"/>
            </g>
        </g>
        <g transform="matrix(0.775722,-0.0257185,0.0257185,0.775722,38.8196,34.163)">
            <ellipse cx="199.975" cy="152.997" rx="51.317" ry="58.275" style="fill:rgb(225,232,237);"/>
        </g>
        <g transform="matrix(-0.0274043,0.769374,0.325536,0.0115953,197.619,140.13)">
            <path d="M22.091,-41.365C39.547,-40.883 51.156,-22.317 50.826,-9.19C50.495,3.938 39.547,13.353 22.091,12.87C4.636,12.387 -13.9,-5.223 -11.585,-21.889C-9.772,-34.939 1.115,-41.945 22.091,-41.365Z" style="fill:rgb(41,47,51);fill-rule:nonzero;stroke:rgb(27,32,49);stroke-width:8.46px;stroke-linejoin:miter;stroke-miterlimit:10;"/>
        </g>
    </g>
    <defs>
        <radialGradient id="_Radial2" cx="0" cy="0" r="1" gradientUnits="userSpaceOnUse" gradientTransform="matrix(0,1,1,0,-8.49688e-06,8.49688e-06)"><stop offset="0" style="stop-color:rgb(247,110,29);stop-opacity:1"/><stop offset="1" style="stop-color:rgb(255,186,0);stop-opacity:1"/></radialGradient>
    </defs>
</svg>
