<?xml version="1.0" encoding="UTF-8" standalone="no"?>
<!DOCTYPE svg PUBLIC "-//W3C//DTD SVG 1.1//EN" "http://www.w3.org/Graphics/SVG/1.1/DTD/svg11.dtd">
<svg width="100%" height="100%" viewBox="0 0 512 512" version="1.1" xmlns="http://www.w3.org/2000/svg" xmlns:xlink="http://www.w3.org/1999/xlink" xml:space="preserve" xmlns:serif="http://www.serif.com/" style="fill-rule:evenodd;clip-rule:evenodd;stroke-linejoin:round;stroke-miterlimit:2;">
    <rect id="Artboard1" x="0" y="0" width="512" height="512" style="fill:none;"/>
    <clipPath id="_clip1">
        <rect id="Artboard11" serif:id="Artboard1" x="0" y="0" width="512" height="512"/>
    </clipPath>
    <g clip-path="url(#_clip1)">
        <g id="Layer-2" serif:id="Layer 2">
            <g transform="matrix(1,0,0,1,42.8599,460.333)">
                <path d="M24.855,-399.627C51.051,-392.302 51.03,-371.566 51.03,-371.566L94.642,-384.289C94.642,-384.289 123.832,-406.704 155.755,-398.681C167.85,-398.419 169.436,-387.44 234.189,-391.344C239.54,-391.666 245.856,-389.853 251.308,-391.941C313.084,-415.591 379.617,-445.246 379.617,-445.246C379.617,-445.246 415.678,-392.396 336.883,-343.999C336.883,-342.458 336.633,-344.289 337.633,-342.333C339.515,-342.541 348.864,-344.589 464.958,-383.307C464.958,-383.307 494.64,-309.333 391.754,-275.518C380.92,-271.351 386.023,-263.078 390.14,-253.833C407.412,-215.048 403.14,-160.833 389.64,-102.333C375.458,-40.873 324.826,29.116 312.598,40.316C188.081,68.616 65.657,-19.434 89.138,-38.956C120.717,-65.21 161.7,-99.531 178.78,-123.333C194.272,-144.923 211.64,-193.897 190.14,-197.397C134.285,-206.49 11.309,-207.542 -9.997,-228.234C-29.534,-247.206 -35.051,-289.735 -35.051,-289.735L-23.787,-395.854C-23.787,-395.854 -1.341,-406.951 24.855,-399.627" style="fill:rgb(255,186,0);fill-rule:nonzero;"/>
            </g>
            <g transform="matrix(-0.829036,0.559195,0.559195,0.829036,55.3537,93.8239)">
                <path d="M6.534,-21.372C12.982,-21.345 18.21,-16.092 18.21,-9.639C18.21,-3.185 12.982,2.024 6.534,1.998C0.086,1.971 -5.142,-3.282 -5.142,-9.735C-5.142,-16.189 0.086,-21.398 6.534,-21.372" style="fill:rgb(35,31,32);fill-rule:nonzero;"/>
            </g>
            <g transform="matrix(-0.655273,0.755392,0.755392,0.655273,212.194,143.971)">
                <path d="M22.091,-41.365C39.547,-40.883 51.156,-22.317 50.826,-9.19C50.495,3.938 39.547,13.353 22.091,12.87C4.636,12.387 -13.9,-5.223 -11.585,-21.889C-9.772,-34.939 1.115,-41.945 22.091,-41.365" style="fill:rgb(47,47,47);fill-rule:nonzero;stroke:rgb(27,32,49);stroke-width:4.34px;"/>
            </g>
        </g>
        <g transform="matrix(0.958171,0,0,0.978364,-144.204,-7.7115)">
            <g transform="matrix(1,0,0,1,-993.442,5.79593)">
                <path d="M1286.74,506.204C1286.74,506.204 1142.87,400.959 1143.95,260.645C1144.25,220.652 1185.11,179.046 1224.47,178.605C1280.12,177.98 1328.62,256 1328.62,256C1328.62,256 1375.49,199.757 1432.23,199.765C1481.22,199.772 1505.37,242.542 1505.23,275.995C1504.79,388.624 1286.74,506.204 1286.74,506.204Z" style="fill:rgb(248,75,46);"/>
            </g>
            <g transform="matrix(1,0,0,1,-994.205,6.95412)">
                <path d="M1169.75,275.994C1147.07,265.162 1168.32,230.366 1186.93,212.649C1210.5,190.201 1243.52,194.844 1245.98,208.354C1251.61,239.268 1224.32,237.207 1213.23,247.948C1202.2,258.632 1197.71,289.35 1169.75,275.994Z" style="fill:rgb(253,129,96);"/>
            </g>
        </g>
        <g transform="matrix(1.14083,0.31402,-0.31402,1.14083,103.158,-130.634)">
            <path d="M278.432,449.225C280.048,478.153 189.154,473.799 189.154,473.799C189.154,473.799 158.526,431.18 160.666,369.445C161.296,351.258 171.555,305.019 171.555,305.019C180.391,318.938 182.765,316.978 189.276,295.356C189.276,295.356 199.002,317.232 203.859,317.689C208.716,318.146 218.416,298.099 218.416,298.099C218.416,298.099 224.54,350.656 236.619,348.643C248.697,346.63 264.538,320.457 256.767,348.643C240.867,406.31 277.768,437.348 278.432,449.225Z" style="fill:rgb(255,186,0);"/>
            <path d="M185.812,468.585C185.737,468.523 185.694,468.533 185.598,468.508C184.619,468.255 184.658,468.394 183.581,468.159C183.495,468.14 183.471,468.164 183.4,468.11C183.347,468.07 183.333,467.995 183.299,467.937C182.831,467.134 182.334,466.264 181.814,465.328C177.031,456.718 170.256,442.558 165.277,424.262C161.037,408.68 158.104,390.096 158.823,369.381C159.039,363.016 160.416,353.246 162.129,343.198C165.335,324.396 169.709,304.609 169.709,304.609C169.874,303.862 170.474,303.288 171.228,303.156C171.982,303.024 172.741,303.359 173.151,304.005C175.315,307.407 177.043,309.822 178.56,311.149C178.889,311.437 179.198,311.664 179.501,311.817C179.764,311.95 180.001,312.024 180.235,311.921C180.88,311.635 181.402,310.862 182.029,309.743C183.647,306.853 185.305,301.916 187.441,294.803C187.672,294.036 188.356,293.493 189.156,293.443C189.955,293.393 190.702,293.845 191.028,294.577C191.028,294.577 194.547,302.48 198.387,308.812C199.795,311.135 201.238,313.244 202.564,314.615C202.894,314.957 203.213,315.247 203.521,315.469C203.715,315.61 203.873,315.745 204.04,315.76C204.155,315.771 204.264,315.687 204.396,315.617C204.679,315.469 204.97,315.256 205.273,314.999C206.581,313.893 207.998,312.065 209.386,310.025C213.186,304.437 216.66,297.249 216.66,297.249C217.038,296.468 217.886,296.031 218.741,296.175C219.596,296.32 220.254,297.011 220.354,297.873C220.354,297.873 223.053,321.033 228.402,335.834C229.903,339.988 231.573,343.468 233.516,345.429C234.395,346.316 235.286,346.877 236.296,346.709C239.314,346.207 242.55,343.993 245.573,341.659C249.342,338.749 252.782,335.602 255.075,334.407C256.695,333.562 258.043,333.574 258.955,334.061C259.562,334.385 260.094,334.923 260.427,335.803C260.695,336.512 260.845,337.579 260.738,339.085C260.586,341.212 259.932,344.459 258.631,349.157C255.232,361.369 254.256,372.368 254.804,382.228C254.837,382.824 254.875,383.416 254.919,384.004L253.252,386.072L253.248,386.078L253.253,386.082C253.471,386.267 253.484,386.56 253.46,386.871L253.35,387.019L253.361,387.116L253.366,387.162L253.427,387.224L253.448,387.009C253.451,386.973 253.455,386.937 253.458,386.901L253.46,386.871L254.141,385.95L254.982,384.815L254.975,384.733L254.919,384.004C262.507,374.616 259.091,379.269 254.982,384.815L255.046,385.557C255.056,385.657 255.137,385.779 255.074,385.857L253.724,387.524C255.44,389.26 256.382,390.308 253.455,387.9L253.45,387.862L253.447,387.866L253.45,387.896L253.455,387.9C257.223,419.214 275.804,438.29 278.188,447.727L278.233,447.91L278.242,447.949L278.243,447.954L278.249,447.981L278.284,448.139L278.29,448.168L278.291,448.175L278.299,448.218L278.328,448.364L278.331,448.385L278.332,448.392L278.342,448.451L278.364,448.585L278.366,448.6L278.367,448.606L278.378,448.683L278.394,448.802L278.396,448.816L278.406,448.918L278.416,449.016L278.417,449.022L278.432,449.225C278.946,458.352 270.253,464.173 258.109,467.86C231.755,475.862 189.153,473.819 189.153,473.819C189.147,473.819 189.141,473.816 189.138,473.811C189.138,473.811 187.996,472.214 186.173,469.188C186.056,468.993 185.859,468.821 185.812,468.585L185.812,468.585ZM189.642,300.643C188.043,305.628 186.671,309.257 185.351,311.606C184.189,313.673 182.964,314.874 181.769,315.4C180.415,315.997 178.993,315.922 177.449,315.024C176.024,314.194 174.386,312.44 172.459,309.76C170.992,316.59 168.098,330.458 165.799,343.826C164.104,353.682 162.729,363.264 162.508,369.509C161.805,389.81 164.683,408.022 168.837,423.294C173.714,441.224 180.356,455.099 185.03,463.544C185.536,464.458 186.018,465.308 186.472,466.093C186.505,466.149 186.562,466.197 186.57,466.261C186.582,466.348 186.548,466.357 186.522,466.44C186.2,467.488 186.085,467.383 185.846,468.36C185.823,468.456 185.794,468.489 185.812,468.585L185.813,468.585C185.999,468.737 186.059,468.991 186.178,469.185C188.021,472.197 189.17,473.788 189.17,473.788C189.155,473.779 231.746,475.818 258.1,467.832C270.241,464.153 278.937,458.348 278.432,449.225L278.417,449.02L278.406,448.918L278.395,448.811L278.378,448.683L278.366,448.6L278.342,448.451L278.331,448.385L278.299,448.218L278.29,448.168L278.249,447.981L278.242,447.949L278.192,447.74L278.188,447.727C275.875,438.587 258.336,420.405 253.843,390.804C253.697,389.846 253.566,388.877 253.45,387.896L253.434,387.882C245.977,397.065 249.02,392.87 252.986,387.511C252.54,387.141 252.02,386.705 251.42,386.197C251.264,386.064 251.379,385.789 251.359,385.584L251.314,385.106C249.381,383.162 248.096,381.799 251.252,384.404L251.298,384.933L251.314,385.106C251.95,385.745 252.655,386.447 253.296,387.092L253.35,387.019L253.303,386.58C253.286,386.414 253.149,386.211 253.248,386.078L252.16,385.16C251.862,384.912 251.565,384.664 251.268,384.416L251.252,384.404C251.137,383.05 251.05,381.675 250.995,380.278C250.613,370.617 251.68,359.921 254.903,348.129C256.338,342.902 256.973,339.687 256.883,337.889C256.684,337.985 256.469,338.097 256.287,338.212C255.526,338.692 254.661,339.352 253.714,340.109C251.078,342.216 247.87,345.035 244.58,347.201C242.024,348.883 239.404,350.166 236.941,350.577C234.744,350.943 232.64,350.117 230.73,348.19C228.485,345.926 226.443,341.966 224.71,337.168C220.972,326.819 218.499,312.477 217.308,304.432C215.599,307.535 213.331,311.373 211.085,314.326C209.7,316.148 208.304,317.643 207.05,318.526C205.843,319.375 204.677,319.713 203.677,319.618C202.73,319.528 201.607,318.996 200.462,317.964C199.252,316.875 197.914,315.178 196.581,313.173C194.003,309.297 191.393,304.24 189.642,300.643Z" style="fill:rgb(27,32,49);"/>
        </g>
        <g transform="matrix(-1.14083,0.31402,0.31402,1.14083,189.371,-121.603)">
            <path d="M254.217,439.891C242.437,466.362 189.154,473.799 189.154,473.799C189.154,473.799 220.478,444.273 174.617,381.78C163.851,367.109 137.98,326.686 137.98,326.686C153.488,332.283 154.166,329.28 146.077,308.197C146.077,308.197 167.16,319.54 171.28,316.928C175.4,314.317 170.797,292.526 170.797,292.526C170.797,292.526 207.815,330.335 216.133,321.348C224.451,312.362 220.954,281.97 232.065,309.014C254.796,364.345 267.91,409.122 254.217,439.891Z" style="fill:rgb(255,186,0);"/>
            <path d="M250.838,354.124C246.301,339.799 240.503,324.484 233.891,308.263C232.045,303.747 230.574,300.776 229.392,298.999C228.551,297.734 227.774,296.978 227.123,296.579C226.31,296.078 225.548,295.978 224.86,296.095C223.828,296.27 222.738,297.093 221.964,298.771C220.881,301.121 220.086,305.719 218.883,310.33C217.923,314.015 216.721,317.736 214.647,319.972C213.7,320.994 212.172,320.85 210.338,320.351C207.855,319.676 204.938,318.155 201.836,316.185C188.559,307.751 172.268,291.087 172.268,291.087C171.628,290.433 170.633,290.28 169.826,290.712C169.019,291.144 168.595,292.056 168.784,292.952C168.784,292.952 170.432,300.754 170.841,307.491C170.99,309.942 170.987,312.243 170.63,313.909C170.549,314.288 170.452,314.626 170.322,314.909C170.271,315.02 170.254,315.135 170.175,315.186C170.049,315.266 169.862,315.246 169.649,315.254C169.277,315.266 168.855,315.231 168.392,315.164C166.512,314.892 164.091,314.108 161.566,313.136C154.662,310.48 147.051,306.386 147.051,306.386C146.294,305.979 145.364,306.086 144.719,306.654C144.073,307.222 143.85,308.131 144.157,308.934C146.814,315.853 148.522,320.762 149.009,324.031C149.191,325.258 149.263,326.159 148.938,326.759C148.837,326.946 148.636,327.003 148.396,327.05C148.074,327.112 147.703,327.121 147.281,327.096C145.279,326.976 142.448,326.127 138.672,324.768C137.851,324.471 136.931,324.731 136.386,325.414C135.841,326.096 135.791,327.05 136.262,327.786C136.262,327.786 147.304,345.017 157.985,361.058C163.683,369.614 169.281,377.83 173.042,382.936C181.413,394.271 187.201,404.509 191.071,413.671C191.177,413.921 191.281,414.169 191.383,414.418L191.534,414.484L193.798,415.498C193.778,415.546 193.835,415.595 193.853,415.643L194.15,416.43L194.163,416.437L194.168,416.449L194.162,416.463L194.15,416.43L192.94,415.817L191.698,415.187L191.53,414.773L191.383,414.418C182.084,410.276 186.401,412.503 191.698,415.187C191.79,415.414 191.881,415.639 191.97,415.864C192.005,415.952 191.988,416.09 192.075,416.129L193.969,416.977C191.976,422.29 190.525,426.283 194.445,417.231L194.427,417.182L194.448,417.191L194.455,417.209L194.445,417.231L194.525,417.45C197.017,424.327 198.441,430.549 199.096,436.136C202.072,461.53 189.12,473.764 189.12,473.764C189.105,473.778 189.1,473.801 189.11,473.82C189.119,473.84 189.14,473.851 189.161,473.848C189.161,473.848 213.125,470.487 232.461,460.287C241.959,455.276 250.341,448.615 254.217,439.891C260.78,425.155 261.202,407.203 257.349,386.418C255.699,377.517 253.273,368.094 250.193,358.188L250.193,358.188C261.287,364.036 256.532,361.22 250.452,357.683L251.385,355.866C251.555,355.535 251.342,355.171 251.137,354.807C254.185,348.233 256.699,342.736 250.838,354.124L250.895,354.302C250.948,354.468 251.041,354.638 251.137,354.807L250.511,356.157L249.942,357.386L249.941,357.386L249.684,356.573C249.671,356.531 249.683,356.469 249.645,356.448L250.838,354.124ZM173.955,298.504C179.878,304.17 190.469,313.817 199.65,319.632C203.97,322.368 208.021,324.249 211.191,324.664C213.906,325.019 216.094,324.376 217.62,322.724C219.319,320.885 220.609,318.258 221.601,315.354C222.875,311.624 223.683,307.428 224.477,304.147C224.761,302.971 225.041,301.922 225.348,301.077C225.413,300.9 225.499,300.707 225.586,300.53C226.748,301.916 228.2,304.83 230.238,309.764C236.892,325.837 242.724,341.017 247.322,355.219L249.645,356.448L249.645,356.448L249.645,356.448C249.625,356.487 249.671,356.531 249.684,356.573L249.934,357.382L249.941,357.386L249.941,357.388L249.938,357.395L249.934,357.382L248.769,356.704L247.481,355.955C247.462,355.768 247.44,355.583 247.389,355.423L247.322,355.219C236.013,349.252 241.221,352.315 247.481,355.955C247.524,356.37 247.556,356.794 247.885,356.968L249.693,357.924C246.737,364.304 244.451,369.336 250.186,358.201L250.18,358.181L250.193,358.188L250.193,358.188L250.186,358.201C253.233,368.112 255.668,377.527 257.316,386.424C261.167,407.206 260.77,425.154 254.217,439.891C250.331,448.607 241.944,455.255 232.442,460.252C213.987,469.957 191.327,473.432 189.294,473.729C190.534,472.487 202.065,460.21 199.193,436.124C198.526,430.535 197.082,424.309 194.543,417.444L194.455,417.209L194.46,417.197C203.513,421.231 199.742,419.267 194.676,416.697L195.494,414.797C195.533,414.707 195.423,414.614 195.388,414.522C195.304,414.307 195.22,414.091 195.134,413.875C197.228,408.296 198.914,403.702 194.829,413.113L194.941,413.39L195.134,413.875L194.653,415.156L194.171,416.441L194.163,416.437L193.855,415.642C193.836,415.594 193.845,415.52 193.798,415.499L193.798,415.498L193.798,415.498C194.176,414.619 194.519,413.825 194.829,413.113C194.713,412.826 194.594,412.537 194.474,412.247C190.569,402.829 184.703,392.295 176.193,380.624C172.476,375.541 166.954,367.356 161.32,358.844C154.135,347.99 146.775,336.599 142.766,330.367C145.36,331.061 147.354,331.327 148.786,331.137C150.612,330.895 151.816,330.055 152.543,328.713C153.177,327.545 153.421,325.815 153.067,323.427C152.679,320.814 151.58,317.201 149.854,312.43C153.429,314.185 158.428,316.493 162.719,317.937C165.012,318.708 167.121,319.232 168.753,319.353C170.324,319.469 171.563,319.192 172.385,318.671C173.254,318.12 173.991,317.119 174.435,315.673C174.888,314.197 175.077,312.147 175.055,309.844C175.02,306.237 174.491,301.958 173.955,298.504Z" style="fill:rgb(27,32,49);"/>
        </g>
    </g>
</svg>
