<?xml version="1.0" encoding="UTF-8" standalone="no"?>
<!DOCTYPE svg PUBLIC "-//W3C//DTD SVG 1.1//EN" "http://www.w3.org/Graphics/SVG/1.1/DTD/svg11.dtd">
<svg width="100%" height="100%" viewBox="0 0 512 512" version="1.1" xmlns="http://www.w3.org/2000/svg" xmlns:xlink="http://www.w3.org/1999/xlink" xml:space="preserve" xmlns:serif="http://www.serif.com/" style="fill-rule:evenodd;clip-rule:evenodd;stroke-linecap:round;stroke-linejoin:round;stroke-miterlimit:1.5;">
    <rect id="Artboard1" x="0" y="0" width="512" height="512" style="fill:none;"/>
    <clipPath id="_clip1">
        <rect id="Artboard11" serif:id="Artboard1" x="0" y="0" width="512" height="512"/>
    </clipPath>
    <g clip-path="url(#_clip1)">
        <g id="Layer-2" serif:id="Layer 2">
            <g transform="matrix(0.866618,0.0205686,-0.0205686,0.866618,-918.203,-36.7677)">
                <path d="M1196.37,212.081L1158.57,172.056L1160.8,100.9L1233.43,151.302L1288.28,200.221L1316.45,189.845L1354.99,216.528C1354.99,216.528 1356.81,231.583 1357.6,238.07C1357.82,239.892 1358.94,241.481 1360.58,242.301C1375.9,249.959 1453.82,288.921 1479.04,301.529C1483.65,303.836 1489.25,302.646 1492.52,298.663C1497.74,292.319 1505.4,283.002 1510.12,277.26C1512.81,273.992 1516.77,272.043 1521,271.912C1546.21,271.134 1634.42,268.412 1634.42,268.412L1588.47,326.225L1541.03,328.449L1355.06,295.615L1196.37,212.081Z" style="fill:rgb(102,0,128);stroke:rgb(68,0,85);stroke-width:4.96px;"/>
            </g>
            <g transform="matrix(0.892828,0,0,0.892828,41.9851,471.695)">
                <path d="M0,-376.63C26.196,-369.305 26.175,-348.569 26.175,-348.569L88.576,-360.715C88.576,-360.715 112.238,-400.262 144.161,-392.239C156.256,-391.977 169.436,-387.44 234.189,-391.344C239.54,-391.666 245.856,-389.853 251.308,-391.941C313.084,-415.591 379.617,-445.246 379.617,-445.246C379.617,-445.246 415.678,-392.396 336.883,-343.999C336.883,-342.458 336.633,-344.289 337.633,-342.333C339.515,-342.541 386.023,-263.078 390.14,-253.833C407.412,-215.048 403.14,-160.833 389.64,-102.333C375.458,-40.873 324.826,29.116 312.598,40.316C188.081,68.616 65.657,-19.434 89.138,-38.956C120.717,-65.21 161.7,-99.531 178.78,-123.333C194.272,-144.923 211.64,-193.897 190.14,-197.397C134.285,-206.49 5.243,-183.968 -16.063,-204.66C-35.6,-223.632 -41.117,-266.161 -41.117,-266.161L-29.853,-372.28C-29.853,-372.28 -26.196,-383.954 0,-376.63" style="fill:rgb(255,186,0);fill-rule:nonzero;"/>
            </g>
            <g transform="matrix(-0.740187,0.499265,0.499265,0.740187,53.7124,166.477)">
                <path d="M6.534,-21.372C12.982,-21.345 18.21,-16.092 18.21,-9.639C18.21,-3.185 12.982,2.024 6.534,1.998C0.086,1.971 -5.142,-3.282 -5.142,-9.735C-5.142,-16.189 0.086,-21.398 6.534,-21.372" style="fill:rgb(35,31,32);fill-rule:nonzero;"/>
            </g>
            <g transform="matrix(-0.585046,0.674435,0.674435,0.585046,253.925,207.926)">
                <path d="M22.091,-41.365C39.547,-40.883 51.156,-22.317 50.826,-9.19C50.495,3.938 39.547,13.353 22.091,12.87C4.636,12.387 -13.9,-5.223 -11.585,-21.889C-9.772,-34.939 1.115,-41.945 22.091,-41.365" style="fill:rgb(47,47,47);fill-rule:nonzero;stroke:rgb(27,32,49);stroke-width:4.86px;stroke-linecap:butt;stroke-miterlimit:2;"/>
            </g>
            <g transform="matrix(0.892828,0,0,0.892828,5.5077,269.991)">
                <path d="M0,-43.055C3.257,-29.52 10.07,-17.534 18.224,-6.722C23.111,-0.24 30.447,11.85 38.627,3.976C44.611,-1.784 49.14,-9.846 53.623,-16.962C57.471,-23.072 59.867,-29.894 61.193,-30.228C62.518,-30.561 74.544,-13.556 84.549,-1.539C85.299,-0.639 91.689,7.71 96.762,6.879C103.268,5.814 104.655,1.773 107.106,-1.213C112.371,-7.624 115.499,-12.254 120.354,-19.036C123.141,-22.929 125.904,-26.847 128.549,-30.857C130.261,-33.451 132.373,-36.289 133.354,-39.351C136.324,-48.62 123.07,-54.335 120.1,-45.065C119.638,-43.624 120.442,-45.628 120.311,-45.41C119.962,-44.835 119.645,-44.236 119.298,-43.66C118.232,-41.892 117.088,-40.18 115.943,-38.476C112.909,-33.963 109.763,-29.54 106.583,-25.151C103.526,-20.931 100.432,-16.742 97.262,-12.624C96.061,-11.063 94.226,-11.395 92.879,-12.9C88.986,-17.248 84.617,-22.132 80.866,-26.624C75.193,-33.418 71.132,-40.108 64.488,-46.259C61.565,-48.966 55.366,-47.775 53.358,-44.609C49.585,-38.661 47.424,-32.959 44.013,-26.749C41.7,-22.54 35.726,-11.118 33.48,-11.215C31.563,-11.298 28.662,-16.69 26.554,-19.655C21.092,-27.336 16.16,-35.913 13.894,-45.33C11.589,-54.905 -2.324,-52.712 0,-43.055" style="fill:rgb(47,47,47);fill-rule:nonzero;stroke:rgb(27,32,49);stroke-width:4.82px;stroke-linecap:butt;stroke-miterlimit:2;"/>
            </g>
            <g transform="matrix(0.866618,0.0205686,-0.0205686,0.866618,-918.203,-36.7677)">
                <path d="M1199.21,127.558C1210.15,133.064 1222.3,136.687 1236.45,137.197C1266.33,123.434 1289.76,116.49 1309.51,111.582C1328.87,70.513 1386.1,17.521 1424.78,1.054C1473.28,18.83 1515.11,41.624 1543.37,63.196C1550.07,53.333 1555.97,46.652 1561.4,41.849L1560.45,21.926L1544.79,19.554C1547.75,13.836 1554.65,10.093 1565.19,8.169C1574.44,14.336 1577.45,20.819 1580.37,29.516L1579.9,107.787L1512.54,131.031L1512.06,183.686L1553.33,241.558L1630.47,268.534L1520.12,271.94C1516.45,272.053 1513.01,273.743 1510.68,276.575C1505.81,282.502 1497.18,292.991 1491.78,299.569C1488.94,303.023 1484.09,304.054 1480.09,302.054C1455.88,289.949 1374.87,249.447 1360.23,242.126C1358.81,241.415 1357.84,240.038 1357.65,238.459C1356.89,232.207 1354.99,216.528 1354.99,216.528L1316.45,189.845L1288.28,200.221L1233.43,151.302L1199.21,127.558Z" style="fill:rgb(136,0,170);stroke:rgb(68,0,85);stroke-width:4.96px;"/>
                <path d="M1311.4,104.94C1319.24,86.532 1329.65,70.694 1341.29,56.08C1410.56,58.752 1472.05,83.292 1521.08,142.89C1522.15,161.26 1521.58,177.175 1520.13,191.75C1450.55,140.935 1380.98,114.01 1311.4,104.94Z" style="fill:rgb(136,0,170);"/>
                <clipPath id="_clip2">
                    <path d="M1311.4,104.94C1319.24,86.532 1329.65,70.694 1341.29,56.08C1410.56,58.752 1472.05,83.292 1521.08,142.89C1522.15,161.26 1521.58,177.175 1520.13,191.75C1450.55,140.935 1380.98,114.01 1311.4,104.94Z"/>
                </clipPath>
                <g clip-path="url(#_clip2)">
                    <path d="M1457.42,150.594C1467.87,138.205 1474.05,121.548 1476.3,100.961L1502.66,122.044L1503.1,179.144L1457.42,150.594Z" style="fill:rgb(68,0,85);stroke:rgb(68,0,85);stroke-width:4.96px;"/>
                </g>
                <path d="M1311.4,104.94C1319.24,86.532 1329.65,70.694 1341.29,56.08C1410.56,58.752 1472.05,83.292 1521.08,142.89C1522.15,161.26 1521.58,177.175 1520.13,191.75C1450.55,140.935 1380.98,114.01 1311.4,104.94Z" style="fill:none;stroke:rgb(68,0,85);stroke-width:4.96px;"/>
                <path d="M1366.83,101.57C1366.83,101.57 1382.73,73.849 1388.75,73.459C1396.35,72.967 1430.92,82.174 1430.92,82.174L1380.32,52.095L1366.83,101.57Z" style="fill:rgb(68,0,85);"/>
                <path d="M1341.93,109.273C1349.83,83.738 1360.49,62.35 1372.7,43.292C1406.2,45.919 1430.82,54.292 1445.97,68.794C1451.34,99.587 1445.17,124.357 1428.96,149.753C1398.45,142.962 1369.21,134.424 1341.93,109.273ZM1368.19,101.616C1370.39,87.236 1375.2,73.636 1383.89,61.418C1405.66,63.631 1417.01,71.414 1426.91,76.867C1427.34,92.626 1425.03,108.627 1416.82,122.227C1401.38,120.304 1386.87,113.27 1368.19,101.616Z" style="fill:rgb(255,243,0);stroke:rgb(68,0,85);stroke-width:4.96px;"/>
            </g>
            <g transform="matrix(0.824012,0.343725,-0.343725,0.824012,-43.4543,310.675)">
                <path d="M340.48,-339.324C342.362,-339.532 348.864,-344.589 464.958,-383.307C464.958,-383.307 494.64,-309.333 391.754,-275.518C380.92,-271.351 324.065,-286.228 315.045,-297.364C307.29,-306.937 339.48,-341.28 340.48,-339.324Z" style="fill:rgb(255,186,0);fill-rule:nonzero;"/>
                <clipPath id="_clip3">
                    <path d="M340.48,-339.324C342.362,-339.532 348.864,-344.589 464.958,-383.307C464.958,-383.307 494.64,-309.333 391.754,-275.518C380.92,-271.351 324.065,-286.228 315.045,-297.364C307.29,-306.937 339.48,-341.28 340.48,-339.324Z" clip-rule="nonzero"/>
                </clipPath>
                <g clip-path="url(#_clip3)">
                    <g transform="matrix(1.03371,-0.431196,0.431196,1.03371,-89.0428,-339.884)">
                        <path d="M321.014,178.127C409.064,206.177 476.934,183.092 471.429,154.643C482.504,188.05 490.832,221.312 365.436,247.536L321.014,178.127Z" style="fill:rgb(237,108,48);"/>
                    </g>
                </g>
            </g>
        </g>
    </g>
</svg>
