<?xml version="1.0" encoding="UTF-8" standalone="no"?>
<!DOCTYPE svg PUBLIC "-//W3C//DTD SVG 1.1//EN" "http://www.w3.org/Graphics/SVG/1.1/DTD/svg11.dtd">
<svg width="100%" height="100%" viewBox="0 0 512 512" version="1.1" xmlns="http://www.w3.org/2000/svg" xmlns:xlink="http://www.w3.org/1999/xlink" xml:space="preserve" xmlns:serif="http://www.serif.com/" style="fill-rule:evenodd;clip-rule:evenodd;stroke-miterlimit:10;">
    <g id="Layer-2" serif:id="Layer 2">
        <g transform="matrix(0.858751,0,0,0.858751,106.048,463.31)">
            <path d="M0,-376.63C26.196,-369.305 26.175,-348.569 26.175,-348.569L88.576,-360.715C88.576,-360.715 112.238,-400.262 144.161,-392.239C156.256,-391.977 169.436,-387.44 234.189,-391.344C239.54,-391.666 245.856,-389.853 251.308,-391.941C313.084,-415.591 379.617,-445.246 379.617,-445.246C379.617,-445.246 415.678,-392.396 336.883,-343.999C336.883,-342.458 336.633,-344.289 337.633,-342.333C339.515,-342.541 348.864,-344.589 464.958,-383.307C464.958,-383.307 494.64,-309.333 391.754,-275.518C380.92,-271.351 386.023,-263.078 390.14,-253.833C407.412,-215.048 403.14,-160.833 389.64,-102.333C375.458,-40.873 324.826,29.116 312.598,40.316C188.081,68.616 65.657,-19.434 89.138,-38.956C120.717,-65.21 161.7,-99.531 178.78,-123.333C194.272,-144.923 211.64,-193.897 190.14,-197.397C134.285,-206.49 5.243,-183.968 -16.063,-204.66C-35.6,-223.632 -41.117,-266.161 -41.117,-266.161L-29.853,-372.28C-29.853,-372.28 -26.196,-383.954 0,-376.63" style="fill:rgb(255,186,0);fill-rule:nonzero;"/>
            <clipPath id="_clip1">
                <path d="M0,-376.63C26.196,-369.305 26.175,-348.569 26.175,-348.569L88.576,-360.715C88.576,-360.715 112.238,-400.262 144.161,-392.239C156.256,-391.977 169.436,-387.44 234.189,-391.344C239.54,-391.666 245.856,-389.853 251.308,-391.941C313.084,-415.591 379.617,-445.246 379.617,-445.246C379.617,-445.246 415.678,-392.396 336.883,-343.999C336.883,-342.458 336.633,-344.289 337.633,-342.333C339.515,-342.541 348.864,-344.589 464.958,-383.307C464.958,-383.307 494.64,-309.333 391.754,-275.518C380.92,-271.351 386.023,-263.078 390.14,-253.833C407.412,-215.048 403.14,-160.833 389.64,-102.333C375.458,-40.873 324.826,29.116 312.598,40.316C188.081,68.616 65.657,-19.434 89.138,-38.956C120.717,-65.21 161.7,-99.531 178.78,-123.333C194.272,-144.923 211.64,-193.897 190.14,-197.397C134.285,-206.49 5.243,-183.968 -16.063,-204.66C-35.6,-223.632 -41.117,-266.161 -41.117,-266.161L-29.853,-372.28C-29.853,-372.28 -26.196,-383.954 0,-376.63" clip-rule="nonzero"/>
            </clipPath>
            <g clip-path="url(#_clip1)">
                <g transform="matrix(0,73.4786,71.0434,0,207.329,-250.796)">
                    <ellipse cx="0" cy="0" rx="1" ry="1" style="fill:url(#_Radial2);"/>
                </g>
            </g>
        </g>
        <g transform="matrix(-0.711935,0.480209,0.480209,0.711935,110.651,165.569)">
            <path d="M6.534,-21.372C12.982,-21.345 18.21,-16.092 18.21,-9.639C18.21,-3.185 12.982,2.024 6.534,1.998C0.086,1.971 -5.142,-3.282 -5.142,-9.735C-5.142,-16.189 0.086,-21.398 6.534,-21.372" style="fill:rgb(35,31,32);fill-rule:nonzero;"/>
        </g>
        <g transform="matrix(-0.208278,0.833111,0.833111,0.208278,263.664,200.04)">
            <path d="M13.585,-46.974C16.432,-54.239 42.936,-38.908 42.572,-25.782C41.962,-3.802 19.568,14.307 13.585,2.503C10.247,-4.082 36.309,-9.538 30.832,-25.447C26.543,-37.905 8.936,-35.112 13.585,-46.974" style="fill:rgb(47,47,47);fill-rule:nonzero;"/>
        </g>
        <g transform="matrix(-0.208278,0.833111,0.833111,0.208278,263.664,200.04)">
            <path d="M13.585,-46.974C16.432,-54.239 42.936,-38.908 42.572,-25.782C41.962,-3.802 19.568,14.307 13.585,2.503C10.247,-4.082 36.309,-9.538 30.832,-25.447C26.543,-37.905 8.936,-35.112 13.585,-46.974Z" style="fill:none;fill-rule:nonzero;stroke:rgb(27,32,49);stroke-width:5.82px;"/>
        </g>
        <g transform="matrix(1.32752,0,0,1.32752,-902.599,-124.262)">
            <path d="M732.773,292.626C732.009,276.762 756.915,261.672 786.827,262.446C817.619,263.243 832.198,273.348 832.773,292.176C832.975,298.816 799.37,290.364 783.792,291.364C763.281,292.682 733.123,299.897 732.773,292.626Z" style="fill:rgb(237,108,48);"/>
        </g>
        <g transform="matrix(1,0,0,1,-60.8952,29.7184)">
            <circle cx="102.438" cy="153.291" r="23.874" style="fill:none;stroke:rgb(145,109,224);stroke-width:15.15px;stroke-linecap:round;stroke-linejoin:round;stroke-miterlimit:1.5;"/>
        </g>
        <g transform="matrix(1,0,0,1,42.3018,-114.162)">
            <circle cx="102.438" cy="153.291" r="23.874" style="fill:none;stroke:rgb(145,109,224);stroke-width:15.15px;stroke-linecap:round;stroke-linejoin:round;stroke-miterlimit:1.5;stroke-dasharray:0,30.3,0,0;"/>
        </g>
        <g transform="matrix(1.55024,0,0,1.55024,-105.819,-153.485)">
            <circle cx="102.438" cy="153.291" r="23.874" style="fill:none;stroke:rgb(145,109,224);stroke-width:9.77px;stroke-linecap:round;stroke-linejoin:round;stroke-miterlimit:1.5;"/>
        </g>
    </g>
    <defs>
        <radialGradient id="_Radial2" cx="0" cy="0" r="1" gradientUnits="userSpaceOnUse" gradientTransform="matrix(0,1,1,0,-8.49688e-06,8.49688e-06)"><stop offset="0" style="stop-color:rgb(247,148,29);stop-opacity:1"/><stop offset="1" style="stop-color:rgb(255,186,0);stop-opacity:1"/></radialGradient>
    </defs>
</svg>
