<?xml version="1.0" encoding="UTF-8" standalone="no"?>
<!DOCTYPE svg PUBLIC "-//W3C//DTD SVG 1.1//EN" "http://www.w3.org/Graphics/SVG/1.1/DTD/svg11.dtd">
<svg width="100%" height="100%" viewBox="0 0 512 512" version="1.1" xmlns="http://www.w3.org/2000/svg" xmlns:xlink="http://www.w3.org/1999/xlink" xml:space="preserve" xmlns:serif="http://www.serif.com/" style="fill-rule:evenodd;clip-rule:evenodd;stroke-linejoin:round;stroke-miterlimit:2;">
    <rect id="Artboard1" x="0" y="0" width="512" height="512" style="fill:none;"/>
    <g id="Artboard11" serif:id="Artboard1">
        <g id="Layer-2" serif:id="Layer 2">
            <g transform="matrix(1,0,0,1,42.8599,460.333)">
                <path d="M-7.134,-352.248C19.704,-347.821 21.943,-327.206 21.943,-327.206L82.649,-346.079C82.649,-346.079 101.861,-387.968 134.468,-383.472C146.52,-384.529 160.115,-381.455 224.058,-392.391C229.342,-393.295 236.301,-393.894 241.655,-396.221C302.326,-422.578 367.483,-455.144 367.483,-455.144C367.483,-455.144 395.717,-396.505 324.25,-363.498C324.694,-362.022 322.729,-365.083 324.25,-363.498C325.992,-364.239 343.144,-358.41 454.328,-409.547C454.328,-409.547 491.894,-339.248 393.305,-294.423C382.989,-289.101 386.023,-263.078 390.14,-253.833C407.412,-215.048 403.14,-160.833 389.64,-102.333C375.458,-40.873 324.826,29.116 312.598,40.316C188.081,68.616 65.657,-19.434 89.138,-38.956C120.717,-65.21 161.7,-99.531 178.78,-123.333C194.272,-144.923 223.157,-193.663 201.403,-194.8C144.89,-197.752 35.586,-144.988 12.152,-163.236C-9.335,-179.966 -19.454,-221.641 -19.454,-221.641L-36.335,-344.671C-36.335,-344.671 -33.972,-356.674 -7.134,-352.248" style="fill:rgb(255,186,0);fill-rule:nonzero;"/>
            </g>
            <g transform="matrix(-0.829036,0.559195,0.559195,0.829036,50.4908,145.999)">
                <path d="M6.534,-21.372C12.982,-21.345 18.21,-16.092 18.21,-9.639C18.21,-3.185 12.982,2.024 6.534,1.998C0.086,1.971 -5.142,-3.282 -5.142,-9.735C-5.142,-16.189 0.086,-21.398 6.534,-21.372" style="fill:rgb(35,31,32);fill-rule:nonzero;"/>
            </g>
            <g transform="matrix(-0.553108,0.152282,-0.152282,-0.553108,581.284,262.21)">
                <path d="M676.18,237.68C706.149,236.374 882.816,256.829 896.338,263.581C912.088,271.446 906.034,338.961 784.498,330.605C665.112,322.396 647.595,238.926 676.18,237.68Z" style="fill:rgb(234,102,61);"/>
            </g>
        </g>
        <g transform="matrix(-2.23267,-2.05428,-1.21651,1.32215,235.217,199.094)">
            <path d="M7.814,-21.69C14.262,-21.663 18.21,-16.092 18.21,-9.639C18.21,-3.185 14.992,-0.199 8.543,-0.226C2.095,-0.253 -2.742,-5.523 -2.742,-11.976C-2.742,-18.43 1.365,-21.717 7.814,-21.69Z" style="fill:rgb(35,31,32);fill-rule:nonzero;"/>
        </g>
        <g transform="matrix(1.06857,0,0,1.06857,-785.881,-177.311)">
            <path d="M817.155,398.612C817.155,398.612 810.087,381.555 823.945,379.96C831.656,379.072 844.365,383.736 855.838,381.622C872.868,378.484 872.911,371.724 885.605,369.874C902.682,367.384 913.017,385.532 893.695,389.386C889.214,390.28 884.348,395.796 884.348,406.543C884.348,419.441 884.285,414.763 884.694,427.654C884.872,433.238 889.363,447.923 889.536,458.046C889.67,465.893 883.136,472.56 874.587,472.836C866.79,473.088 858.779,468.239 858.779,458.673C858.779,447.197 864.841,433.779 864.793,427.597C864.669,411.768 865.183,422.86 864.83,408.143C864.535,395.859 840.265,395.663 835.694,396.484L817.155,398.612Z" style="fill:rgb(31,184,239);"/>
        </g>
    </g>
</svg>
