<?xml version="1.0" encoding="UTF-8" standalone="no"?>
<!DOCTYPE svg PUBLIC "-//W3C//DTD SVG 1.1//EN" "http://www.w3.org/Graphics/SVG/1.1/DTD/svg11.dtd">
<svg width="100%" height="100%" viewBox="0 0 512 512" version="1.1" xmlns="http://www.w3.org/2000/svg" xmlns:xlink="http://www.w3.org/1999/xlink" xml:space="preserve" xmlns:serif="http://www.serif.com/" style="fill-rule:evenodd;clip-rule:evenodd;stroke-linecap:round;stroke-miterlimit:10;">
    <g transform="matrix(1,0,0,1,468.313,519.432)">
        <path d="M0,-483.209C-26.867,-475.505 -26.698,-454.285 -26.698,-454.285L-103.857,-438.696C-103.857,-438.696 -133.619,-477.688 -199.137,-472.133C-217.273,-470.595 -357.313,-519.432 -357.313,-519.432C-357.313,-519.432 -386.068,-441.745 -306.31,-435.477C-381.192,-441.361 -465.461,-450.486 -465.461,-450.486C-465.461,-450.486 -484.313,-378.086 -368.142,-363.394C-415.091,-293.15 -423.288,-223.077 -430.313,-179.432C-439.848,-120.207 -428.313,-61.765 -413.313,-38.432C-301.922,36.223 -185.646,-25.765 -166.646,-59.765C-222.647,-108.765 -272.3,-204.227 -205.097,-257.783C-159.845,-293.846 -8.824,-300.087 15.05,-323.519C34.99,-343.089 40.358,-386.654 40.358,-386.654L30.706,-478.996C30.706,-478.996 26.866,-490.913 0,-483.209" style="fill:rgb(255,186,0);fill-rule:nonzero;"/>
    </g>
    <g transform="matrix(-0.530924,-0.84742,-0.84742,0.530924,461.955,60.06)">
        <path d="M-11.279,-20.376C-18.629,-20.376 -24.588,-14.418 -24.589,-7.067C-24.589,0.284 -18.63,6.242 -11.279,6.243C-3.929,6.243 2.03,0.284 2.031,-7.066C2.03,-14.417 -3.928,-20.376 -11.279,-20.376" style="fill:rgb(35,31,32);fill-rule:nonzero;"/>
    </g>
    <g transform="matrix(1,0,0,1,495.932,144.485)">
        <path d="M0,20.23C0,20.23 -15.331,0.106 -48.83,-2.933C-82.832,-6.016 -133.414,26.246 -133.414,26.246" style="fill:none;fill-rule:nonzero;stroke:rgb(35,31,32);stroke-width:20px;"/>
    </g>
    <g transform="matrix(1,0,0,1,317.73,139.522)">
        <path d="M0,-47.562C-9.814,-41.188 -19.861,-34.956 -30.506,-29.594C-29.704,-22.793 -26.975,-15.936 -22.509,-10.669C-13.676,-0.25 -1.422,0 4.861,-10.111C11.146,-20.223 9.078,-36.866 0.245,-47.285C0.164,-47.38 0.082,-47.468 0,-47.562" style="fill:rgb(35,31,32);fill-rule:nonzero;"/>
    </g>
    <g transform="matrix(1,0,0,1,287.992,174.705)">
        <path d="M0,228.502C-54.106,228.504 -78.107,190.559 -83.238,170.493L-84.277,166.446C-90.345,142.878 -93.39,131.047 -86.211,101.922C-83.671,91.618 -84.258,77.212 -87.909,60.262C-89.673,52.07 -90.986,42.446 -92.041,34.712C-92.488,31.437 -92.91,28.343 -93.297,25.866C-94.05,21.045 -94.746,17.61 -95.254,15.102C-96.178,10.537 -96.909,6.932 -93.983,3.355C-92.239,1.221 -89.657,-0.002 -86.901,-0.002C-82.591,-0.002 -80.195,2.644 -77.877,5.202C-75.785,7.513 -72.281,11.381 -66.551,16.156C-49.538,30.334 -40.506,40.812 -31.967,65.418C-29.373,72.89 -25.209,75.801 -17.113,75.802C-10.423,75.802 -2.243,73.617 4.877,71.481C12.049,69.328 27.228,63.907 44.804,57.63C89.549,41.651 119.586,31.145 129.029,30.71C131.511,30.596 136.154,28.753 139.545,27.407C143.937,25.664 147.111,24.405 150.301,24.405C154.428,24.405 157.984,26.64 159.584,30.239C162.226,36.186 158.634,41.563 153.663,47.975C149.482,53.368 142.762,61.165 132.511,72.514C116.063,90.726 102.47,98.762 89.507,105.636C93.27,109.398 96.244,114.194 97.854,119.542C101.113,130.37 98.332,141.374 90.378,150.637C95.823,155.657 99.522,162.852 100.051,170.653C100.795,181.628 95.968,208.782 35.227,223.864C22.834,226.941 10.982,228.502 0,228.502" style="fill:rgb(250,192,54);fill-rule:nonzero;"/>
    </g>
    <g transform="matrix(1,0,0,1,201.091,412.207)">
        <path d="M0,-246.504L-0.009,-246.504L-0.019,-246.504C-5.483,-246.498 -10.599,-244.068 -14.055,-239.837C-19.675,-232.958 -18.229,-225.822 -17.173,-220.612C-16.682,-218.188 -16.01,-214.867 -15.288,-210.248C-14.915,-207.858 -14.499,-204.808 -14.058,-201.579C-12.982,-193.691 -11.644,-183.876 -9.806,-175.344C-6.49,-159.946 -5.866,-146.589 -8.048,-137.734C-15.771,-106.406 -12.333,-93.052 -6.092,-68.81C-5.758,-67.51 -5.412,-66.168 -5.057,-64.778C-2.463,-54.635 4.981,-39.215 18.096,-26.355C35.679,-9.113 59.471,0 86.901,0C98.612,0 111.194,-1.649 124.296,-4.902C148.163,-10.829 166.393,-19.223 178.48,-29.853C190.651,-40.558 196.849,-53.913 195.931,-67.457C195.448,-74.596 192.958,-81.492 188.821,-87.323C190.038,-89.307 191.084,-91.356 191.961,-93.468C195.588,-102.205 196.077,-111.571 193.374,-120.552C192.479,-123.524 191.268,-126.349 189.794,-128.988C200.757,-135.409 212.462,-143.864 226.091,-158.955C236.497,-170.475 243.355,-178.438 247.677,-184.013C252.191,-189.836 259.746,-199.582 254.709,-210.917C251.645,-217.813 244.936,-222.097 237.201,-222.097C232.292,-222.097 228.044,-220.411 223.126,-218.46C220.957,-217.598 216.942,-216.005 215.368,-215.775C205.54,-215.26 183.999,-208.103 128.679,-188.347C111.946,-182.372 96.141,-176.727 89.191,-174.641C82.697,-172.692 75.314,-170.7 69.788,-170.7C65.359,-170.7 64.675,-171.466 63.437,-175.035C54.252,-201.499 44.083,-213.283 26.111,-228.259C20.868,-232.629 17.755,-236.066 15.695,-238.34C12.93,-241.394 8.301,-246.504 0,-246.504M0,-228.504C0.854,-228.505 4.686,-222.683 14.588,-214.432C31.39,-200.43 38.826,-191.049 46.432,-169.133C50.771,-156.63 59.514,-152.7 69.788,-152.7C77.522,-152.7 86.123,-154.927 94.365,-157.401C115.558,-163.762 202.821,-197.179 216.344,-197.801C223.308,-198.122 233.767,-204.097 237.202,-204.097C240.801,-204.097 236.682,-197.536 212.733,-171.02C190.876,-146.82 175.26,-142.182 156.006,-131.121C156.616,-131.227 157.239,-131.279 157.87,-131.279C172.26,-131.279 190.956,-104.462 161.426,-84.915C180.167,-82.882 199.455,-42.111 119.958,-22.372C107.668,-19.32 96.689,-18 86.901,-18C33.378,-18 15.391,-57.474 12.382,-69.238C5.617,-95.691 2.421,-104.998 9.428,-133.425C13.275,-149.032 10.15,-168.178 7.791,-179.134C5.363,-190.402 3.819,-204.56 2.496,-213.025C0.768,-224.09 -0.744,-228.503 0,-228.504" style="fill:rgb(35,31,32);fill-rule:nonzero;"/>
    </g>
</svg>
