<?xml version="1.0" encoding="UTF-8" standalone="no"?>
<!DOCTYPE svg PUBLIC "-//W3C//DTD SVG 1.1//EN" "http://www.w3.org/Graphics/SVG/1.1/DTD/svg11.dtd">
<svg width="100%" height="100%" viewBox="0 0 512 512" version="1.1" xmlns="http://www.w3.org/2000/svg" xmlns:xlink="http://www.w3.org/1999/xlink" xml:space="preserve" xmlns:serif="http://www.serif.com/" style="fill-rule:evenodd;clip-rule:evenodd;stroke-linejoin:round;stroke-miterlimit:2;">
    <g transform="matrix(1,0,0,1,0,-0.00132501)">
        <g id="Artboard1" transform="matrix(1,0,0,1,0,0.00132501)">
            <rect x="0" y="0" width="512" height="512" style="fill:none;"/>
            <clipPath id="_clip1">
                <rect x="0" y="0" width="512" height="512"/>
            </clipPath>
            <g clip-path="url(#_clip1)">
                <g id="Layer-2" serif:id="Layer 2">
                    <g transform="matrix(0.983463,-0.0448322,0.0448322,0.983463,54.4812,456.389)">
                        <path d="M13.472,-423.365C38.608,-412.969 36.114,-392.383 36.114,-392.383L99.518,-397.002C99.518,-397.002 127.727,-433.445 158.466,-421.673C170.443,-419.971 182.988,-413.895 247.745,-410.05C253.096,-409.731 259.151,-407.178 264.813,-408.601C328.968,-424.716 398.562,-446.226 398.562,-446.226C398.562,-446.226 428.064,-389.453 344.061,-350.797C343.877,-349.267 343.847,-351.115 344.607,-349.054C346.5,-349.036 356.026,-349.954 475.909,-374.553C475.909,-374.553 496.558,-297.568 390.374,-276.262C379.121,-273.417 380.475,-263.279 386.186,-254.924C410.373,-219.538 433.459,-169.18 421.976,-79.736C413.944,-17.174 371.233,44.741 360.802,57.632C241.861,104.092 138.772,0.186 159.097,-22.603C186.432,-53.252 203.811,-72.101 212.895,-99.953C228.385,-147.445 201.813,-216.7 180.884,-222.739C126.511,-238.427 -4.295,-231.453 -22.982,-254.538C-40.118,-275.704 -40.524,-318.587 -40.524,-318.587L-16.687,-422.606C-16.687,-422.606 -11.664,-433.761 13.472,-423.365" style="fill:rgb(255,186,0);fill-rule:nonzero;"/>
                        <clipPath id="_clip2">
                            <path d="M13.472,-423.365C38.608,-412.969 36.114,-392.383 36.114,-392.383L99.518,-397.002C99.518,-397.002 127.727,-433.445 158.466,-421.673C170.443,-419.971 182.988,-413.895 247.745,-410.05C253.096,-409.731 259.151,-407.178 264.813,-408.601C328.968,-424.716 398.562,-446.226 398.562,-446.226C398.562,-446.226 428.064,-389.453 344.061,-350.797C343.877,-349.267 343.847,-351.115 344.607,-349.054C346.5,-349.036 356.026,-349.954 475.909,-374.553C475.909,-374.553 496.558,-297.568 390.374,-276.262C379.121,-273.417 380.475,-263.279 386.186,-254.924C410.373,-219.538 433.459,-169.18 421.976,-79.736C413.944,-17.174 371.233,44.741 360.802,57.632C241.861,104.092 138.772,0.186 159.097,-22.603C186.432,-53.252 203.811,-72.101 212.895,-99.953C228.385,-147.445 201.813,-216.7 180.884,-222.739C126.511,-238.427 -4.295,-231.453 -22.982,-254.538C-40.118,-275.704 -40.524,-318.587 -40.524,-318.587L-16.687,-422.606C-16.687,-422.606 -11.664,-433.761 13.472,-423.365" clip-rule="nonzero"/>
                        </clipPath>
                        <g clip-path="url(#_clip2)">
                            <g transform="matrix(-13.8914,38.5409,66.8346,24.0893,195.837,-263.982)">
                                <ellipse cx="-0" cy="0" rx="1" ry="1" style="fill:url(#_Radial3);"/>
                            </g>
                        </g>
                    </g>
                    <g transform="matrix(-0.996451,0.0841806,0.0841806,0.996451,60.2203,80.8913)">
                        <path d="M6.534,-21.372C12.982,-21.345 18.21,-16.092 18.21,-9.639C18.21,-3.185 12.982,2.024 6.534,1.998C0.086,1.971 -5.142,-3.282 -5.142,-9.735C-5.142,-16.189 0.086,-21.398 6.534,-21.372" style="fill:rgb(35,31,32);fill-rule:nonzero;"/>
                    </g>
                    <g transform="matrix(-0.135419,1.04228,1.23788,0.160832,272.196,106.544)">
                        <path d="M13.585,-46.974C16.432,-54.239 42.936,-38.908 42.572,-25.782C41.962,-3.802 19.568,14.307 13.585,2.503C10.247,-4.082 36.309,-9.538 30.832,-25.447C26.543,-37.905 8.936,-35.112 13.585,-46.974" style="fill:rgb(47,47,47);fill-rule:nonzero;stroke:rgb(27,32,49);stroke-width:4.52px;"/>
                    </g>
                    <g transform="matrix(0.9692,0.0669875,-0.0582389,0.842622,7.968,192.21)">
                        <path d="M0,-43.055C3.257,-29.52 10.07,-17.534 18.224,-6.722C23.111,-0.24 30.447,11.85 38.627,3.976C44.611,-1.784 49.14,-9.846 53.623,-16.962C57.471,-23.072 59.867,-29.894 61.193,-30.228C62.518,-30.561 74.544,-13.556 84.549,-1.539C85.299,-0.639 91.689,7.71 96.762,6.879C103.268,5.814 104.655,1.773 107.106,-1.213C112.371,-7.624 115.499,-12.254 120.354,-19.036C123.141,-22.929 125.904,-26.847 128.549,-30.857C130.261,-33.451 132.373,-36.289 133.354,-39.351C136.324,-48.62 123.07,-54.335 120.1,-45.065C119.638,-43.624 120.442,-45.628 120.311,-45.41C119.962,-44.835 119.645,-44.236 119.298,-43.66C118.232,-41.892 117.088,-40.18 115.943,-38.476C112.909,-33.963 109.763,-29.54 106.583,-25.151C103.526,-20.931 100.432,-16.742 97.262,-12.624C96.061,-11.063 94.226,-11.395 92.879,-12.9C88.986,-17.248 84.617,-22.132 80.866,-26.624C75.193,-33.418 71.132,-40.108 64.488,-46.259C61.565,-48.966 55.366,-47.775 53.358,-44.609C49.585,-38.661 47.424,-32.959 44.013,-26.749C41.7,-22.54 35.726,-11.118 33.48,-11.215C31.563,-11.298 28.662,-16.69 26.554,-19.655C21.092,-27.336 16.16,-35.913 13.894,-45.33C11.589,-54.905 -2.324,-52.712 0,-43.055" style="fill:rgb(47,47,47);fill-rule:nonzero;stroke:rgb(27,32,49);stroke-width:5.46px;"/>
                    </g>
                </g>
                <g transform="matrix(0.999788,0.0205969,-0.0205969,0.999788,-1214.48,-155.651)">
                    <g transform="matrix(1,0,0,1,554.578,0)">
                        <path d="M693.339,359.166C693.339,359.166 678.842,481.985 776.902,481.488C824.271,481.248 834.393,458.271 834.393,458.271C909.187,482.74 934.373,407.294 863.778,382.659C866.111,380.199 869.608,374.667 870.007,370.417C813.8,332.562 754.701,333.444 693.339,359.166Z" style="fill:white;"/>
                        <clipPath id="_clip4">
                            <path d="M693.339,359.166C693.339,359.166 678.842,481.985 776.902,481.488C824.271,481.248 834.393,458.271 834.393,458.271C909.187,482.74 934.373,407.294 863.778,382.659C866.111,380.199 869.608,374.667 870.007,370.417C813.8,332.562 754.701,333.444 693.339,359.166Z"/>
                        </clipPath>
                        <g clip-path="url(#_clip4)">
                            <path d="M709.352,367.839C727.852,351.408 831.89,350.836 852.395,373.209C836.287,394.957 722.883,389.834 709.352,367.839Z" style="fill:rgb(103,44,41);"/>
                            <clipPath id="_clip5">
                                <path d="M709.352,367.839C727.852,351.408 831.89,350.836 852.395,373.209C836.287,394.957 722.883,389.834 709.352,367.839Z"/>
                            </clipPath>
                            <g clip-path="url(#_clip5)">
                                <g transform="matrix(0.884685,0,0,0.758032,90.0467,89.9006)">
                                    <path d="M709.352,367.839C727.852,351.408 831.89,350.836 852.395,373.209C836.287,394.957 722.883,389.834 709.352,367.839Z" style="fill:rgb(121,68,65);"/>
                                    <clipPath id="_clip6">
                                        <path d="M709.352,367.839C727.852,351.408 831.89,350.836 852.395,373.209C836.287,394.957 722.883,389.834 709.352,367.839Z"/>
                                    </clipPath>
                                    <g clip-path="url(#_clip6)">
                                        <g transform="matrix(1.13035,0,0,0.808699,-99.3562,71.6996)">
                                            <path d="M787.501,376.802C784.183,374.115 791.586,374.552 794.101,376.307C801.309,381.337 789.77,383.701 785.023,381.94C778.479,379.514 774.174,377.431 770.248,372.734C767.215,369.106 765.52,365.036 761.256,362.528C757.061,360.06 748.157,358.535 746.206,364.693C744.943,368.678 746.666,376.597 753.715,377.665C756.467,378.082 760.284,375.496 760.441,374.869C761.45,370.844 757.56,369.106 754.543,369.427" style="fill:none;stroke:rgb(188,135,132);stroke-width:3.9px;stroke-linecap:round;stroke-linejoin:miter;stroke-miterlimit:1.5;"/>
                                        </g>
                                        <g transform="matrix(1.13035,0,0,1.31921,-101.784,-118.597)">
                                            <path d="M795.264,364.618C801.465,364.717 808.731,364.978 814.29,368.06C816.198,369.118 818.83,370.657 819.074,373.088C819.637,378.689 812.692,374.637 811.423,372.497" style="fill:none;stroke:rgb(188,135,132);stroke-width:3.24px;stroke-linecap:round;stroke-linejoin:miter;stroke-miterlimit:1.5;"/>
                                        </g>
                                    </g>
                                </g>
                            </g>
                        </g>
                        <path d="M693.339,359.166C693.339,359.166 678.842,481.985 776.902,481.488C824.271,481.248 834.393,458.271 834.393,458.271C909.187,482.74 934.373,407.294 863.778,382.659C866.111,380.199 869.608,374.667 870.007,370.417C813.8,332.562 754.701,333.444 693.339,359.166Z" style="fill:none;stroke:black;stroke-width:5.38px;stroke-linecap:round;stroke-linejoin:miter;stroke-miterlimit:1.5;"/>
                    </g>
                    <g transform="matrix(1,0,0,1,554.578,0)">
                        <path d="M711.318,366.386C721.987,365.263 730.695,346.74 689.698,328.934C681.46,325.356 661.175,312.507 661.173,288.73C661.171,270.365 676.635,253.776 696.075,242.082C680.315,268.183 689.179,299.592 729.97,303.831C806.476,311.782 841.793,327.12 850.589,373.098C799.616,336.442 755.131,341.282 711.318,366.386Z" style="fill:white;fill-opacity:0.52;"/>
                    </g>
                </g>
                <g transform="matrix(0.793173,0.608996,-0.608996,0.793173,318.476,-100.908)">
                    <g transform="matrix(0.664427,-0.979097,0.801895,0.544176,-246.649,416.404)">
                        <path d="M228.498,410.079C230.115,439.007 182.679,432.95 171.373,426.177C160.068,419.405 160.89,393.093 160.666,369.445C160.493,351.248 171.555,305.019 171.555,305.019C180.391,318.938 182.765,316.978 189.276,295.356C189.276,295.356 199.002,317.232 203.859,317.689C208.716,318.146 218.416,298.099 218.416,298.099C218.416,298.099 206.06,345.703 218.138,343.69C230.217,341.676 246.058,315.504 238.287,343.69C222.387,401.357 227.834,398.202 228.498,410.079Z" style="fill:rgb(255,186,0);"/>
                    </g>
                    <g transform="matrix(0.664427,-0.979097,0.801895,0.544176,-246.649,416.404)">
                        <path d="M204.05,314.214C204.261,314.085 204.911,313.673 205.315,313.288C206.386,312.266 207.516,310.798 208.631,309.178C212.438,303.644 215.966,296.332 215.966,296.332C216.702,294.811 218.256,294.206 219.577,294.927C220.898,295.648 221.566,297.464 221.128,299.148C221.128,299.148 217.031,314.96 215.952,327.748C215.603,331.888 215.535,335.682 216.174,338.353C216.445,339.484 216.809,340.39 217.752,340.233C220.667,339.75 223.797,337.599 226.722,335.35C230.661,332.321 234.257,329.051 236.596,327.906C239.195,326.634 241.069,327.396 242.148,329.038C242.746,329.949 243.266,331.467 243.144,333.887C243.033,336.104 242.37,339.605 240.931,344.777C238.999,351.634 237.459,357.658 236.017,362.88C235.582,364.454 235.145,365.944 234.716,367.371C233.987,369.795 233.311,372.009 232.653,374.064C230.45,380.934 228.837,385.818 227.881,389.783C227.675,390.636 227.457,391.406 227.34,392.172C227.318,392.314 227.301,392.456 227.286,392.596L227.252,393.124C226.696,401.818 228.153,403.914 228.498,410.079C229.183,422.183 221.281,428.18 211.024,430.552C200.603,432.961 187.747,431.657 179.023,429.191C178.485,429.039 177.952,428.924 177.459,428.717L177.458,428.717C174.781,428.164 172.565,427.915 170.923,427.298C167.21,425.895 164.24,422.82 162.168,418.156C161.431,416.496 160.998,414.559 160.543,412.559C157.89,400.882 158.133,384.645 157.988,369.483C157.924,362.973 159.241,352.967 161.003,342.691C164.235,323.854 168.931,304.083 168.931,304.083C169.219,302.879 170.036,301.974 171.045,301.74C172.054,301.506 173.086,301.983 173.715,302.974C175.415,305.644 176.849,307.695 178.121,309.075C178.613,309.608 179.063,310.025 179.496,310.298C179.695,310.423 179.86,310.551 180.036,310.511C180.3,310.451 180.495,310.157 180.746,309.822C181.149,309.284 181.543,308.58 181.954,307.721C183.362,304.785 184.834,300.298 186.666,294.184C187.043,292.933 187.985,292.066 189.075,291.97C190.164,291.873 191.199,292.564 191.72,293.736C191.72,293.736 195.297,301.756 199.152,308.041C200.295,309.904 201.457,311.611 202.554,312.862C202.936,313.298 203.305,313.672 203.66,313.957C203.773,314.048 203.944,314.152 204.05,314.214ZM237.772,334.987C236.941,335.533 235.86,336.279 234.959,337.013C230.26,340.839 224.001,346.225 218.525,347.146C216.287,347.52 214.555,346.803 213.209,345.414C211.732,343.891 210.69,341.318 210.256,337.914C209.504,332.013 210.544,323.097 211.913,315.099C211.736,315.339 211.558,315.574 211.38,315.803C209.906,317.703 208.423,319.221 207.101,320.09C205.861,320.904 204.68,321.22 203.642,321.12C202.644,321.024 201.489,320.505 200.295,319.476C199.028,318.385 197.615,316.649 196.207,314.559C193.901,311.136 191.551,306.726 189.781,303.18C188.225,307.828 186.863,311.168 185.549,313.285C184.097,315.624 182.565,316.777 181.04,317.119C179.392,317.489 177.582,316.989 175.597,315.203C174.733,314.426 173.797,313.361 172.771,312.008C171.13,319.215 168.375,331.825 166.26,344.042C164.576,353.77 163.286,363.241 163.343,369.407C163.461,381.683 163.312,394.681 164.718,405.226C165.258,409.278 166.197,412.86 167.165,416.039C168.303,419.779 169.408,422.978 171.824,425.057C173.174,426.218 174.99,427.678 177.458,428.717L177.459,428.717C177.974,428.823 178.489,429.017 179.028,429.164C187.763,431.549 200.598,432.896 211.015,430.495C221.262,428.132 229.165,422.172 228.498,410.079C228.163,404.078 226.606,401.915 227.199,393.805C227.227,393.417 227.243,393.012 227.286,392.596C227.311,392.215 227.335,391.822 227.349,391.414C227.48,387.579 227.583,382.69 228.345,375.833C228.537,374.109 228.743,372.301 229.048,370.345C229.439,367.847 229.925,365.165 230.561,362.267C231.807,356.586 233.612,350.133 235.642,342.602C236.443,339.672 237.368,336.84 237.772,334.987ZM237.977,333.588C237.989,333.061 237.856,332.786 237.52,332.84C237.317,332.873 237.675,333.23 237.759,333.357C237.814,333.44 237.889,333.517 237.977,333.588Z" style="fill:rgb(27,32,49);"/>
                    </g>
                </g>
            </g>
        </g>
    </g>
    <defs>
        <radialGradient id="_Radial3" cx="0" cy="0" r="1" gradientUnits="userSpaceOnUse" gradientTransform="matrix(0,1,1,0,-8.49688e-06,8.49688e-06)"><stop offset="0" style="stop-color:rgb(247,148,29);stop-opacity:1"/><stop offset="0.5" style="stop-color:rgb(249,155,23);stop-opacity:1"/><stop offset="0.69" style="stop-color:rgb(252,171,11);stop-opacity:1"/><stop offset="0.86" style="stop-color:rgb(255,186,0);stop-opacity:1"/><stop offset="1" style="stop-color:rgb(255,186,0);stop-opacity:1"/></radialGradient>
    </defs>
</svg>
