<?xml version="1.0" encoding="UTF-8" standalone="no"?>
<!DOCTYPE svg PUBLIC "-//W3C//DTD SVG 1.1//EN" "http://www.w3.org/Graphics/SVG/1.1/DTD/svg11.dtd">
<svg width="100%" height="100%" viewBox="0 0 512 512" version="1.1" xmlns="http://www.w3.org/2000/svg" xmlns:xlink="http://www.w3.org/1999/xlink" xml:space="preserve" xmlns:serif="http://www.serif.com/" style="fill-rule:evenodd;clip-rule:evenodd;stroke-miterlimit:10;">
    <rect id="Artboard1" x="0" y="0" width="512" height="512" style="fill:none;"/>
    <clipPath id="_clip1">
        <rect id="Artboard11" serif:id="Artboard1" x="0" y="0" width="512" height="512"/>
    </clipPath>
    <g clip-path="url(#_clip1)">
        <g id="Layer-2" serif:id="Layer 2">
            <g transform="matrix(1,0,0,1,42.8599,460.333)">
                <path d="M0,-376.63C26.196,-369.305 26.175,-348.569 26.175,-348.569L88.576,-360.715C88.576,-360.715 112.238,-400.262 144.161,-392.239C156.256,-391.977 169.436,-387.44 234.189,-391.344C239.54,-391.666 262.166,-396.773 267.964,-397.459C333.655,-405.224 405.431,-417.644 405.431,-417.644C405.431,-417.644 415.579,-353.357 337.633,-342.333C337.633,-340.792 336.633,-344.289 337.633,-342.333C339.515,-342.541 348.864,-344.589 464.958,-383.307C464.958,-383.307 494.64,-309.333 391.754,-275.518C380.92,-271.351 386.023,-263.078 390.14,-253.833C407.412,-215.048 403.14,-160.833 389.64,-102.333C375.458,-40.873 324.826,29.116 312.598,40.316C188.081,68.616 65.657,-19.434 89.138,-38.956C120.717,-65.21 161.7,-99.531 178.78,-123.333C194.272,-144.923 211.64,-193.897 190.14,-197.397C134.285,-206.49 19.883,-165.95 -1.423,-186.642C-20.96,-205.614 -26.477,-248.143 -26.477,-248.143L-29.853,-372.28C-29.853,-372.28 -26.196,-383.954 0,-376.63" style="fill:rgb(255,186,0);fill-rule:nonzero;"/>
            </g>
            <g transform="matrix(0,73.4786,71.0434,0,255.999,190.522)">
                <ellipse cx="0" cy="0" rx="1" ry="1" style="fill:url(#_Radial2);"/>
            </g>
            <g transform="matrix(-0.829036,0.559195,0.559195,0.829036,48.2208,113.618)">
                <path d="M6.534,-21.372C12.982,-21.345 18.21,-16.092 18.21,-9.639C18.21,-3.185 12.982,2.024 6.534,1.998C0.086,1.971 -5.142,-3.282 -5.142,-9.735C-5.142,-16.189 0.086,-21.398 6.534,-21.372" style="fill:rgb(35,31,32);fill-rule:nonzero;"/>
            </g>
            <g transform="matrix(0.292746,-0.95619,-0.95619,-0.292746,168.256,170.928)">
                <path d="M13.585,-46.974C16.432,-54.239 42.936,-38.908 42.572,-25.782C41.962,-3.802 19.568,14.307 13.585,2.503C10.247,-4.082 36.309,-9.538 30.832,-25.447C26.543,-37.905 8.936,-35.112 13.585,-46.974" style="fill:rgb(47,47,47);fill-rule:nonzero;"/>
            </g>
        </g>
        <g transform="matrix(0.633157,0,0,0.633157,-428.585,17.1377)">
            <path d="M676.18,237.68C707.059,220.038 727.982,259.264 788.793,260.766C820.164,261.54 883.669,241.528 896.338,263.581C905.107,278.847 896.816,378.92 775.279,370.563C655.894,362.354 651.336,251.874 676.18,237.68Z" style="fill:rgb(237,108,48);"/>
        </g>
        <g transform="matrix(0.257094,-0.966386,-0.966386,-0.257094,169.743,170.96)">
            <path d="M13.585,-46.974C16.432,-54.239 42.936,-38.908 42.572,-25.782C41.962,-3.802 19.568,14.307 13.585,2.503C12.954,1.258 13.374,0.053 14.433,-1.19C18.976,-6.519 35.273,-12.546 30.832,-25.447C26.543,-37.905 8.936,-35.112 13.585,-46.974Z" style="fill:none;fill-rule:nonzero;stroke:rgb(27,32,49);stroke-width:5px;"/>
        </g>
    </g>
    <defs>
        <radialGradient id="_Radial2" cx="0" cy="0" r="1" gradientUnits="userSpaceOnUse" gradientTransform="matrix(0,1,1,0,-8.49688e-06,8.49688e-06)"><stop offset="0" style="stop-color:rgb(247,148,29);stop-opacity:1"/><stop offset="1" style="stop-color:rgb(255,186,0);stop-opacity:1"/></radialGradient>
    </defs>
</svg>
