<?xml version="1.0" encoding="UTF-8" standalone="no"?>
<!DOCTYPE svg PUBLIC "-//W3C//DTD SVG 1.1//EN" "http://www.w3.org/Graphics/SVG/1.1/DTD/svg11.dtd">
<svg width="100%" height="100%" viewBox="0 0 512 512" version="1.1" xmlns="http://www.w3.org/2000/svg" xmlns:xlink="http://www.w3.org/1999/xlink" xml:space="preserve" xmlns:serif="http://www.serif.com/" style="fill-rule:evenodd;clip-rule:evenodd;stroke-linecap:round;stroke-miterlimit:10;">
    <g transform="matrix(1,0,0,1,493.432,264.278)">
        <path d="M0,40.498C-22.918,26.966 -37.479,40.976 -37.479,40.976L-71.268,-11.234C-71.268,-11.234 -59.519,-54.613 -86.812,-71.714C-104.61,-82.866 -324.966,-233.814 -324.966,-233.814C-324.966,-233.814 -364.245,-171.768 -308.132,-128.102C-364.849,-166.145 -448.627,-222.946 -448.627,-222.946C-448.627,-222.946 -490.161,-157.491 -411.368,-103.368C-428.377,-92.107 -445.656,-75.81 -461.895,-52.445C-504.689,9.124 -498.045,56.032 -471.339,115.844C-462.037,136.679 -486.998,181.175 -488.432,203.222C-382.358,274.312 -219.715,231.107 -188.311,228.8C-200.721,128.582 -349.777,27.854 -241.578,71.222C-190.432,91.722 -141.824,166.726 -109.99,167.893C-83.402,168.867 -49.765,144.055 -49.765,144.055L17.191,64.489C17.191,64.489 22.918,54.031 0,40.498" style="fill:rgb(255,186,0);fill-rule:nonzero;"/>
    </g>
    <g transform="matrix(0,73.4786,71.0434,0,194.708,240.668)">
        <ellipse cx="0" cy="0" rx="1" ry="1" style="fill:url(#_Radial1);"/>
    </g>
    <g transform="matrix(-0.530963,-0.847395,-0.847395,0.530963,466.64,327.803)">
        <path d="M-10.739,-19.403C-17.74,-19.403 -23.413,-13.729 -23.414,-6.728C-23.414,0.271 -17.739,5.946 -10.739,5.945C-3.739,5.944 1.935,0.271 1.936,-6.729C1.936,-13.729 -3.739,-19.403 -10.739,-19.403" style="fill:rgb(35,31,32);fill-rule:nonzero;"/>
    </g>
    <g transform="matrix(1,0,0,1,341.31,225.868)">
        <path d="M0,36.227C1.834,33.007 -11.289,20.698 -22.31,9.591C-32.74,-0.922 -45.539,-8.237 -38.81,-17.909C-29.513,-31.273 -25.677,-17.544 0.19,4.591C20.481,21.954 36.69,37.621 25.69,50.632C11.431,67.5 -54.959,50.204 -54.31,42.59C-52.916,26.255 -47.964,30.68 -30.562,35.123C-17.075,38.567 -2.679,40.928 0,36.227" style="fill:rgb(35,31,32);fill-rule:nonzero;"/>
    </g>
    <g transform="matrix(1,0,0,1,340.5,395.275)">
        <path d="M0,-57.275C0,-57.275 4.628,-33.632 31.966,-16.942C59.715,0 116.5,-6.275 116.5,-6.275" style="fill:none;fill-rule:nonzero;stroke:rgb(35,31,32);stroke-width:16px;"/>
    </g>
    <g transform="matrix(1,0,0,1,285.072,176.063)">
        <path d="M0,-97.063C36.076,-93.442 74.436,-76.1 92.666,-52.938C110.896,-29.776 119.458,4.125 92.015,6.359C64.57,8.594 -24.488,-12.564 -35.333,-37.063C-40.042,-47.697 -26.12,-61.251 -26.12,-61.251C-26.12,-61.251 -60.714,-43.136 -67.256,-74.396C-73.799,-105.657 -37.833,-100.86 0,-97.063" style="fill:rgb(255,186,0);fill-rule:nonzero;"/>
    </g>
    <g transform="matrix(1,0,0,1,389.616,83.4596)">
        <path d="M0,93.994C-1.341,94.722 -10.459,90.777 -13.182,90.999C-26.094,92.048 -54.884,87.159 -80.144,79.62C-114.444,69.384 -129.82,58.512 -132.565,52.311C-134.124,48.791 -129.123,41.07 -125.086,37.094C-122.24,34.323 -121.858,29.883 -124.189,26.666C-125.74,24.528 -128.178,23.361 -130.672,23.361C-131.928,23.361 -133.2,23.657 -134.378,24.275C-137.985,26.163 -149.906,30.784 -157.135,27.373C-158.392,26.78 -162.216,24.974 -163.973,16.578C-165.068,11.347 -164.676,7.641 -162.808,5.565C-160.371,2.858 -154.347,-6.058 -147.869,-6.556C-152.455,-10.653 -156.947,-8.378 -160.793,-13.139C-166.446,-11.59 -171.169,-9.062 -174.701,-5.138C-180.173,0.942 -181.833,9.351 -179.634,19.855C-176.834,33.236 -169.567,39.197 -163.965,41.842C-158.782,44.289 -153.196,44.86 -147.971,44.49C-149.21,49.016 -149.341,53.943 -147.196,58.788C-139.811,75.473 -109.144,87.663 -84.719,94.952C-59.771,102.397 -33.079,107.133 -16.957,107.133C-15.123,107.133 -13.425,107.072 -11.883,106.946C-4.287,106.328 1.918,103.576 6.239,99.036C1.783,95.766 4.629,96.831 0,93.994" style="fill:rgb(35,31,32);fill-rule:nonzero;"/>
    </g>
    <defs>
        <radialGradient id="_Radial1" cx="0" cy="0" r="1" gradientUnits="userSpaceOnUse" gradientTransform="matrix(0,1,1,0,-6.56657e-07,6.56657e-07)"><stop offset="0" style="stop-color:rgb(247,148,29);stop-opacity:1"/><stop offset="1" style="stop-color:rgb(255,186,0);stop-opacity:1"/></radialGradient>
    </defs>
</svg>
