<?xml version="1.0" encoding="UTF-8" standalone="no"?>
<!DOCTYPE svg PUBLIC "-//W3C//DTD SVG 1.1//EN" "http://www.w3.org/Graphics/SVG/1.1/DTD/svg11.dtd">
<svg width="100%" height="100%" viewBox="0 0 512 512" version="1.1" xmlns="http://www.w3.org/2000/svg" xmlns:xlink="http://www.w3.org/1999/xlink" xml:space="preserve" xmlns:serif="http://www.serif.com/" style="fill-rule:evenodd;clip-rule:evenodd;stroke-linejoin:round;stroke-miterlimit:2;">
    <rect id="Artboard1" x="0" y="0" width="512" height="512" style="fill:none;"/>
    <clipPath id="_clip1">
        <rect id="Artboard11" serif:id="Artboard1" x="0" y="0" width="512" height="512"/>
    </clipPath>
    <g clip-path="url(#_clip1)">
        <g id="Layer-2" serif:id="Layer 2">
            <g transform="matrix(1,0,0,1,42.8599,460.333)">
                <path d="M7.066,-315.596C34.206,-313.779 38.422,-293.476 38.422,-293.476L97.025,-318.116C97.025,-318.116 112.107,-361.664 144.996,-360.333C156.889,-362.548 151.066,-360.133 211.273,-384.284C216.248,-386.28 222.008,-387.851 227.327,-390.256C282.15,-415.051 307.613,-460.333 307.613,-460.333C307.613,-460.333 372.24,-423.044 323.05,-350.772C323.537,-349.31 330.142,-351.65 331.394,-349.844C333.231,-350.301 396.272,-356.14 465.289,-376.904C465.289,-376.904 491.546,-324.272 406.935,-281.774C396.178,-277.414 419.868,-254.141 425.283,-222.083C430.883,-188.928 430.85,-159.813 411.231,-102.333C390.858,-42.639 346.417,29.116 334.189,40.316C209.672,68.616 87.248,-19.434 110.729,-38.956C142.308,-65.21 183.291,-99.531 200.371,-123.333C215.863,-144.923 251.579,-179.964 229.817,-178.997C173.283,-176.485 51.565,-128.071 26.481,-143.973C3.479,-158.552 -10.611,-199.057 -10.611,-199.057L-21.269,-305.238C-21.269,-305.238 -20.074,-317.413 7.066,-315.596" style="fill:rgb(255,186,0);fill-rule:nonzero;"/>
            </g>
            <g transform="matrix(-0.829036,0.559195,0.559195,0.829036,49.7523,181.237)">
                <path d="M-11.366,-9.298C-4.918,-9.271 0.309,-4.018 0.31,2.435C0.31,8.888 -4.918,14.098 -11.366,14.071C-17.814,14.045 -23.042,8.792 -23.042,2.339C-23.042,-4.115 -17.814,-9.325 -11.366,-9.298" style="fill:rgb(35,31,32);fill-rule:nonzero;"/>
            </g>
            <g transform="matrix(-0.655273,0.755392,0.755392,0.655273,240.259,183.098)">
                <path d="M9.83,-18.996C19.827,-15.427 37.008,-6.008 36.677,7.12C36.347,20.248 25.399,29.663 7.943,29.18C-9.513,28.697 -21.131,14.764 -23.06,0.835C-25.387,-15.974 -9.253,-25.809 9.83,-18.996Z" style="fill:rgb(47,47,47);fill-rule:nonzero;stroke:rgb(27,32,49);stroke-width:4.34px;"/>
            </g>
            <path d="M-8.096,301.082L33.07,264.615C33.07,264.615 41.891,281.539 47.772,286.93C53.653,292.321 81.588,256 81.588,256L121.166,291.831L146.277,256L335.756,342.798L420.229,619.2L-147.277,594.207L-8.096,301.082Z" style="fill:none;"/>
            <clipPath id="_clip2">
                <path d="M-8.096,301.082L33.07,264.615C33.07,264.615 41.891,281.539 47.772,286.93C53.653,292.321 81.588,256 81.588,256L121.166,291.831L146.277,256L335.756,342.798L420.229,619.2L-147.277,594.207L-8.096,301.082Z"/>
            </clipPath>
            <g clip-path="url(#_clip2)">
                <g transform="matrix(0.784781,-4.69009e-17,4.69009e-17,0.784781,-954.557,70.8111)">
                    <g transform="matrix(0.967877,0,0,0.967877,16.0138,8.22342)">
                        <circle cx="1377.91" cy="381.102" r="125.102" style="fill:rgb(185,147,121);"/>
                    </g>
                    <g transform="matrix(0.175977,0,0,0.175977,1110.55,314.324)">
                        <circle cx="1377.91" cy="381.102" r="125.102" style="fill:rgb(134,92,81);"/>
                    </g>
                    <g transform="matrix(0.197131,0,0,0.197131,1133.03,362.105)">
                        <circle cx="1377.91" cy="381.102" r="125.102" style="fill:rgb(134,92,81);"/>
                    </g>
                    <g transform="matrix(0.154823,0,0,0.154823,1229.87,296.594)">
                        <circle cx="1377.91" cy="381.102" r="125.102" style="fill:rgb(134,92,81);"/>
                    </g>
                    <g transform="matrix(0.0985656,0,0,0.0985656,1204.89,417.999)">
                        <circle cx="1377.91" cy="381.102" r="125.102" style="fill:rgb(134,92,81);"/>
                    </g>
                    <g transform="matrix(0.146358,0,0,0.146358,1067.38,333.499)">
                        <circle cx="1377.91" cy="381.102" r="125.102" style="fill:rgb(134,92,81);"/>
                    </g>
                    <g transform="matrix(0.146358,0,0,0.146358,1169.67,248.03)">
                        <circle cx="1377.91" cy="381.102" r="125.102" style="fill:rgb(134,92,81);"/>
                    </g>
                    <g transform="matrix(0.103267,0,0,0.103267,1164.65,269.843)">
                        <circle cx="1377.91" cy="381.102" r="125.102" style="fill:rgb(134,92,81);"/>
                    </g>
                </g>
            </g>
            <g transform="matrix(0.922101,0,0,0.821036,10.4065,295.386)">
                <path d="M21.591,-43.055C24.848,-29.52 31.661,-17.534 39.815,-6.722C44.702,-0.24 52.038,11.85 60.218,3.976C66.202,-1.784 70.731,-9.846 75.214,-16.962C79.062,-23.072 81.458,-29.894 82.784,-30.228C84.109,-30.561 96.135,-13.556 106.14,-1.539C106.89,-0.639 113.28,7.71 118.353,6.879C124.859,5.814 126.246,1.773 128.697,-1.213C133.962,-7.624 137.09,-12.254 141.945,-19.036C144.732,-22.929 147.495,-26.847 150.14,-30.857C151.852,-33.451 153.964,-36.289 154.945,-39.351C157.915,-48.62 144.661,-54.335 141.691,-45.065C141.229,-43.624 142.033,-45.628 141.902,-45.41C141.553,-44.835 141.236,-44.236 140.889,-43.66C139.823,-41.892 138.679,-40.18 137.534,-38.476C134.5,-33.963 131.354,-29.54 128.174,-25.151C125.117,-20.931 122.023,-16.742 118.853,-12.624C117.652,-11.063 115.817,-11.395 114.47,-12.9C110.577,-17.248 106.208,-22.132 102.457,-26.624C96.784,-33.418 92.723,-40.108 86.079,-46.259C83.156,-48.966 76.957,-47.775 74.949,-44.609C71.176,-38.661 69.015,-32.959 65.604,-26.749C63.291,-22.54 57.317,-11.118 55.071,-11.215C53.154,-11.298 50.253,-16.69 48.145,-19.655C42.683,-27.336 37.751,-35.913 35.485,-45.33C33.18,-54.905 19.267,-52.712 21.591,-43.055" style="fill:rgb(47,47,47);fill-rule:nonzero;stroke:rgb(27,32,49);stroke-width:4.93px;"/>
            </g>
            <g transform="matrix(-1.29207,-0.199075,-0.179476,1.16486,364.44,29.9775)">
                <path d="M230.335,343.696C239.511,399.73 219.574,430.435 198.778,419.338C185.821,412.424 168.702,375.326 168.702,375.326C185.188,375.447 193.698,380.155 179.059,362.962C179.059,362.962 194.29,364.371 197.307,360.538C200.325,356.705 189.314,343.831 189.314,343.831C189.314,343.831 214.244,357.485 219.101,346.244C223.958,335.003 225.61,314.843 230.335,343.696Z" style="fill:rgb(255,186,0);"/>
                <path d="M232.706,343.218C231.465,335.19 230.345,330.74 229.373,328.734C228.479,326.889 227.36,326.268 226.514,326.094C225.322,325.848 223.869,326.326 222.702,328.268C221.024,331.06 219.273,339.184 216.736,344.987C216.115,346.417 214.923,347.12 213.506,347.469C211.881,347.869 209.983,347.809 208.002,347.521C199.872,346.338 190.497,341.173 190.497,341.173C189.336,340.537 187.931,340.916 187.163,342.072C186.395,343.228 186.484,344.829 187.375,345.871C187.375,345.871 190.373,349.383 192.725,353.205C193.165,353.92 193.584,354.644 193.95,355.355C191.285,356.951 189.293,358.574 187.893,360.206C183.527,360.428 179.279,360.042 179.279,360.042C178.188,359.941 177.154,360.597 176.679,361.691C176.204,362.785 176.387,364.091 177.139,364.974C179.71,367.976 181.548,370.28 182.73,372.046C182.994,372.44 183.236,372.86 183.434,373.23C182.96,373.192 182.421,373.132 181.953,373.122C178.784,373.051 174.187,372.538 168.718,372.529C167.837,372.522 167.017,373.027 166.555,373.859C166.093,374.691 166.055,375.73 166.457,376.6C166.457,376.6 169.524,383.868 174.641,392.237C175.387,393.457 176.225,394.645 177.078,395.871C177.278,396.158 177.47,396.448 177.684,396.726C179.608,399.219 181.765,401.424 183.884,403.792C184.465,404.442 185.014,405.091 185.583,405.738C186.012,406.227 186.45,406.686 186.856,407.187L187,407.365C187.198,407.661 187.404,407.95 187.608,408.237C191.26,413.385 195.175,417.532 198.724,419.461C210.044,425.506 221.141,419.262 227.434,403.288C228.795,399.832 229.93,395.92 230.792,391.578C259.108,395.623 281.44,385.99 230.751,346.317C230.62,345.448 230.481,344.575 230.335,343.696L232.706,343.218ZM197.653,350.722C198.734,351.121 199.862,351.508 201.013,351.863L200.409,352.116C200.108,352.247 199.808,352.378 199.507,352.509L198.798,352.83C198.927,353.088 199.05,353.345 199.165,353.601C200.055,355.57 200.532,357.452 200.499,358.959C200.468,360.351 200.065,361.536 199.317,362.485C198.132,363.988 195.625,365.14 192.548,365.653C190.252,366.035 187.619,366.15 185.278,366.149L185.275,366.205L185.274,366.265C186.355,367.697 187.173,368.896 187.75,369.895C188.66,371.468 189.063,372.73 189.156,373.676C189.187,373.996 189.192,374.299 189.172,374.587C196.868,382.611 214.638,389.233 230.566,391.546C229.691,395.852 228.55,399.736 227.19,403.169C220.938,418.947 210.025,425.184 198.831,419.215C195.074,417.249 191.19,412.534 187,407.365C186.882,407.19 186.766,407.012 186.655,406.83C185.964,405.698 185.351,404.517 184.754,403.288C183.36,400.419 182.339,397.446 181.087,394.55C180.545,393.298 179.974,392.104 179.41,390.921C179.135,390.343 178.855,389.778 178.569,389.225C176.331,384.903 174.387,381.029 173.023,378.278C176.767,378.487 179.916,378.829 182.231,378.875C184.158,378.914 185.631,378.705 186.586,378.288C187.482,377.896 188.105,377.31 188.527,376.63C188.885,376.051 189.12,375.379 189.172,374.587C186.625,371.931 185.181,369.122 185.274,366.265L185.195,366.16L185.187,366.15L185.278,366.149C185.37,364.179 186.194,362.186 187.893,360.206C188.613,360.17 189.336,360.117 190.043,360.043C191.467,359.894 192.825,359.665 193.935,359.289C194.42,359.125 194.856,358.989 195.144,358.748C195.116,358.523 195.048,358.037 194.946,357.706C194.718,356.963 194.369,356.168 193.95,355.355C195.371,354.504 196.983,353.661 198.798,352.83C198.454,352.134 198.066,351.425 197.653,350.722ZM184.273,373.254C184.399,372.911 184.543,372.678 184.655,372.928C184.75,373.144 184.583,373.232 184.273,373.254ZM195.144,358.748C195.154,358.824 195.158,358.87 195.158,358.87C195.158,358.87 195.234,358.673 195.298,358.592C195.253,358.649 195.202,358.7 195.144,358.748ZM225.874,334.102C226.427,336.082 227.028,338.921 227.724,342.806C227.795,343.206 227.868,343.616 227.941,344.036C227.948,344.077 227.931,344.136 227.962,344.16L227.974,344.169C226.007,344.57 224.119,344.979 222.298,345.395C222.031,346.12 221.754,346.826 221.466,347.501C219.632,351.771 215.712,353.598 210.883,353.616C207.793,353.627 204.309,352.879 201.013,351.863C206.45,349.595 213.462,347.419 222.298,345.395C223.702,341.58 224.832,337.231 225.874,334.102ZM230.335,343.696C230.477,344.572 230.611,345.442 230.738,346.306L229.371,345.243L227.974,344.169C228.74,344.011 229.514,343.856 230.301,343.703L230.335,343.696Z" style="fill:rgb(27,32,49);"/>
            </g>
            <g transform="matrix(0.664427,-0.979097,0.801895,0.544176,-246.649,436.068)">
                <path d="M228.498,410.079C230.115,439.007 182.679,432.95 171.373,426.177C160.068,419.405 160.89,393.093 160.666,369.445C160.493,351.248 171.555,305.019 171.555,305.019C180.391,318.938 182.765,316.978 189.276,295.356C189.276,295.356 199.002,317.232 203.859,317.689C208.716,318.146 218.416,298.099 218.416,298.099C218.416,298.099 206.06,345.703 218.138,343.69C230.217,341.676 246.058,315.504 238.287,343.69C222.387,401.357 227.834,398.202 228.498,410.079Z" style="fill:rgb(255,186,0);"/>
                <path d="M204.05,314.216C204.26,314.087 204.912,313.675 205.316,313.289C206.387,312.268 207.517,310.8 208.632,309.179C212.439,303.645 215.967,296.332 215.967,296.332C216.703,294.812 218.256,294.208 219.577,294.928C220.897,295.649 221.565,297.464 221.128,299.148C221.128,299.148 217.031,314.96 215.952,327.748C215.602,331.888 215.535,335.682 216.174,338.353C216.444,339.484 216.809,340.39 217.752,340.233C220.667,339.75 223.797,337.599 226.722,335.35C230.661,332.32 234.257,329.051 236.596,327.906C239.195,326.634 241.069,327.396 242.148,329.038C242.747,329.949 243.266,331.467 243.144,333.887C243.033,336.104 242.37,339.605 240.931,344.777C238.999,351.634 237.459,357.658 236.017,362.88C235.582,364.454 235.145,365.944 234.716,367.371C233.987,369.795 233.311,372.009 232.653,374.064C230.45,380.934 228.837,385.818 227.881,389.783C227.675,390.636 227.457,391.406 227.34,392.172C227.318,392.314 227.301,392.456 227.286,392.596L227.252,393.124C226.696,401.818 228.153,403.914 228.498,410.079C229.185,422.184 221.282,428.182 211.025,430.557C196.758,433.86 177.941,430.151 171.361,426.209C171.066,426.029 170.78,425.836 170.502,425.63L170.012,425.626C170.112,447.892 169.665,438.093 169.177,425.619L166.194,425.596C166.033,425.594 165.968,425.317 165.857,425.174C165.689,424.956 165.523,424.732 165.361,424.502C153.798,423.916 143.749,423.324 164.585,423.323C164.835,423.731 165.093,424.125 165.361,424.502L167.164,424.594L169.141,424.694L169.132,424.451L169.282,424.599L169.397,424.707L170.007,424.737L170.007,424.733L170.011,424.738C180.916,425.285 189.635,425.755 170.759,425.632C170.497,425.361 170.253,425.046 170.011,424.738L170.007,424.737L170.01,425.247L170.189,425.391C170.252,425.44 170.315,425.489 170.378,425.538L170.502,425.63L170.742,425.632L170.759,425.632C170.955,425.835 171.162,426.014 171.386,426.146C177.96,430.084 196.758,433.771 211.014,430.489C221.26,428.131 229.163,422.17 228.498,410.079C228.163,404.078 226.606,401.915 227.199,393.805C227.227,393.417 227.243,393.012 227.286,392.596C227.311,392.215 227.335,391.822 227.349,391.414C227.48,387.579 227.583,382.69 228.345,375.833C228.537,374.109 228.743,372.301 229.048,370.345C229.439,367.847 229.925,365.165 230.561,362.267C231.807,356.586 233.612,350.132 235.642,342.602C236.443,339.672 237.368,336.84 237.772,334.987C236.941,335.533 235.86,336.279 234.959,337.013C230.26,340.839 224.001,346.225 218.525,347.146C216.287,347.519 214.556,346.803 213.209,345.413C211.733,343.891 210.69,341.317 210.256,337.914C209.504,332.012 210.545,323.094 211.914,315.095C211.737,315.336 211.558,315.572 211.379,315.802C209.905,317.701 208.423,319.22 207.1,320.089C205.861,320.903 204.679,321.218 203.642,321.119C202.645,321.023 201.49,320.503 200.295,319.474C199.029,318.384 197.616,316.648 196.209,314.558C193.901,311.134 191.551,306.723 189.781,303.176C188.225,307.825 186.862,311.167 185.547,313.284C184.096,315.623 182.564,316.775 181.039,317.117C179.392,317.487 177.583,316.987 175.598,315.201C174.734,314.424 173.797,313.359 172.77,312.004C171.129,319.211 168.374,331.822 166.259,344.042C164.576,353.77 163.288,363.241 163.346,369.407C163.468,381.682 163.294,394.685 164.731,405.223C165.409,410.194 166.422,414.59 168.098,417.98L168.098,418.138L168.13,423.327L168.118,423.327L164.585,423.323C162.805,420.416 161.475,416.769 160.522,412.566C157.875,400.885 158.123,384.647 157.985,369.483C157.922,362.973 159.24,352.967 161.004,342.692C164.237,323.854 168.933,304.083 168.933,304.083C169.221,302.88 170.037,301.976 171.045,301.742C172.054,301.508 173.085,301.985 173.714,302.976C175.414,305.645 176.847,307.697 178.12,309.077C178.612,309.609 179.062,310.026 179.496,310.299C179.695,310.425 179.86,310.553 180.036,310.513C180.301,310.452 180.496,310.159 180.747,309.824C181.151,309.285 181.544,308.581 181.955,307.722C183.363,304.786 184.836,300.298 186.668,294.185C187.044,292.934 187.986,292.068 189.075,291.972C190.164,291.875 191.198,292.566 191.719,293.737C191.719,293.737 195.296,301.757 199.151,308.042C200.294,309.905 201.456,311.613 202.553,312.864C202.935,313.3 203.304,313.674 203.659,313.958C203.773,314.05 203.944,314.154 204.05,314.216ZM168.938,419.504L168.973,419.561C169.29,420.07 169.983,420.367 169.987,420.991L170.007,424.733C169.714,424.359 169.423,423.995 169.104,423.731L169.132,424.451C168.893,424.215 168.662,423.967 168.437,423.708C168.334,423.589 168.132,423.517 168.13,423.342L168.13,423.327C168.494,423.331 168.811,423.489 169.104,423.731L169.043,422.178L168.938,419.504ZM168.098,417.98C167.992,396.231 168.445,406.814 168.938,419.504C168.641,419.022 168.361,418.513 168.098,417.98ZM237.977,333.588C237.989,333.061 237.856,332.786 237.52,332.84C237.317,332.873 237.675,333.23 237.759,333.357C237.814,333.44 237.889,333.517 237.977,333.588Z" style="fill:rgb(27,32,49);"/>
            </g>
        </g>
    </g>
</svg>
