<?xml version="1.0" encoding="UTF-8" standalone="no"?>
<!DOCTYPE svg PUBLIC "-//W3C//DTD SVG 1.1//EN" "http://www.w3.org/Graphics/SVG/1.1/DTD/svg11.dtd">
<svg width="100%" height="100%" viewBox="0 0 512 512" version="1.1" xmlns="http://www.w3.org/2000/svg" xmlns:xlink="http://www.w3.org/1999/xlink" xml:space="preserve" xmlns:serif="http://www.serif.com/" style="fill-rule:evenodd;clip-rule:evenodd;stroke-linejoin:round;stroke-miterlimit:1.41421;">
    <g transform="matrix(-1,0,0,1,23.1393,508.91)">
        <path d="M-33.041,-481.413C-59.908,-473.709 -59.739,-452.489 -59.739,-452.489L-103.857,-438.696C-103.857,-438.696 -152.358,-479.963 -214.652,-458.916C-221.801,-456.501 -255.224,-446.641 -296.076,-444.391C-305.421,-443.877 -455.448,-460.569 -455.448,-460.569C-455.448,-460.569 -454.423,-425.769 -412.857,-405.153C-391.233,-394.428 -359.472,-401.458 -349.787,-402.603C-353.974,-402.174 -488.423,-401.734 -488.423,-401.734C-488.423,-401.734 -479.272,-355.249 -431.152,-345.868C-403.056,-340.39 -405.81,-346.494 -407.96,-342.096C-444.428,-267.519 -438.332,-270.855 -444.966,-229.641C-454.501,-170.416 -428.313,-61.765 -413.313,-38.432C-301.922,36.223 -185.646,-25.765 -166.646,-59.765C-222.647,-108.765 -288.762,-238.17 -205.097,-257.783C-156.972,-269.065 -36.119,-266.327 -12.245,-289.759C7.695,-309.329 7.317,-384.858 7.317,-384.858L-2.335,-477.2C-2.335,-477.2 -6.175,-489.117 -33.041,-481.413" style="fill:rgb(255,186,0);fill-rule:nonzero;"/>
    </g>
    <g transform="matrix(0.594912,0,0,0.594912,-36.7454,9.25676)">
        <path d="M160.96,311.951C125.828,296.631 124.502,340.591 79.146,309.882C51.591,291.226 58.401,252.021 86.428,194.86C97.97,171.322 133.271,210.273 160.693,209.314C188.115,208.355 198.629,188.01 242.044,190.609C271.081,192.346 388.835,261.512 384.885,320.053C381.752,366.477 351.645,372.342 302.801,364.441C253.957,356.539 197.473,327.873 160.96,311.951Z" style="fill:rgb(237,108,48);"/>
    </g>
    <g transform="matrix(-0.422179,-0.906513,-0.906513,0.422179,236.743,97.6345)">
        <path d="M-5.491,31.941C-4.116,27.686 -11.301,24.204 -22.31,13.086C-30.691,4.621 -37.887,1.645 -31.158,-8.027C-21.861,-21.391 0.276,6.736 10.855,19.534C26.982,39.043 32.121,57.123 23.867,60.89C16.935,64.055 6.604,56.602 -9.012,51.527C-25.703,46.103 -30.821,46.347 -42.214,43.162C-54.118,39.835 -42.526,24.835 -36.693,25.332C-22.823,26.512 -6.866,36.197 -5.491,31.941Z" style="fill:rgb(35,31,32);fill-rule:nonzero;"/>
    </g>
    <g transform="matrix(0.989372,-0.145409,0.145409,0.989372,-136.838,9.53421)">
        <path d="M386.352,196.191C386.352,196.191 441.548,213.016 440.081,251.643C439.219,274.341 416.105,278.544 405.028,264.572C386.807,241.59 386.352,196.191 386.352,196.191Z" style="fill:rgb(255,254,252);"/>
    </g>
    <g transform="matrix(0.952181,0.305534,-0.305534,0.952181,25.8929,-64.9454)">
        <path d="M386.352,196.191C386.352,196.191 441.548,213.016 440.081,251.643C439.219,274.341 416.105,278.544 405.028,264.572C386.807,241.59 386.352,196.191 386.352,196.191Z" style="fill:rgb(255,254,252);"/>
    </g>
    <g transform="matrix(-0.530963,-0.847395,-0.847395,0.530963,39.3513,54.3859)">
        <path d="M-10.739,-19.403C-17.74,-19.403 -23.413,-13.729 -23.414,-6.728C-23.414,0.271 -17.739,5.946 -10.739,5.945C-3.739,5.944 1.935,0.271 1.936,-6.729C1.936,-13.729 -3.739,-19.403 -10.739,-19.403" style="fill:rgb(35,31,32);fill-rule:nonzero;"/>
    </g>
</svg>
