<?xml version="1.0" encoding="UTF-8" standalone="no"?>
<!DOCTYPE svg PUBLIC "-//W3C//DTD SVG 1.1//EN" "http://www.w3.org/Graphics/SVG/1.1/DTD/svg11.dtd">
<svg width="100%" height="100%" viewBox="0 0 512 512" version="1.1" xmlns="http://www.w3.org/2000/svg" xmlns:xlink="http://www.w3.org/1999/xlink" xml:space="preserve" xmlns:serif="http://www.serif.com/" style="fill-rule:evenodd;clip-rule:evenodd;stroke-linecap:round;stroke-miterlimit:10;">
    <rect id="Artboard1" x="0" y="0" width="512" height="512" style="fill:none;"/>
    <clipPath id="_clip1">
        <rect id="Artboard11" serif:id="Artboard1" x="0" y="0" width="512" height="512"/>
    </clipPath>
    <g clip-path="url(#_clip1)">
        <g transform="matrix(1,0,0,1,460.944,537.66)">
            <path d="M0,-483.209C-26.867,-475.505 -26.698,-454.285 -26.698,-454.285L-103.857,-438.696C-103.857,-438.696 -132.04,-454.901 -197.276,-463.131C-215.334,-465.409 -344.503,-535.671 -344.503,-535.671C-344.503,-535.671 -362.504,-469.062 -302.246,-434.334C-374.254,-455.705 -451.384,-496.094 -451.384,-496.094C-451.384,-496.094 -461.791,-398.356 -368.142,-363.394C-415.091,-293.15 -423.288,-223.077 -430.313,-179.432C-439.848,-120.207 -437.111,-87.279 -422.111,-63.946C-310.72,10.709 -194.444,-51.279 -175.444,-85.279C-231.445,-134.279 -272.3,-204.227 -205.097,-257.783C-159.845,-293.846 -8.824,-300.087 15.05,-323.519C34.99,-343.089 40.358,-386.654 40.358,-386.654L30.706,-478.996C30.706,-478.996 26.866,-490.913 0,-483.209" style="fill:rgb(255,186,0);fill-rule:nonzero;"/>
        </g>
        <g transform="matrix(-0.530924,-0.84742,-0.84742,0.530924,454.586,78.288)">
            <path d="M-11.279,-20.376C-18.629,-20.376 -24.588,-14.418 -24.589,-7.067C-24.589,0.284 -18.63,6.242 -11.279,6.243C-3.929,6.243 2.03,0.284 2.031,-7.066C2.03,-14.417 -3.928,-20.376 -11.279,-20.376" style="fill:rgb(35,31,32);fill-rule:nonzero;"/>
        </g>
        <g transform="matrix(-1.16507,-0.176512,0.176512,-1.16507,335.874,174.909)">
            <path d="M0,20.23C0,20.23 -15.331,0.106 -48.83,-2.933C-82.832,-6.016 -133.414,26.246 -133.414,26.246" style="fill:none;fill-rule:nonzero;stroke:rgb(35,31,32);stroke-width:16.97px;"/>
        </g>
        <g transform="matrix(0.991486,0.130214,-0.130214,0.991486,279.299,190.433)">
            <path d="M0,228.502C-54.106,228.504 -78.107,190.559 -83.238,170.493L-84.277,166.446C-90.345,142.878 -93.39,131.047 -86.211,101.922C-83.671,91.618 -84.258,77.212 -87.909,60.262C-89.673,52.07 -90.986,42.446 -92.041,34.712C-92.488,31.437 -92.91,28.343 -93.297,25.866C-94.05,21.045 -94.746,17.61 -95.254,15.102C-96.178,10.537 -96.909,6.932 -93.983,3.355C-92.239,1.221 -89.657,-0.002 -86.901,-0.002C-82.591,-0.002 -80.195,2.644 -77.877,5.202C-75.785,7.513 -72.281,11.381 -66.551,16.156C-49.538,30.334 -40.506,40.812 -31.967,65.418C-29.373,72.89 -25.209,75.801 -17.113,75.802C-10.423,75.802 -2.243,73.617 4.877,71.481C12.049,69.328 27.228,63.907 44.804,57.63C89.549,41.651 119.586,31.145 129.029,30.71C131.511,30.596 136.154,28.753 139.545,27.407C143.937,25.664 147.111,24.405 150.301,24.405C154.428,24.405 157.984,26.64 159.584,30.239C162.226,36.186 158.634,41.563 153.663,47.975C149.482,53.368 142.762,61.165 132.511,72.514C116.063,90.726 102.47,98.762 89.507,105.636C93.27,109.398 96.244,114.194 97.854,119.542C101.113,130.37 98.332,141.374 90.378,150.637C95.823,155.657 99.522,162.852 100.051,170.653C100.795,181.628 95.968,208.782 35.227,223.864C22.834,226.941 10.982,228.502 0,228.502" style="fill:rgb(250,192,54);fill-rule:nonzero;stroke:rgb(35,31,32);stroke-width:18.55px;stroke-linecap:butt;stroke-linejoin:round;stroke-miterlimit:2;"/>
        </g>
        <g transform="matrix(0.152748,0.813615,0.813615,-0.152748,297.436,139.61)">
            <path d="M22.091,-41.365C39.547,-40.883 51.156,-22.317 50.826,-9.19C50.495,3.938 39.547,13.353 22.091,12.87C4.636,12.387 -13.9,-5.223 -11.585,-21.889C-9.772,-34.939 1.115,-41.945 22.091,-41.365" style="fill:rgb(47,47,47);fill-rule:nonzero;stroke:rgb(27,32,49);stroke-width:5.24px;stroke-linecap:butt;stroke-linejoin:round;stroke-miterlimit:2;"/>
        </g>
        <g transform="matrix(0.0681573,-0.559421,-0.526543,-0.0641517,337.713,108.741)">
            <path d="M22.091,-41.365C39.547,-40.883 51.156,-22.317 50.826,-9.19C50.495,3.938 39.547,13.353 22.091,12.87C4.636,12.387 -13.9,-5.223 -11.585,-21.889C-9.772,-34.939 1.115,-41.945 22.091,-41.365" style="fill:rgb(47,47,47);fill-rule:nonzero;stroke:rgb(27,32,49);stroke-width:7.93px;stroke-linecap:butt;stroke-linejoin:round;stroke-miterlimit:2;"/>
        </g>
    </g>
</svg>
