<?xml version="1.0" encoding="UTF-8" standalone="no"?>
<!DOCTYPE svg PUBLIC "-//W3C//DTD SVG 1.1//EN" "http://www.w3.org/Graphics/SVG/1.1/DTD/svg11.dtd">
<svg width="100%" height="100%" viewBox="0 0 512 512" version="1.1" xmlns="http://www.w3.org/2000/svg" xmlns:xlink="http://www.w3.org/1999/xlink" xml:space="preserve" xmlns:serif="http://www.serif.com/" style="fill-rule:evenodd;clip-rule:evenodd;stroke-linecap:round;stroke-linejoin:round;stroke-miterlimit:1.5;">
    <rect id="Artboard1" x="0" y="0" width="512" height="512" style="fill:none;"/>
    <g id="Artboard11" serif:id="Artboard1">
        <g id="Layer-2" serif:id="Layer 2" transform="matrix(1,0,0,1,6.53591,0)">
            <g transform="matrix(0.894774,0.259664,-0.249736,0.860562,-133.311,402.494)">
                <path d="M125.45,-356.794C148.722,-350.468 145.446,-333.853 145.446,-333.853L176.532,-345.073C176.532,-345.073 179.525,-361.56 209.94,-365.706C217.716,-368.063 213.597,-365.256 242.719,-372.698C247.343,-373.88 253.648,-372.574 257.612,-375.973C284.172,-398.748 321.558,-432.31 321.558,-432.31C321.558,-432.31 360.802,-412.023 339.836,-356.642C340.077,-355.314 343.861,-355.821 344.744,-354.11C346.418,-354.299 354.74,-356.128 458.116,-390.489C458.116,-390.489 484.264,-325.755 392.65,-295.74C383.001,-292.048 419.727,-250.647 426.693,-243.305C471.625,-195.948 475.402,-60.911 456.508,-49.581C389.884,42.928 230.049,36.923 227.005,10.766C222.366,-29.103 289.843,-90.866 294.153,-153.611C295.67,-175.689 242.311,-203.212 223.202,-206.202C173.559,-213.969 117.318,-185.681 98.44,-203.741C81.129,-220.3 76.365,-257.559 76.365,-257.559L86.74,-350.619C86.74,-350.619 102.178,-363.118 125.45,-356.794" style="fill:rgb(255,186,0);fill-rule:nonzero;"/>
                <clipPath id="_clip1">
                    <path d="M125.45,-356.794C148.722,-350.468 145.446,-333.853 145.446,-333.853L176.532,-345.073C176.532,-345.073 179.525,-361.56 209.94,-365.706C217.716,-368.063 213.597,-365.256 242.719,-372.698C247.343,-373.88 253.648,-372.574 257.612,-375.973C284.172,-398.748 321.558,-432.31 321.558,-432.31C321.558,-432.31 360.802,-412.023 339.836,-356.642C340.077,-355.314 343.861,-355.821 344.744,-354.11C346.418,-354.299 354.74,-356.128 458.116,-390.489C458.116,-390.489 484.264,-325.755 392.65,-295.74C383.001,-292.048 419.727,-250.647 426.693,-243.305C471.625,-195.948 475.402,-60.911 456.508,-49.581C389.884,42.928 230.049,36.923 227.005,10.766C222.366,-29.103 289.843,-90.866 294.153,-153.611C295.67,-175.689 242.311,-203.212 223.202,-206.202C173.559,-213.969 117.318,-185.681 98.44,-203.741C81.129,-220.3 76.365,-257.559 76.365,-257.559L86.74,-350.619C86.74,-350.619 102.178,-363.118 125.45,-356.794" clip-rule="nonzero"/>
                </clipPath>
                <g clip-path="url(#_clip1)">
                    <g transform="matrix(0.975565,-0.187035,0.172574,0.973129,154.423,-265.101)">
                        <path d="M133.275,323.238C206.617,297.386 311.769,211.344 265.695,57.155C328.13,95.005 296.257,334.41 204.857,344.661L133.275,323.238Z" style="fill:rgb(226,137,64);"/>
                    </g>
                    <g transform="matrix(1.42486,-0.271593,0.195032,1.10618,-97.8953,-468.597)">
                        <path d="M149.506,282.808C149.506,282.808 167.418,271.886 201.913,281.938C230.392,290.237 256.087,279.682 256.173,278.402C230.098,302.449 197.138,293.567 194.458,312.009L149.506,282.808Z" style="fill:rgb(226,137,64);"/>
                    </g>
                    <g transform="matrix(1.05062,-0.0165228,0.0141661,0.973811,189.724,-575.775)">
                        <path d="M173.278,287.811C186.82,257.253 257.287,212.144 254.669,196.614C259.655,204.884 272.672,262.158 192.332,292.397L173.278,287.811Z" style="fill:rgb(226,137,64);"/>
                    </g>
                    <g transform="matrix(0.961586,0.0192793,-0.0185421,0.999814,102.666,-322.932)">
                        <path d="M0,-19.374C-5.331,-15.746 -6.727,-8.468 -3.119,-3.118C0.49,2.232 7.737,3.628 13.068,0C18.399,-3.628 19.795,-10.906 16.187,-16.256C12.578,-21.606 5.331,-23.002 0,-19.374" style="fill:rgb(35,31,32);fill-rule:nonzero;"/>
                    </g>
                    <g transform="matrix(0.961757,-0.00384434,0.00369735,0.999993,44.7753,-467.877)">
                        <path d="M227.446,190.527L229.425,160.411" style="fill:none;stroke:rgb(35,31,32);stroke-width:28.86px;"/>
                    </g>
                    <g transform="matrix(1.26689,-0.62554,0.570723,0.840275,-57.0892,-405.845)">
                        <path d="M33.991,231.294L87.477,243.451" style="fill:none;stroke:rgb(35,31,32);stroke-width:18.91px;"/>
                    </g>
                </g>
            </g>
            <g transform="matrix(1.37012,-0.526653,0.460601,1.19829,204.625,5.31187)">
                <text x="42.473px" y="229.228px" style="font-family:'Calibri-Bold', 'Calibri', sans-serif;font-weight:700;font-size:231.525px;fill:white;">?</text>
                <path d="M68.418,192.597C66.262,195.378 64.651,198.78 63.714,202.888C63.004,205.998 62.58,209.836 62.58,214.418C62.58,218.946 63.01,222.746 63.727,225.838C63.727,225.838 63.727,225.838 63.727,225.838C64.886,230.828 67.053,234.758 69.994,237.787C72.609,240.481 75.979,242.597 80.258,243.785C83.055,244.562 86.621,245.032 90.972,245.032C95.12,245.032 98.614,244.577 101.465,243.799C105.821,242.611 109.223,240.48 111.837,237.787C114.777,234.758 116.945,230.828 118.103,225.838C118.821,222.746 119.251,218.946 119.251,214.418L119.251,214.418C119.251,209.836 118.826,205.998 118.117,202.888C117.073,198.314 115.194,194.616 112.659,191.676C114.39,188.932 115.109,185.857 115.269,182.981C115.273,182.903 115.277,182.825 115.28,182.747L115.725,171.912C118.454,171.081 121.067,170.054 123.564,168.837C129.546,165.922 134.654,162.017 138.927,157.191C143.306,152.246 146.725,146.386 149.146,139.586C151.482,133.026 152.713,125.685 152.713,117.535C152.713,109.73 151.464,102.323 148.994,95.308C146.423,88.007 142.425,81.498 136.924,75.842C131.764,70.537 125.186,66.212 117.084,63.077C109.653,60.202 100.732,58.659 90.293,58.659C85.757,58.659 81.396,59.013 77.209,59.711C73.112,60.394 69.4,61.233 66.072,62.215C62.466,63.278 59.374,64.454 56.785,65.702C52.98,67.537 50.519,69.38 49.16,70.739C46.427,73.472 44.568,76.969 43.748,81.341C43.406,83.167 43.135,86.069 43.135,90.064C43.135,93.363 43.278,96.078 43.52,98.213C43.52,98.213 43.52,98.213 43.52,98.213C43.867,101.264 44.407,103.599 44.962,105.263C44.962,105.263 44.962,105.263 44.962,105.263C46.417,109.629 48.672,112.264 50.854,113.901C53.387,115.8 56.137,116.721 59.092,116.721C61.053,116.721 63.959,116.198 67.587,114.237C68.731,113.619 70.171,112.948 71.901,112.206C73.556,111.497 75.54,110.865 77.845,110.274C80.003,109.721 82.497,109.486 85.319,109.486C88.069,109.486 90.472,109.78 92.51,110.541C93.803,111.024 94.92,111.628 95.776,112.531C96.443,113.234 96.938,114.071 97.265,115.04C97.762,116.513 97.964,118.142 97.964,119.909C97.964,121.515 97.772,123.033 97.342,124.452C97.111,125.218 96.746,125.884 96.242,126.448C95.469,127.314 94.444,127.927 93.253,128.453C91.603,129.182 89.626,129.428 87.354,129.428L85.771,129.428C82.974,129.428 80.563,129.773 78.528,130.345C74.979,131.343 72.086,133.27 69.757,135.932C67.449,138.569 65.691,141.987 64.812,146.383C64.323,148.828 64.048,151.999 64.17,155.91C64.171,155.947 64.173,155.984 64.174,156.021L65.191,182.701C65.202,182.983 65.22,183.264 65.246,183.545C65.572,187.134 66.69,190.12 68.418,192.597ZM106.912,214.418C106.912,217.508 106.667,220.108 106.177,222.219C105.687,224.329 104.82,226.025 103.577,227.306C102.333,228.587 100.675,229.51 98.602,230.076C96.53,230.641 93.986,230.924 90.972,230.924C87.806,230.924 85.206,230.641 83.171,230.076C81.136,229.51 79.497,228.587 78.254,227.306C77.01,226.025 76.143,224.329 75.653,222.219C75.164,220.108 74.919,217.508 74.919,214.418C74.919,211.253 75.164,208.596 75.653,206.448C76.143,204.3 77.01,202.567 78.254,201.248C79.497,199.929 81.136,198.987 83.171,198.422C85.206,197.857 87.806,197.574 90.972,197.574C93.986,197.574 96.53,197.857 98.602,198.422C100.675,198.987 102.333,199.929 103.577,201.248C104.82,202.567 105.687,204.3 106.177,206.448C106.667,208.596 106.912,211.253 106.912,214.418ZM140.374,117.535C140.374,123.715 139.489,129.292 137.718,134.266C135.946,139.24 133.459,143.536 130.256,147.154C127.053,150.771 123.21,153.673 118.725,155.859C114.241,158.044 109.286,159.439 103.859,160.042L102.955,182.086C102.88,183.443 101.806,184.46 99.733,185.139C97.66,185.817 94.665,186.156 90.746,186.156C88.258,186.156 86.167,186.099 84.471,185.986C82.776,185.873 81.438,185.666 80.458,185.365C79.478,185.063 78.762,184.649 78.31,184.121C77.858,183.594 77.594,182.915 77.519,182.086L76.501,155.407C76.426,152.995 76.539,151.035 76.84,149.528C77.142,148.021 77.688,146.815 78.48,145.91C79.271,145.006 80.27,144.384 81.475,144.045C82.681,143.706 84.113,143.536 85.771,143.536L87.354,143.536C91.348,143.536 94.796,142.896 97.698,141.614C100.6,140.333 102.993,138.638 104.877,136.527C106.761,134.417 108.136,131.93 109.003,129.066C109.87,126.202 110.303,123.15 110.303,119.909C110.303,116.291 109.794,112.975 108.777,109.961C107.759,106.946 106.214,104.346 104.142,102.16C102.069,99.975 99.469,98.298 96.341,97.13C93.214,95.961 89.54,95.377 85.319,95.377C81.475,95.377 78.084,95.754 75.145,96.508C72.205,97.261 69.681,98.09 67.57,98.995C65.46,99.899 63.708,100.728 62.314,101.482C60.919,102.236 59.845,102.612 59.092,102.612C58.564,102.612 58.074,102.443 57.622,102.104C57.17,101.765 56.793,101.143 56.492,100.238C56.19,99.334 55.945,98.053 55.757,96.395C55.568,94.737 55.474,92.626 55.474,90.064C55.474,87.426 55.587,85.504 55.813,84.298C56.039,83.093 56.529,82.113 57.283,81.359C58.037,80.605 59.469,79.72 61.579,78.702C63.689,77.685 66.214,76.743 69.153,75.876C72.092,75.01 75.371,74.275 78.988,73.672C82.606,73.069 86.374,72.767 90.293,72.767C99.187,72.767 106.799,73.992 113.129,76.441C119.46,78.891 124.642,82.188 128.674,86.333C132.706,90.478 135.664,95.227 137.548,100.578C139.432,105.929 140.374,111.581 140.374,117.535Z"/>
            </g>
        </g>
    </g>
</svg>
