<?xml version="1.0" encoding="UTF-8" standalone="no"?>
<!DOCTYPE svg PUBLIC "-//W3C//DTD SVG 1.1//EN" "http://www.w3.org/Graphics/SVG/1.1/DTD/svg11.dtd">
<svg width="100%" height="100%" viewBox="0 0 512 512" version="1.1" xmlns="http://www.w3.org/2000/svg" xmlns:xlink="http://www.w3.org/1999/xlink" xml:space="preserve" xmlns:serif="http://www.serif.com/" style="fill-rule:evenodd;clip-rule:evenodd;stroke-linejoin:round;stroke-miterlimit:2;">
    <rect id="Artboard1" x="0" y="0" width="512" height="512" style="fill:none;"/>
    <clipPath id="_clip1">
        <rect id="Artboard11" serif:id="Artboard1" x="0" y="0" width="512" height="512"/>
    </clipPath>
    <g clip-path="url(#_clip1)">
        <g transform="matrix(1,0,0,1,468.313,519.432)">
            <path d="M-7.644,-497.354C-33.43,-486.573 -30.791,-465.517 -30.791,-465.517L-112.208,-447.051C-112.208,-447.051 -149.742,-484.52 -214.167,-471.371C-232,-467.731 -370,-519.432 -370,-519.432C-370,-519.432 -360.354,-444.317 -293.6,-420.103C-359.225,-446.973 -435.862,-465.135 -435.862,-465.135C-435.862,-465.135 -429.136,-380.773 -334.857,-361.784C-366.016,-332.756 -408.163,-223.656 -415.188,-180.011C-424.723,-120.786 -414.718,-64.929 -399.718,-41.596C-288.327,33.059 -184.415,-30.634 -165.415,-64.634C-221.416,-113.634 -253.659,-238.694 -176.347,-276.209C-124.288,-301.47 -39.41,-237.442 -10.978,-255.068C-1.595,-260.885 -1.302,-262.898 4.925,-272.833C6.334,-275.081 -157.71,-345.883 -156.606,-348.143C-155.092,-351.239 42.19,-386.862 42.536,-389.84C43.647,-399.384 43.687,-406.157 43.687,-406.157L23.344,-496.747C23.344,-496.747 18.142,-508.135 -7.644,-497.354" style="fill:rgb(255,186,0);fill-rule:nonzero;"/>
        </g>
        <g transform="matrix(-0.530924,-0.84742,-0.84742,0.530924,458.67,36.8626)">
            <path d="M-11.279,-20.376C-18.629,-20.376 -24.588,-14.418 -24.589,-7.067C-24.589,0.284 -18.63,6.242 -11.279,6.243C-3.929,6.243 2.03,0.284 2.031,-7.066C2.03,-14.417 -3.928,-20.376 -11.279,-20.376" style="fill:rgb(35,31,32);fill-rule:nonzero;"/>
        </g>
        <g transform="matrix(-0.0436336,0.727618,0.727618,0.0436336,303.297,99.7907)">
            <path d="M22.091,-41.365C39.547,-40.883 51.156,-22.317 50.826,-9.19C50.495,3.938 39.547,13.353 22.091,12.87C4.636,12.387 -13.9,-5.223 -11.585,-21.889C-9.772,-34.939 1.115,-41.945 22.091,-41.365" style="fill:rgb(47,47,47);fill-rule:nonzero;stroke:rgb(27,32,49);stroke-width:5.96px;"/>
        </g>
        <g transform="matrix(-0.0325965,0.543568,0.543568,0.0325965,362.608,63.025)">
            <path d="M22.091,-41.365C39.547,-40.883 51.156,-22.317 50.826,-9.19C50.495,3.938 39.547,13.353 22.091,12.87C4.636,12.387 -13.9,-5.223 -11.585,-21.889C-9.772,-34.939 1.115,-41.945 22.091,-41.365" style="fill:rgb(47,47,47);fill-rule:nonzero;stroke:rgb(27,32,49);stroke-width:7.97px;"/>
        </g>
    </g>
</svg>
