<?xml version="1.0" encoding="UTF-8" standalone="no"?>
<!DOCTYPE svg PUBLIC "-//W3C//DTD SVG 1.1//EN" "http://www.w3.org/Graphics/SVG/1.1/DTD/svg11.dtd">
<svg width="100%" height="100%" viewBox="0 0 512 512" version="1.1" xmlns="http://www.w3.org/2000/svg" xmlns:xlink="http://www.w3.org/1999/xlink" xml:space="preserve" xmlns:serif="http://www.serif.com/" style="fill-rule:evenodd;clip-rule:evenodd;stroke-miterlimit:10;">
    <g transform="matrix(1,0,0,1,44.4072,517.363)">
        <path d="M0,-483.21C26.867,-475.506 26.698,-454.286 26.698,-454.286L103.857,-438.696C103.857,-438.696 133.619,-477.689 199.136,-472.134C217.272,-470.596 357.313,-519.433 357.313,-519.433C357.313,-519.433 386.068,-441.745 306.31,-435.478C381.191,-441.362 465.461,-450.487 465.461,-450.487C465.461,-450.487 484.313,-378.087 368.142,-363.395C415.091,-293.151 423.287,-223.078 430.313,-179.433C439.847,-120.208 428.313,-61.766 413.313,-38.433C301.922,36.223 185.646,-25.766 166.646,-59.766C222.646,-108.766 272.3,-204.228 205.097,-257.784C159.845,-293.847 8.824,-300.088 -15.05,-323.52C-34.991,-343.09 -40.358,-386.654 -40.358,-386.654L-30.707,-478.996C-30.707,-478.996 -26.867,-490.914 0,-483.21" style="fill:rgb(255,186,0);fill-rule:nonzero;"/>
    </g>
    <g transform="matrix(1,0,0,1,297.653,149.103)">
        <path d="M0,-14.547C-0.016,10.495 -34.736,23.312 -50.319,17.161C-78.096,6.196 -75.903,-15.656 -75.903,-37.859L0,-14.547Z" style="fill:rgb(47,47,47);fill-rule:nonzero;stroke:rgb(27,32,49);stroke-width:5px;"/>
    </g>
    <g transform="matrix(1,0,0,1,204.353,77.1904)">
        <path d="M0,18.896C-0.604,18.629 -1.165,18.24 -1.646,17.731C-3.586,15.677 -3.495,12.439 -1.441,10.499C-0.641,9.743 6.557,3.059 12.912,1.11C19.175,-0.809 28.262,0.256 29.277,0.384C32.082,0.739 34.067,3.296 33.715,6.099C33.362,8.902 30.803,10.89 28,10.537C24.997,10.164 19.054,9.93 15.911,10.894C12.442,11.957 7.163,16.447 5.586,17.936C4.042,19.395 1.828,19.705 0,18.896" style="fill:rgb(47,47,47);fill-rule:nonzero;"/>
    </g>
    <g transform="matrix(1,0,0,1,204.353,77.1904)">
        <path d="M0,18.896C-0.604,18.629 -1.165,18.24 -1.646,17.731C-3.586,15.677 -3.495,12.439 -1.441,10.499C-0.641,9.743 6.557,3.059 12.912,1.11C19.175,-0.809 28.262,0.256 29.277,0.384C32.082,0.739 34.067,3.296 33.715,6.099C33.362,8.902 30.803,10.89 28,10.537C24.997,10.164 19.054,9.93 15.911,10.894C12.442,11.957 7.163,16.447 5.586,17.936C4.042,19.395 1.828,19.705 0,18.896Z" style="fill:none;fill-rule:nonzero;stroke:rgb(27,32,49);stroke-width:5px;"/>
    </g>
    <g transform="matrix(1,0,0,1,15.729,155.159)">
        <path d="M0,47.589C-4.062,47.233 -7.531,43.914 -8.285,39.234C-9.193,33.593 -5.81,28.112 -0.729,26.991L109.8,1.716C117.918,-0.073 126.432,1.866 133.158,7.035L149.82,19.841C154.031,23.077 155.024,29.555 152.039,34.309C149.053,39.065 143.219,40.296 139.009,37.058L122.345,24.252C119.681,22.205 116.307,21.436 113.09,22.144L2.561,47.419C1.695,47.61 0.834,47.662 0,47.589" style="fill:rgb(47,47,47);fill-rule:nonzero;"/>
    </g>
    <g transform="matrix(1,0,0,1,15.729,155.159)">
        <path d="M0,47.589C-4.062,47.233 -7.531,43.914 -8.285,39.234C-9.193,33.593 -5.81,28.112 -0.729,26.991L109.8,1.716C117.918,-0.073 126.432,1.866 133.158,7.035L149.82,19.841C154.031,23.077 155.024,29.555 152.039,34.309C149.053,39.065 143.219,40.296 139.009,37.058L122.345,24.252C119.681,22.205 116.307,21.436 113.09,22.144L2.561,47.419C1.695,47.61 0.834,47.662 0,47.589Z" style="fill:none;fill-rule:nonzero;stroke:rgb(27,32,49);stroke-width:5px;"/>
    </g>
    <g transform="matrix(-0.530941,-0.847409,-0.847409,0.530941,27.289,62.3937)">
        <path d="M-11.278,-20.376C-18.629,-20.376 -24.588,-14.417 -24.588,-7.066C-24.588,0.284 -18.629,6.243 -11.279,6.243C-3.928,6.243 2.031,0.284 2.031,-7.066C2.031,-14.417 -3.928,-20.376 -11.278,-20.376" style="fill:rgb(35,31,32);fill-rule:nonzero;"/>
    </g>
</svg>
