<?xml version="1.0" encoding="UTF-8" standalone="no"?>
<!DOCTYPE svg PUBLIC "-//W3C//DTD SVG 1.1//EN" "http://www.w3.org/Graphics/SVG/1.1/DTD/svg11.dtd">
<svg width="100%" height="100%" viewBox="0 0 512 512" version="1.1" xmlns="http://www.w3.org/2000/svg" xmlns:xlink="http://www.w3.org/1999/xlink" xml:space="preserve" xmlns:serif="http://www.serif.com/" style="fill-rule:evenodd;clip-rule:evenodd;stroke-linecap:round;stroke-linejoin:round;stroke-miterlimit:1.5;">
    <rect id="Artboard1" x="0" y="0" width="512" height="512" style="fill:none;"/>
    <clipPath id="_clip1">
        <rect id="Artboard11" serif:id="Artboard1" x="0" y="0" width="512" height="512"/>
    </clipPath>
    <g clip-path="url(#_clip1)">
        <g transform="matrix(1,0,0,1,-1097.06,6.94677)">
            <path d="M1174.12,434.809C1161.85,394.454 1206.01,300.765 1204.24,256C1198.49,110.261 1209.81,50.531 1319.61,14.11C1369.45,-2.422 1368.6,48.007 1376.62,44.786C1467,8.477 1456.42,44.897 1474.8,94.958C1485.58,124.303 1531.86,145.876 1547.87,194.911C1581.72,298.58 1671.01,462.389 1451.72,470.957C1389.22,473.399 1336.69,423.517 1305.63,443.592C1233.65,490.117 1188.11,480.818 1174.12,434.809Z" style="fill:url(#_Linear2);stroke:rgb(92,47,84);stroke-width:4.91px;"/>
        </g>
        <g transform="matrix(1,0,0,1,-1098.32,10.2192)">
            <path d="M1216.84,369.447C1218.58,368.226 1220.21,367.202 1221.84,366.029C1222.5,365.555 1223.12,365.089 1223.73,364.579C1224.14,364.239 1224.51,363.871 1224.89,363.516C1226.89,361.664 1228.81,359.886 1230.67,358.165C1233.71,355.367 1236.61,352.726 1239.39,350.112C1244.36,345.432 1248.96,340.867 1253.25,335.697C1256.52,331.759 1259.59,327.464 1262.5,322.506C1263.71,320.429 1264.91,318.241 1266.04,315.89C1266.49,314.941 1266.98,313.986 1267.35,312.961C1267.58,312.322 1267.75,311.687 1267.91,311.012C1268.28,309.453 1268.49,307.974 1268.76,306.306C1267.73,307.628 1266.75,308.738 1265.78,309.997C1265.37,310.536 1264.97,311.047 1264.61,311.606C1264.04,312.499 1263.56,313.424 1263.04,314.312C1261.78,316.496 1260.54,318.566 1259.28,320.529C1256.28,325.182 1253.2,329.215 1250,332.962C1245.74,337.953 1241.25,342.411 1236.47,347.06C1233.73,349.72 1230.91,352.449 1228,355.382C1226.19,357.201 1224.34,359.093 1222.48,361.115C1222.12,361.503 1221.76,361.884 1221.42,362.3C1220.91,362.923 1220.45,363.564 1220,364.246C1218.87,365.92 1217.92,367.608 1216.84,369.447Z" style="fill:rgb(65,40,60);"/>
            <path d="M1207.73,317.5C1208.77,317.834 1209.51,318.136 1210.58,318.392C1210.99,318.491 1211.35,318.571 1211.78,318.594C1212.61,318.64 1213.44,318.511 1214.27,318.438C1215.51,318.329 1216.75,318.176 1217.99,317.998C1221.07,317.556 1224.16,316.993 1227.2,316.246C1230.26,315.495 1233.27,314.568 1236.2,313.467C1238.17,312.724 1240.1,311.899 1241.98,310.97C1242.16,310.876 1242.36,310.798 1242.54,310.679C1242.82,310.48 1243.04,310.276 1243.28,310.021C1243.96,309.285 1244.3,308.728 1244.89,307.923C1244.28,307.872 1243.92,307.806 1243.31,307.772C1242.76,307.742 1242.35,307.695 1241.8,307.739C1241.52,307.761 1241.26,307.814 1240.98,307.884C1239.92,308.151 1238.9,308.529 1237.85,308.855C1235.26,309.66 1232.65,310.402 1230,311.082C1228.24,311.533 1226.47,311.961 1224.7,312.384C1222.04,313.023 1219.36,313.605 1216.7,314.188C1214.89,314.583 1213.06,314.811 1211.33,315.397C1210.93,315.532 1210.61,315.713 1210.24,315.916C1209.28,316.445 1208.65,316.927 1207.73,317.5Z" style="fill:rgb(65,40,60);"/>
            <path d="M1356.61,356.594C1357.49,358.939 1358.37,361.322 1359.52,363.831C1359.94,364.765 1360.39,365.685 1360.91,366.609C1361.24,367.205 1361.61,367.781 1361.98,368.368C1363.74,371.174 1365.66,374.035 1367.7,376.929C1370.59,381.008 1373.72,385.146 1377.04,389.232C1382.42,395.837 1388.29,402.33 1394.42,408.259C1399.53,413.208 1404.83,417.757 1410.16,421.672C1412.84,423.645 1415.52,425.466 1418.22,427.057C1419.43,427.776 1420.63,428.491 1421.87,429.061C1422.68,429.434 1423.49,429.734 1424.31,430.008C1426.35,430.683 1428.27,431.113 1430.25,431.51C1428.6,430.408 1427.09,429.199 1425.41,427.923C1424.74,427.413 1424.09,426.902 1423.38,426.411C1422.3,425.661 1421.15,424.963 1420.03,424.199C1417.52,422.501 1414.98,420.658 1412.45,418.664C1407.38,414.677 1402.33,410.108 1397.39,405.223C1391.44,399.332 1385.67,392.969 1380.3,386.545C1376.98,382.56 1373.8,378.564 1370.82,374.646C1368.71,371.865 1366.7,369.128 1364.81,366.473C1364.41,365.917 1364.03,365.358 1363.62,364.826C1362.98,363.999 1362.34,363.225 1361.68,362.454C1359.9,360.367 1358.2,358.513 1356.61,356.594Z" style="fill:rgb(65,40,60);"/>
            <path d="M1488.89,352.31C1491.18,351.461 1493.31,350.712 1495.42,349.802C1496.35,349.399 1497.24,348.992 1498.11,348.524C1500.02,347.493 1501.77,346.311 1503.49,345.189C1506.27,343.376 1508.85,341.538 1511.27,339.678C1518.1,334.43 1523.68,329.013 1528.43,322.959C1533.19,316.891 1537.12,310.18 1540.63,302.359C1542.66,297.846 1544.54,292.958 1546.34,287.589C1546.51,287.093 1546.69,286.6 1546.83,286.088C1547.04,285.321 1547.19,284.554 1547.32,283.755C1547.65,281.782 1547.81,279.868 1548.04,277.773C1546.98,279.584 1545.93,281.182 1544.95,282.922C1544.56,283.622 1544.2,284.306 1543.87,285.021C1543.65,285.497 1543.48,285.987 1543.29,286.466C1541.22,291.62 1539.18,296.326 1537.06,300.688C1533.46,308.094 1529.59,314.456 1525.02,320.279C1520.46,326.078 1515.2,331.339 1508.79,336.538C1506.48,338.411 1504.02,340.28 1501.41,342.185C1499.79,343.374 1498.06,344.514 1496.36,345.809C1495.58,346.4 1494.85,347.029 1494.09,347.684C1492.36,349.176 1490.73,350.715 1488.89,352.31Z" style="fill:rgb(65,40,60);"/>
            <path d="M1476.04,323.926C1477.59,321.977 1479.11,320.155 1480.56,318.168C1481.18,317.321 1481.78,316.483 1482.33,315.595C1483.49,313.71 1484.49,311.741 1485.52,309.802C1487.09,306.862 1488.58,303.909 1490.02,300.947C1493.67,293.422 1496.99,285.854 1499.92,278.147C1502.85,270.421 1505.41,262.555 1507.58,254.479C1508.99,249.194 1510.24,243.817 1511.29,238.321C1511.39,237.779 1511.51,237.239 1511.58,236.691C1511.69,235.858 1511.75,235.038 1511.78,234.195C1511.86,232.061 1511.77,230.041 1511.72,227.88C1510.92,229.879 1510.08,231.706 1509.32,233.692C1509.02,234.472 1508.75,235.237 1508.51,236.033C1508.35,236.558 1508.24,237.092 1508.11,237.622C1506.77,242.981 1505.33,248.228 1503.78,253.401C1501.42,261.295 1498.76,268.992 1495.86,276.603C1492.96,284.209 1489.82,291.73 1486.4,299.245C1485.05,302.213 1483.66,305.181 1482.26,308.166C1481.33,310.137 1480.33,312.082 1479.46,314.104C1479.05,315.058 1478.7,316.016 1478.35,316.999C1477.53,319.313 1476.85,321.574 1476.04,323.926Z" style="fill:rgb(65,40,60);"/>
            <path d="M1452.48,316.964C1451.1,315.834 1449.76,314.775 1448.32,313.764C1446.87,312.744 1445.41,311.826 1443.89,310.946C1443.46,310.699 1443.04,310.462 1442.6,310.243C1441.57,309.734 1440.52,309.304 1439.46,308.871C1433.43,306.393 1427.2,304.545 1420.87,303.038C1415.65,301.792 1410.35,300.8 1405.03,299.92C1399.76,299.05 1394.46,298.294 1389.17,297.514C1382.85,296.583 1376.55,295.617 1370.32,294.38C1366.17,293.557 1362.05,292.617 1357.98,291.501C1355.95,290.944 1353.95,290.271 1351.91,289.708C1350.99,289.452 1350.07,289.246 1349.13,289.037C1346.88,288.538 1344.73,288.143 1342.49,287.563C1344.31,288.853 1346.04,290.062 1347.96,291.17C1348.77,291.642 1349.58,292.085 1350.44,292.47C1354.68,294.372 1359.18,295.598 1363.66,296.79C1370.77,298.685 1378.04,300.025 1385.35,301.228C1390.16,302.022 1395,302.742 1399.83,303.483C1405.84,304.405 1411.83,305.369 1417.75,306.576C1423.66,307.779 1429.5,309.229 1435.23,311.109C1437.22,311.763 1439.19,312.509 1441.18,313.209C1442.03,313.51 1442.89,313.786 1443.76,314.058C1446.69,314.976 1449.56,315.821 1452.48,316.964Z" style="fill:rgb(65,40,60);"/>
        </g>
        <g transform="matrix(1,0,0,1,-1098.32,10.2192)">
            <path d="M1283.39,449.33C1283.39,449.33 1236.66,386.289 1295.11,305.356C1311.55,282.595 1347.52,278.558 1380,247.832C1446.5,184.929 1439.46,111.469 1354.33,96.097C1344.65,94.35 1322.04,65.125 1310.8,65.75C1270.55,67.986 1229.12,81.869 1234.52,146.748C1242.56,243.146 1335.97,277.309 1335.97,277.309C1320.2,282.704 1306.42,291.773 1295.11,305.356C1295.11,305.356 1194.36,247.23 1207.08,140.791C1219.8,34.352 1298.08,31.609 1337.57,37.634C1348.26,39.265 1362.58,62.075 1377.89,65.474C1419.14,74.632 1467.65,77.463 1472.17,164.153C1475.89,235.309 1413.26,285.897 1389.16,305.356C1365.06,324.816 1330.92,348.246 1331.59,385.064C1332.26,421.883 1369.86,466.263 1440.04,462.255C1596.02,453.346 1594.01,364.312 1594.01,364.312C1594.01,364.312 1614.76,373.684 1612.08,397.784C1609.86,417.788 1574.02,506.951 1413.26,501.545C1336.31,498.957 1306.15,470.957 1306.15,470.957C1306.15,470.957 1285.4,500.876 1227.83,498.198C1170.26,495.52 1153.44,467.968 1152.85,446.652C1152.17,421.811 1170.93,406.486 1170.93,406.486C1170.93,406.486 1160.89,455.767 1223.81,460.247C1266.05,463.254 1283.39,449.33 1283.39,449.33Z" style="fill:white;"/>
            <path d="M1226.68,460.427C1229.97,460.607 1233.11,460.683 1236.09,460.671L1237.36,460.66L1237.84,460.652C1240.44,460.61 1242.91,460.502 1245.27,460.336C1246.93,460.219 1248.54,460.075 1250.08,459.907L1249.02,460.018C1247.8,460.14 1246.55,460.247 1245.27,460.336C1242.91,460.501 1240.44,460.611 1237.84,460.652L1237.36,460.66L1236.09,460.671C1232.68,460.685 1229.07,460.584 1225.26,460.343L1226.68,460.427ZM1168,416.432C1167.94,415.183 1167.92,414.013 1167.94,412.941C1167.41,413.561 1166.84,414.242 1166.27,414.982L1166.53,415.202L1168,416.432L1168.03,416.884L1168.07,417.52L1169.35,418.658L1170.71,419.858L1170.65,419.419C1170.62,419.159 1170.41,418.847 1170.57,418.645C1170.57,418.645 1170.57,418.645 1170.57,418.645C1170.57,418.621 1170.59,418.588 1170.57,418.573L1168,416.432ZM1611.82,387.978C1611.19,384.218 1609.96,380.959 1608.42,378.165C1603.22,368.711 1594.53,364.57 1594.02,364.337C1594.03,364.639 1594.04,367.601 1593.22,372.321C1596.96,375.442 1602.96,380.489 1611.82,387.978ZM1300.7,298.999C1299.62,300.034 1298.6,301.109 1297.63,302.232C1298.63,301.121 1299.66,300.044 1300.7,298.999ZM1334.81,277.87C1325.79,282.486 1317.39,286.618 1310.19,291.412C1309.05,292.169 1307.94,292.944 1306.87,293.74C1309.06,291.899 1311.33,290.182 1313.65,288.586C1320.2,284.096 1327.27,280.555 1334.81,277.87ZM1336.08,277.217C1336.07,277.198 1336.05,277.183 1336.02,277.174C1336.02,277.174 1296.52,262.733 1266.7,226.126C1250.68,206.461 1237.45,180.397 1234.64,146.738C1232.21,117.623 1239.22,98.79 1251.34,86.677C1266.18,71.835 1288.67,67.082 1310.8,65.849C1313.5,65.698 1316.87,67.291 1320.55,69.806C1332.18,77.742 1346.97,94.86 1354.31,96.184C1399.34,104.306 1422.51,128.69 1424.48,159.173C1426.24,186.282 1411.24,218.204 1379.97,247.796C1365.35,261.631 1350.02,270.057 1336.08,277.217ZM1222.9,460.178C1222.3,460.131 1221.7,460.079 1221.11,460.023L1222,460.104C1222.6,460.155 1223.2,460.203 1223.81,460.247L1222.9,460.178ZM1220.23,459.936C1219.36,459.846 1218.5,459.747 1217.65,459.639L1218.5,459.744C1218.79,459.778 1219.07,459.811 1219.36,459.843L1220.23,459.936ZM1252.15,459.662C1253.51,459.489 1254.82,459.298 1256.08,459.091L1255.13,459.243C1253.84,459.442 1252.51,459.624 1251.12,459.788L1252.15,459.662ZM1216.81,459.528C1216.16,459.439 1215.51,459.344 1214.87,459.244C1213.62,459.047 1212.39,458.829 1211.21,458.594L1211.98,458.744C1212.92,458.923 1213.89,459.09 1214.87,459.244C1215.24,459.301 1215.61,459.357 1215.98,459.412L1216.81,459.528ZM1259.67,458.438C1259.99,458.376 1260.29,458.312 1260.6,458.248C1263.78,457.579 1266.6,456.819 1269.08,456.032L1269.16,456.006L1269.31,455.959C1269.83,455.791 1270.34,455.621 1270.84,455.451L1271.37,455.265C1271.54,455.203 1271.72,455.141 1271.89,455.078L1272.14,454.985C1272.66,454.797 1273.15,454.61 1273.63,454.423C1275,453.883 1276.23,453.349 1277.3,452.842C1279.5,451.808 1281.07,450.885 1282.07,450.246L1282.37,450.052C1282.46,449.992 1282.55,449.931 1282.64,449.87L1282.8,449.76C1283.2,449.486 1283.39,449.331 1283.39,449.33L1283.39,449.33C1283.38,449.31 1261.69,420.046 1266.35,375.801C1268.52,355.138 1276.44,331.208 1295,305.463C1293.57,304.629 1252.68,280.518 1226.77,235.619C1212.22,210.408 1202.39,178.646 1206.91,140.771C1211.99,98.251 1227.52,72.257 1246.86,56.752C1276.01,33.385 1313.82,33.832 1337.6,37.459C1346.18,38.767 1357.09,53.668 1368.98,61.306C1371.91,63.19 1374.89,64.628 1377.92,65.301C1402.21,70.692 1429.01,73.905 1447.89,93.271C1461.12,106.848 1470.48,128.363 1472.35,164.144C1473.62,188.586 1467.08,210.603 1456.96,229.77C1437.59,266.454 1405.11,292.69 1389.26,305.481C1374.73,317.217 1356.53,330.396 1344.54,347.093C1336.67,358.04 1331.48,370.5 1331.74,385.062C1332.12,406.327 1344.84,430.12 1369.07,445.628C1386.72,456.933 1410.49,463.835 1440.03,462.156C1495.5,459.013 1530.99,445.722 1553.69,429.908C1576.29,414.172 1586.23,395.931 1590.6,382.687C1591.85,378.891 1592.63,375.505 1593.13,372.706C1587.28,367.554 1585.62,365.982 1593.2,372.308C1594.06,367.33 1593.99,364.312 1593.99,364.312C1593.99,364.307 1593.99,364.302 1594,364.299C1594,364.296 1594.01,364.295 1594.01,364.298C1594.01,364.298 1603.1,368.389 1608.48,378.132C1610.04,380.956 1611.3,384.255 1611.92,388.066L1611.96,388.094C1615.71,383.586 1614.53,385.466 1612.44,388.505L1614.64,390.36C1614.84,390.527 1614.68,390.879 1614.7,391.141L1614.72,391.548C1635.99,410.058 1656.03,427.537 1614.77,392.686C1614.76,392.303 1614.74,391.923 1614.72,391.548L1613.44,390.432L1612.1,389.264L1612.15,389.677C1612.18,389.944 1612.21,390.214 1612.23,390.486C1612.23,390.508 1612.22,390.537 1612.24,390.551L1614.77,392.686C1614.81,394.394 1614.74,396.183 1614.53,398.055C1613.19,410.172 1599.98,447.224 1555.16,474.194C1524.66,492.545 1479.43,506.28 1413.18,504.052C1384.54,503.088 1362.31,498.632 1345.67,493.396C1323.48,486.416 1311.09,478.023 1306.51,474.488C1302.6,478.958 1291.67,489.5 1271.03,495.825C1259.7,499.295 1245.42,501.503 1227.71,500.676C1199.86,499.375 1181.34,492.308 1169.45,483.002C1155.79,472.298 1150.73,458.582 1150.4,446.719C1150.16,437.744 1152.33,429.95 1155.29,423.592C1157.39,419.074 1159.89,415.283 1162.2,412.306C1156.19,406.946 1153.33,404.271 1162.54,411.882L1162.23,412.274L1162.2,412.306C1163.32,413.307 1164.55,414.402 1165.84,415.539C1163.79,418.226 1161.58,421.622 1159.71,425.647C1157.04,431.407 1155.08,438.459 1155.3,446.584C1155.6,457.236 1160.22,469.512 1172.5,479.115C1183.8,487.955 1201.46,494.494 1227.94,495.72C1244.96,496.508 1258.69,494.404 1269.57,491.065C1294.31,483.474 1304.1,469.534 1304.1,469.534C1304.51,468.939 1305.16,468.552 1305.88,468.474C1306.6,468.396 1307.32,468.634 1307.85,469.127C1307.85,469.127 1319.62,479.952 1347.17,488.613C1363.49,493.742 1385.27,498.095 1413.35,499.038C1478.3,501.223 1522.66,487.873 1552.57,469.896C1595.37,444.17 1608.34,409.077 1609.63,397.512C1609.8,396.043 1609.87,394.633 1609.86,393.281C1610.48,392.539 1611.23,391.618 1612.14,390.494C1612.31,390.283 1612.09,389.954 1612.06,389.688C1612.04,389.516 1612.02,389.345 1612,389.174L1611.99,389.167L1610.97,390.642L1609.84,392.275C1609.85,392.607 1609.86,392.942 1609.86,393.281C1606.03,397.907 1607.56,395.572 1609.84,392.275C1609.83,392.001 1609.82,391.728 1609.8,391.458C1609.78,391.231 1609.61,390.956 1609.75,390.782C1610.39,389.99 1610.96,389.299 1611.45,388.701C1604.41,382.574 1597.58,376.623 1593.15,372.72C1592.64,375.516 1591.85,378.898 1590.6,382.687C1586.25,395.942 1576.34,414.21 1553.75,429.983C1531.04,445.834 1495.54,459.159 1440.04,462.353C1410.44,464.053 1386.63,457.148 1368.94,445.834C1344.62,430.285 1331.84,406.408 1331.45,385.067C1331.18,370.438 1336.39,357.915 1344.29,346.914C1356.29,330.191 1374.51,316.987 1389.06,305.232C1404.88,292.455 1437.32,266.25 1456.66,229.611C1466.75,210.495 1473.27,188.536 1471.99,164.162C1470.13,128.502 1460.82,107.052 1447.63,93.521C1428.8,74.207 1402.07,71.025 1377.85,65.648C1374.78,64.967 1371.75,63.513 1368.78,61.605C1356.94,53.995 1346.09,39.113 1337.55,37.809C1313.84,34.193 1276.14,33.733 1247.08,57.026C1227.8,72.486 1212.32,98.411 1207.25,140.811C1202.73,178.604 1212.53,210.301 1227.04,235.46C1252.59,279.742 1292.72,303.778 1295.08,305.163C1295.51,304.646 1295.94,304.135 1296.38,303.63C1298.17,301.396 1300.15,299.346 1302.3,297.432C1305.84,294.051 1309.57,291.027 1313.49,288.343C1320.3,283.674 1327.68,280.029 1335.55,277.303C1331.45,275.725 1294.66,260.882 1266.5,226.292C1250.45,206.588 1237.21,180.476 1234.41,146.758C1231.98,117.553 1239.03,98.669 1251.18,86.523C1266.07,71.65 1288.61,66.88 1310.79,65.651C1313.53,65.5 1316.93,67.099 1320.66,69.647C1332.27,77.574 1347.01,94.685 1354.34,96.01C1399.46,104.165 1422.65,128.619 1424.62,159.164C1426.36,186.302 1411.35,218.257 1380.03,247.867C1365.4,261.705 1350.06,270.128 1336.12,277.287L1336.12,277.311C1336.12,277.372 1336.08,277.426 1336.02,277.446L1335.35,277.677C1326.15,282.393 1317.56,286.587 1310.23,291.468C1308.78,292.43 1307.38,293.418 1306.04,294.444C1302.22,297.723 1298.61,301.385 1295.23,305.452C1295.18,305.504 1295.11,305.52 1295.05,305.492C1276.49,331.223 1268.56,355.146 1266.37,375.804C1261.7,420.042 1283.38,449.31 1283.39,449.33L1283.39,449.33C1283.39,449.331 1283.2,449.486 1282.8,449.76L1282.64,449.87C1282.55,449.931 1282.46,449.992 1282.37,450.052L1282.07,450.246C1281.07,450.885 1279.5,451.808 1277.3,452.842C1276.23,453.349 1275,453.882 1273.63,454.423C1273.15,454.61 1272.66,454.797 1272.14,454.985C1271.89,455.078 1271.63,455.171 1271.37,455.265L1270.84,455.451C1270.34,455.621 1269.83,455.791 1269.31,455.959L1269.16,456.006L1269.08,456.032C1266.6,456.819 1263.78,457.579 1260.6,458.248C1260.29,458.312 1259.99,458.376 1259.67,458.438L1258.85,458.6L1257.94,458.769C1258.53,458.662 1259.11,458.552 1259.67,458.438ZM1207.41,457.746C1206.72,457.573 1206.03,457.392 1205.36,457.205L1206.06,457.397C1206.51,457.516 1206.96,457.632 1207.41,457.746L1207.49,457.764L1208.02,457.895L1207.49,457.764L1207.41,457.746ZM1204.34,456.909C1203.64,456.703 1202.95,456.489 1202.28,456.268C1201.58,456.038 1200.9,455.8 1200.23,455.556C1199.7,455.361 1199.18,455.163 1198.67,454.959C1198.33,454.825 1198,454.689 1197.67,454.552C1197.42,454.449 1197.18,454.346 1196.94,454.241L1196.51,454.05L1195.98,453.813C1193.16,452.523 1190.64,451.09 1188.4,449.547L1188.34,449.508L1187.89,449.197C1186.57,448.258 1185.34,447.282 1184.2,446.275L1183.82,445.938C1183.11,445.292 1182.43,444.633 1181.79,443.964L1182.18,444.364C1182.71,444.896 1183.25,445.421 1183.82,445.938L1184.2,446.275C1185.46,447.394 1186.84,448.475 1188.34,449.508L1188.4,449.547C1190.64,451.09 1193.16,452.524 1195.98,453.813L1196.51,454.05L1197.08,454.303L1197.67,454.552L1198.26,454.797L1198.67,454.959C1199.18,455.162 1199.7,455.361 1200.23,455.556C1200.9,455.801 1201.58,456.038 1202.28,456.268C1202.95,456.489 1203.64,456.703 1204.34,456.909ZM1180.32,442.34C1180.17,442.172 1180.03,442.003 1179.89,441.833L1179.63,441.516L1179.52,441.382C1179.11,440.873 1178.72,440.361 1178.34,439.846L1178.65,440.266C1178.93,440.64 1179.22,441.012 1179.52,441.382L1179.63,441.516L1179.89,441.833C1180.14,442.14 1180.4,442.445 1180.67,442.749L1180.32,442.34ZM1178.04,439.425L1177.75,439.002L1177.46,438.578C1177.65,438.861 1177.84,439.143 1178.04,439.425ZM1176.8,437.557C1176.63,437.295 1176.47,437.032 1176.32,436.77C1175.93,436.119 1175.57,435.465 1175.23,434.81L1175.18,434.723L1175.1,434.548C1174.47,433.314 1173.91,432.076 1173.43,430.846L1173.34,430.592C1172.07,427.272 1171.3,424.011 1170.86,421.013L1170.81,420.97C1168.65,423.572 1169.18,422.55 1170.39,420.616L1168.17,418.768C1168.06,418.674 1168.15,418.478 1168.13,418.334C1168.11,418.06 1168.09,417.788 1168.07,417.52L1165.84,415.539L1165.94,415.402L1166.27,414.982L1163.26,412.485L1162.54,411.882C1166.26,407.163 1169.4,404.616 1169.4,404.616C1170.19,403.971 1171.3,403.892 1172.18,404.42C1173.05,404.948 1173.5,405.968 1173.29,406.968C1173.29,406.968 1172.57,410.583 1172.79,415.885L1172.37,416.399C1172.1,416.733 1171.83,417.068 1171.56,417.403L1170.57,418.645L1170.65,419.419L1170.71,419.858L1170.81,419.947C1171.45,418.929 1172.2,417.768 1172.83,416.771C1172.82,416.471 1172.8,416.176 1172.79,415.885C1175.03,413.175 1174.23,414.573 1172.83,416.771C1172.86,417.148 1172.88,417.531 1172.92,417.922C1172.93,418.052 1173.04,418.212 1172.95,418.316C1172.3,419.138 1171.75,419.821 1171.3,420.38C1181.31,429.256 1189.69,436.74 1170.86,421.013C1171.3,424.01 1172.07,427.271 1173.34,430.592L1173.43,430.846C1173.91,432.076 1174.46,433.313 1175.1,434.548L1175.18,434.723L1175.23,434.81C1175.57,435.465 1175.93,436.119 1176.32,436.77C1176.47,437.033 1176.63,437.295 1176.8,437.557C1176.92,437.755 1177.05,437.954 1177.18,438.153L1176.9,437.727L1176.8,437.557Z" style="fill:rgb(139,123,137);"/>
        </g>
        <g transform="matrix(1,0,0,1,-1098.32,10.2192)">
            <path d="M1335.97,277.309C1335.97,277.309 1346.28,277.195 1380,247.832C1442.8,193.144 1444.62,111.066 1354.33,95.366C1336.31,92.235 1334.6,64.798 1310.8,65.75C1243.94,68.422 1025.36,160.115 1034.53,224.569C1071.02,480.793 1335.97,277.309 1335.97,277.309Z" style="fill:none;"/>
            <clipPath id="_clip3">
                <path d="M1335.97,277.309C1335.97,277.309 1346.28,277.195 1380,247.832C1442.8,193.144 1444.62,111.066 1354.33,95.366C1336.31,92.235 1334.6,64.798 1310.8,65.75C1243.94,68.422 1025.36,160.115 1034.53,224.569C1071.02,480.793 1335.97,277.309 1335.97,277.309Z"/>
            </clipPath>
            <g clip-path="url(#_clip3)">
                <g id="Layer-2" serif:id="Layer 2" transform="matrix(0.817809,0,0,0.817809,1052.94,33.8607)">
                    <g transform="matrix(0.886757,-0.462236,0.462236,0.886757,253.106,521.533)">
                        <path d="M0,-376.63C26.196,-369.305 26.175,-348.569 26.175,-348.569L88.576,-360.715C88.576,-360.715 112.238,-400.262 144.161,-392.239C156.256,-391.977 133.102,-391.281 197.855,-395.185C203.206,-395.507 209.522,-393.694 214.974,-395.782C276.75,-419.432 325.509,-432.685 325.509,-432.685C325.509,-432.685 344.751,-386.798 265.956,-338.401C265.956,-336.86 265.706,-338.691 266.706,-336.735C268.588,-336.943 294.756,-332.028 410.85,-370.746C410.85,-370.746 440.532,-296.772 337.646,-262.957C326.812,-258.79 350.965,-240.108 356.37,-231.552C386.083,-184.52 403.14,-160.833 389.64,-102.333C375.458,-40.873 324.826,29.116 312.598,40.316C188.081,68.616 65.657,-19.434 89.138,-38.956C120.717,-65.21 161.7,-99.531 178.78,-123.333C194.272,-144.923 211.64,-193.897 190.14,-197.397C134.285,-206.49 5.243,-183.968 -16.063,-204.66C-35.6,-223.632 -41.117,-266.161 -41.117,-266.161L-29.853,-372.28C-29.853,-372.28 -26.196,-383.954 0,-376.63" style="fill:rgb(255,186,0);fill-rule:nonzero;"/>
                    </g>
                    <g transform="matrix(1.22278,0,0,1.22278,-2006.11,-53.9)">
                        <path d="M1828.78,234.701C1838.91,238.811 1848.37,241.653 1856.78,242.783C1865.02,243.889 1872.36,243.465 1878.55,241.374C1883.12,239.917 1885.66,235.018 1884.2,230.439C1882.75,225.861 1877.85,223.327 1873.27,224.784C1869.31,225.966 1864.66,225.798 1859.47,224.932C1852.41,223.752 1844.54,221.071 1836.09,217.366C1831.31,215.347 1825.79,217.591 1823.77,222.375C1821.75,227.159 1823.99,232.682 1828.78,234.701Z" style="fill:rgb(206,145,32);"/>
                    </g>
                    <g transform="matrix(-0.476673,0.879081,0.879081,0.476673,113.884,224.037)">
                        <path d="M6.534,-21.372C12.982,-21.345 18.21,-16.092 18.21,-9.639C18.21,-3.185 12.982,2.024 6.534,1.998C0.086,1.971 -5.142,-3.282 -5.142,-9.735C-5.142,-16.189 0.086,-21.398 6.534,-21.372" style="fill:rgb(35,31,32);fill-rule:nonzero;"/>
                    </g>
                    <g transform="matrix(1.22278,0,0,1.22278,-1999.63,-53.9)">
                        <path d="M1779.45,281.358C1774,280.02 1764.14,275.973 1757.44,274.477C1754.01,273.709 1751.1,273.464 1749.17,273.819C1747,274.215 1745.29,274.907 1744.12,275.99C1741.78,278.167 1738.97,282.605 1736.89,288.234C1732.88,299.056 1729.92,313.877 1729.92,313.877C1729.2,316.455 1730.72,319.131 1733.29,319.848C1735.87,320.565 1738.55,319.055 1739.26,316.477C1739.26,316.477 1743.19,305.919 1747.67,296.867C1749.15,293.884 1750.61,291.072 1752.03,289.238C1753.88,289.725 1756.18,290.717 1758.67,291.712C1763.35,293.579 1768.44,295.778 1772.37,297.133C1777.16,298.786 1781.1,298.931 1782.95,298.49C1785.26,297.877 1788.78,295.847 1792.21,292.17C1795.91,288.2 1800.26,282.177 1804.21,277.915C1805.13,276.917 1805.95,275.976 1806.78,275.308C1807.02,275.121 1807.38,274.765 1807.38,274.765C1807.38,274.765 1807.21,274.748 1807.14,274.771C1806.91,274.841 1806.35,275.068 1806.35,274.771C1806.36,272.625 1811.9,276.158 1815.23,277.707C1821.21,280.487 1826.86,283.774 1826.86,283.774C1829.04,285.326 1832.07,284.817 1833.62,282.637C1835.17,280.457 1834.66,277.428 1832.48,275.875C1832.48,275.875 1823.54,268.429 1816.03,264.196C1811.24,261.493 1806.59,260.727 1803.9,261.164C1801.42,261.58 1798.3,263.374 1794.95,266.084C1790.52,269.675 1785.38,275.347 1781.13,279.429C1780.58,279.956 1779.99,280.732 1779.45,281.358ZM1779.13,281.724C1779.04,281.759 1778.96,281.785 1778.9,281.799C1778.59,281.871 1777.62,281.828 1777.85,282.205C1778.11,282.642 1778.58,282.317 1779.13,281.724ZM1779.84,281.449L1780.18,281.53C1780.34,281.565 1780.59,281.751 1780.61,281.622C1780.66,281.236 1780.27,281.297 1779.84,281.449Z" style="fill:rgb(27,32,49);"/>
                    </g>
                    <g transform="matrix(1.22278,0,0,1.22278,-2007.45,-53.5644)">
                        <path d="M1834.19,213.667L1879.48,196.375" style="fill:none;stroke:rgb(27,32,49);stroke-width:17.41px;"/>
                    </g>
                    <g transform="matrix(1.22278,0,0,1.22278,-2004.77,-54.437)">
                        <path d="M1851.95,224.049L1857.22,222.292" style="fill:none;stroke:rgb(27,32,49);stroke-width:25.15px;"/>
                    </g>
                </g>
            </g>
        </g>
        <g transform="matrix(1,0,0,1,-1686,0)">
            <path d="M1815.51,195.736C1816.37,195.616 1816.96,196.584 1817.73,196.231C1845.03,183.793 1856.32,170.065 1866.58,154.039" style="fill:none;stroke:rgb(27,32,49);stroke-width:17.41px;"/>
        </g>
    </g>
    <defs>
        <linearGradient id="_Linear2" x1="0" y1="0" x2="1" y2="0" gradientUnits="userSpaceOnUse" gradientTransform="matrix(35.6402,399.718,-433.659,38.6665,1348.67,46.2773)"><stop offset="0" style="stop-color:rgb(219,78,186);stop-opacity:1"/><stop offset="1" style="stop-color:rgb(131,53,167);stop-opacity:1"/></linearGradient>
    </defs>
</svg>
