<?xml version="1.0" encoding="UTF-8" standalone="no"?>
<!DOCTYPE svg PUBLIC "-//W3C//DTD SVG 1.1//EN" "http://www.w3.org/Graphics/SVG/1.1/DTD/svg11.dtd">
<svg width="100%" height="100%" viewBox="0 0 512 512" version="1.1" xmlns="http://www.w3.org/2000/svg" xmlns:xlink="http://www.w3.org/1999/xlink" xml:space="preserve" xmlns:serif="http://www.serif.com/" style="fill-rule:evenodd;clip-rule:evenodd;stroke-linejoin:round;stroke-miterlimit:2;">
    <rect id="Artboard1" x="0" y="0" width="512" height="512" style="fill:none;"/>
    <clipPath id="_clip1">
        <rect id="Artboard11" serif:id="Artboard1" x="0" y="0" width="512" height="512"/>
    </clipPath>
    <g clip-path="url(#_clip1)">
        <g id="Layer-2" serif:id="Layer 2">
            <g transform="matrix(1,0,0,1,20.0776,462.689)">
                <path d="M42.632,-374.025C68.938,-367.106 69.238,-346.372 69.238,-346.372L131.444,-359.482C131.444,-359.482 154.491,-399.39 186.534,-391.862C198.632,-391.787 192.457,-390.518 256.145,-402.844C261.409,-403.862 267.361,-404.315 273.04,-405.671C331.563,-419.647 365.132,-459.295 365.132,-459.295C365.132,-459.295 413.63,-406.83 365.386,-350.549C363.259,-348.068 364.425,-349.433 365.894,-347.799C367.659,-348.484 420.568,-358.258 486.422,-387.545C486.422,-387.545 519.094,-338.637 440.507,-285.825C430.383,-280.146 435.833,-224.593 435.085,-192.089C434.312,-158.474 430.326,-148.815 410.708,-91.335C390.334,-31.641 346.417,29.116 334.189,40.316C209.672,68.616 87.248,-19.434 110.729,-38.956C142.308,-65.21 194.29,-99.007 211.37,-122.809C226.862,-144.399 257.074,-194.588 235.522,-197.755C179.533,-205.982 50.855,-181.467 29.231,-201.827C9.403,-220.494 3.229,-262.933 3.229,-262.933L12.85,-369.213C12.85,-369.213 16.326,-380.942 42.632,-374.025" style="fill:rgb(255,186,0);fill-rule:nonzero;"/>
                <clipPath id="_clip2">
                    <path d="M42.632,-374.025C68.938,-367.106 69.238,-346.372 69.238,-346.372L131.444,-359.482C131.444,-359.482 154.491,-399.39 186.534,-391.862C198.632,-391.787 192.457,-390.518 256.145,-402.844C261.409,-403.862 267.361,-404.315 273.04,-405.671C331.563,-419.647 365.132,-459.295 365.132,-459.295C365.132,-459.295 413.63,-406.83 365.386,-350.549C363.259,-348.068 364.425,-349.433 365.894,-347.799C367.659,-348.484 420.568,-358.258 486.422,-387.545C486.422,-387.545 519.094,-338.637 440.507,-285.825C430.383,-280.146 435.833,-224.593 435.085,-192.089C434.312,-158.474 430.326,-148.815 410.708,-91.335C390.334,-31.641 346.417,29.116 334.189,40.316C209.672,68.616 87.248,-19.434 110.729,-38.956C142.308,-65.21 194.29,-99.007 211.37,-122.809C226.862,-144.399 257.074,-194.588 235.522,-197.755C179.533,-205.982 50.855,-181.467 29.231,-201.827C9.403,-220.494 3.229,-262.933 3.229,-262.933L12.85,-369.213C12.85,-369.213 16.326,-380.942 42.632,-374.025" clip-rule="nonzero"/>
                </clipPath>
                <g clip-path="url(#_clip2)">
                    <g transform="matrix(0,73.4786,71.0434,0,254.383,-235.114)">
                        <ellipse cx="-0" cy="0" rx="1" ry="1" style="fill:url(#_Radial3);"/>
                    </g>
                </g>
            </g>
            <g transform="matrix(-0.829036,0.559195,0.559195,0.829036,63.3692,143.659)">
                <path d="M-11.366,-9.298C-4.918,-9.271 0.309,-4.018 0.31,2.435C0.31,8.888 -4.918,14.098 -11.366,14.071C-17.814,14.045 -23.042,8.792 -23.042,2.339C-23.042,-4.115 -17.814,-9.325 -11.366,-9.298" style="fill:rgb(35,31,32);fill-rule:nonzero;"/>
            </g>
            <g transform="matrix(-0.655273,0.755392,0.755392,0.655273,250.406,157.468)">
                <path d="M9.83,-18.996C19.827,-15.427 37.008,-6.008 36.677,7.12C36.347,20.248 25.399,29.663 7.943,29.18C-9.513,28.697 -21.131,14.764 -23.06,0.835C-25.387,-15.974 -9.253,-25.809 9.83,-18.996Z" style="fill:rgb(47,47,47);fill-rule:nonzero;stroke:rgb(27,32,49);stroke-width:4.34px;"/>
            </g>
            <g transform="matrix(1,0,0,1,-16.3666,-25.5318)">
                <path d="M-38.682,172.81L124.074,198.667C124.074,198.667 110.768,233.022 110.67,240.999C110.572,248.977 120.468,277.16 120.468,277.16L301.902,242.578L420.229,619.2L-147.277,594.207L-38.682,172.81Z" style="fill:none;"/>
                <clipPath id="_clip4">
                    <path d="M-38.682,172.81L124.074,198.667C124.074,198.667 110.768,233.022 110.67,240.999C110.572,248.977 120.468,277.16 120.468,277.16L301.902,242.578L420.229,619.2L-147.277,594.207L-38.682,172.81Z"/>
                </clipPath>
                <g clip-path="url(#_clip4)">
                    <g transform="matrix(0.740696,-0.302956,0.302956,0.740696,-1349.06,631.952)">
                        <g transform="matrix(1.36389,-0.172153,0.127113,1.00706,743.151,115.689)">
                            <path d="M708.743,375.971L713.772,262.326C713.594,254.332 722.474,245.7 731.722,246.226L805.854,246.833L803.854,288.536L760.061,288.796C753.645,287.72 749.017,291.29 749.461,300.716L758.358,382.136L708.743,375.971Z" style="fill:rgb(199,174,255);stroke:rgb(15,1,131);stroke-width:9.74px;stroke-linecap:round;stroke-linejoin:miter;stroke-miterlimit:1.5;"/>
                        </g>
                        <g transform="matrix(0.986366,0.164565,-0.164565,0.986366,1174.38,-107.503)">
                            <path d="M587.596,534.449L622.485,315.475L822.549,346.376L788.222,564.2L587.596,534.449Z" style="fill:rgb(131,84,234);"/>
                            <clipPath id="_clip5">
                                <path d="M587.596,534.449L622.485,315.475L822.549,346.376L788.222,564.2L587.596,534.449Z"/>
                            </clipPath>
                            <g clip-path="url(#_clip5)">
                                <g transform="matrix(1,0,0,1,-0.523713,3.14234)">
                                    <path d="M601.076,323.298L677.016,434.328L820.518,318.584L603.171,289.255L601.076,323.298Z" style="fill:rgb(131,84,234);stroke:rgb(48,47,48);stroke-width:22.77px;stroke-linecap:round;stroke-linejoin:miter;stroke-miterlimit:1.5;"/>
                                </g>
                            </g>
                            <path d="M587.596,534.449L622.485,315.475L822.549,346.376L788.222,564.2L587.596,534.449Z" style="fill:none;stroke:rgb(48,47,48);stroke-width:22.77px;stroke-linecap:round;stroke-linejoin:miter;stroke-miterlimit:1.5;"/>
                        </g>
                    </g>
                </g>
            </g>
            <g transform="matrix(0.950309,0.935986,-0.819475,0.832016,52.692,182.201)">
                <path d="M22.635,-32.89C22.86,-22.481 27.717,-12.143 37.742,-0.929C49.775,12.532 67.601,15.003 70.498,15.049C79.269,15.188 78.712,7.837 69.941,7.698C68.577,7.676 51.123,4.496 42.391,-6.39C35.508,-14.969 27.879,-25.978 29.171,-34.783C30.607,-44.577 20.311,-42.547 22.635,-32.89" style="fill:rgb(47,47,47);fill-rule:nonzero;stroke:rgb(27,32,49);stroke-width:3.43px;"/>
            </g>
            <g transform="matrix(0.88076,0.473563,-0.473563,0.88076,203.39,-38.0928)">
                <g transform="matrix(0.664427,-0.979097,0.801895,0.544176,-222.033,454.922)">
                    <path d="M228.498,410.079C230.115,439.007 182.679,432.95 171.373,426.177C160.068,419.405 160.89,393.093 160.666,369.445C160.493,351.248 171.555,305.019 171.555,305.019C180.391,318.938 182.765,316.978 189.276,295.356C189.276,295.356 199.002,317.232 203.859,317.689C208.716,318.146 218.416,298.099 218.416,298.099C218.416,298.099 206.06,345.703 218.138,343.69C230.217,341.676 246.058,315.504 238.287,343.69C222.387,401.357 227.834,398.202 228.498,410.079Z" style="fill:rgb(255,186,0);"/>
                </g>
                <g transform="matrix(0.664427,-0.979097,0.801895,0.544176,-222.033,454.922)">
                    <path d="M204.05,314.214C204.261,314.085 204.911,313.673 205.315,313.288C206.386,312.266 207.516,310.798 208.631,309.178C212.438,303.644 215.966,296.332 215.966,296.332C216.702,294.811 218.256,294.206 219.577,294.927C220.898,295.648 221.566,297.464 221.128,299.148C221.128,299.148 217.031,314.96 215.952,327.748C215.603,331.888 215.535,335.682 216.174,338.353C216.445,339.484 216.809,340.39 217.752,340.233C220.667,339.75 223.797,337.599 226.722,335.35C230.661,332.321 234.257,329.051 236.596,327.906C239.195,326.634 241.069,327.396 242.148,329.038C242.746,329.949 243.266,331.467 243.144,333.887C243.033,336.104 242.37,339.605 240.931,344.777C238.999,351.634 237.459,357.658 236.017,362.88C235.582,364.454 235.145,365.944 234.716,367.371C233.987,369.795 233.311,372.009 232.653,374.064C230.45,380.934 228.837,385.818 227.881,389.783C227.675,390.636 227.457,391.406 227.34,392.172C227.318,392.314 227.301,392.456 227.286,392.596L227.252,393.124C226.696,401.818 228.153,403.914 228.498,410.079C229.183,422.183 221.281,428.18 211.024,430.552C200.603,432.961 187.747,431.657 179.023,429.191C178.485,429.039 177.952,428.924 177.459,428.717L177.458,428.717C174.781,428.164 172.565,427.915 170.923,427.298C167.21,425.895 164.24,422.82 162.168,418.156C161.431,416.496 160.998,414.559 160.543,412.559C157.89,400.882 158.133,384.645 157.988,369.483C157.924,362.973 159.241,352.967 161.003,342.691C164.235,323.854 168.931,304.083 168.931,304.083C169.219,302.879 170.036,301.974 171.045,301.74C172.054,301.506 173.086,301.983 173.715,302.974C175.415,305.644 176.849,307.695 178.121,309.075C178.613,309.608 179.063,310.025 179.496,310.298C179.695,310.423 179.86,310.551 180.036,310.511C180.3,310.451 180.495,310.157 180.746,309.822C181.149,309.284 181.543,308.58 181.954,307.721C183.362,304.785 184.834,300.298 186.666,294.184C187.043,292.933 187.985,292.066 189.075,291.97C190.164,291.873 191.199,292.564 191.72,293.736C191.72,293.736 195.297,301.756 199.152,308.041C200.295,309.904 201.457,311.611 202.554,312.862C202.936,313.298 203.305,313.672 203.66,313.957C203.773,314.048 203.944,314.152 204.05,314.214ZM237.772,334.987C236.941,335.533 235.86,336.279 234.959,337.013C230.26,340.839 224.001,346.225 218.525,347.146C216.287,347.52 214.555,346.803 213.209,345.414C211.732,343.891 210.69,341.318 210.256,337.914C209.504,332.013 210.544,323.097 211.913,315.099C211.736,315.339 211.558,315.574 211.38,315.803C209.906,317.703 208.423,319.221 207.101,320.09C205.861,320.904 204.68,321.22 203.642,321.12C202.644,321.024 201.489,320.505 200.295,319.476C199.028,318.385 197.615,316.649 196.207,314.559C193.901,311.136 191.551,306.726 189.781,303.18C188.225,307.828 186.863,311.168 185.549,313.285C184.097,315.624 182.565,316.777 181.04,317.119C179.392,317.489 177.582,316.989 175.597,315.203C174.733,314.426 173.797,313.361 172.771,312.008C171.13,319.215 168.375,331.825 166.26,344.042C164.576,353.77 163.286,363.241 163.343,369.407C163.461,381.683 163.312,394.681 164.718,405.226C165.258,409.278 166.197,412.86 167.165,416.039C168.303,419.779 169.408,422.978 171.824,425.057C173.174,426.218 174.99,427.678 177.458,428.717L177.459,428.717C177.974,428.823 178.489,429.017 179.028,429.164C187.763,431.549 200.598,432.896 211.015,430.495C221.262,428.132 229.165,422.172 228.498,410.079C228.163,404.078 226.606,401.915 227.199,393.805C227.227,393.417 227.243,393.012 227.286,392.596C227.311,392.215 227.335,391.822 227.349,391.414C227.48,387.579 227.583,382.69 228.345,375.833C228.537,374.109 228.743,372.301 229.048,370.345C229.439,367.847 229.925,365.165 230.561,362.267C231.807,356.586 233.612,350.133 235.642,342.602C236.443,339.672 237.368,336.84 237.772,334.987ZM237.977,333.588C237.989,333.061 237.856,332.786 237.52,332.84C237.317,332.873 237.675,333.23 237.759,333.357C237.814,333.44 237.889,333.517 237.977,333.588Z" style="fill:rgb(27,32,49);"/>
                </g>
            </g>
        </g>
    </g>
    <defs>
        <radialGradient id="_Radial3" cx="0" cy="0" r="1" gradientUnits="userSpaceOnUse" gradientTransform="matrix(0,1,1,0,-8.49688e-06,8.49688e-06)"><stop offset="0" style="stop-color:rgb(247,148,29);stop-opacity:1"/><stop offset="1" style="stop-color:rgb(255,186,0);stop-opacity:1"/></radialGradient>
    </defs>
</svg>
