<?xml version="1.0" encoding="UTF-8" standalone="no"?>
<!DOCTYPE svg PUBLIC "-//W3C//DTD SVG 1.1//EN" "http://www.w3.org/Graphics/SVG/1.1/DTD/svg11.dtd">
<svg width="100%" height="100%" viewBox="0 0 512 512" version="1.1" xmlns="http://www.w3.org/2000/svg" xmlns:xlink="http://www.w3.org/1999/xlink" xml:space="preserve" xmlns:serif="http://www.serif.com/" style="fill-rule:evenodd;clip-rule:evenodd;stroke-linejoin:round;stroke-miterlimit:2;">
    <g transform="matrix(1.02569,1.38778e-17,0,1.02569,-31.3068,-3.51566)">
        <path d="M343.854,286.969C343.854,286.969 132.186,472.588 64.395,359.888C44.381,326.614 51.066,294.535 65.142,258.023L154.785,272.081L215.638,258.03L241.489,231.591L343.854,286.969Z" style="fill:rgb(244,198,200);"/>
    </g>
    <rect id="Artboard1" x="0" y="0" width="512" height="512" style="fill:none;"/>
    <clipPath id="_clip1">
        <rect id="Artboard11" serif:id="Artboard1" x="0" y="0" width="512" height="512"/>
    </clipPath>
    <g clip-path="url(#_clip1)">
        <g id="Layer-2" serif:id="Layer 2" transform="matrix(0.703018,0,0,0.703018,73.9356,51.6777)">
            <g transform="matrix(1.82316,-0.12898,0.128716,1.82689,-392.507,65.2644)">
                <path d="M434.018,146.39C434.018,203.312 388.737,215.139 388.737,215.139L345.775,163.534C307.829,6.943 446.085,12.084 494.827,97.783C496.7,101.077 495.901,103.248 489.118,100.922C449.81,87.437 403.082,68.827 434.018,146.39Z" style="fill:rgb(255,186,0);"/>
                <clipPath id="_clip2">
                    <path d="M434.018,146.39C434.018,203.312 388.737,215.139 388.737,215.139L345.775,163.534C307.829,6.943 446.085,12.084 494.827,97.783C496.7,101.077 495.901,103.248 489.118,100.922C449.81,87.437 403.082,68.827 434.018,146.39Z"/>
                </clipPath>
                <g clip-path="url(#_clip2)">
                    <g transform="matrix(-0.103513,-0.755252,-0.656108,0.089925,631.73,285.647)">
                        <path d="M199.682,274.373C199.682,274.373 283.17,245.066 252.827,132.299C330.801,201.912 333.602,309.172 199.682,274.373Z" style="fill:rgb(226,137,64);"/>
                    </g>
                    <g transform="matrix(0.419791,0.433932,-0.224361,0.217042,374.426,-69.8161)">
                        <path d="M110.419,184.263C140.46,96.608 197.642,24.117 263.18,24.117C318.479,24.117 367.829,75.725 399.941,144.501L341.23,235.829L233.83,172.06L166.705,252.61L110.419,184.263Z" style="fill:rgb(226,137,64);"/>
                    </g>
                </g>
            </g>
            <g transform="matrix(2.04194,-0.144457,0.14065,1.99627,-440.489,-198.429)">
                <ellipse cx="327.666" cy="320.29" rx="64.44" ry="64.869" style="fill:rgb(255,186,0);"/>
            </g>
            <g transform="matrix(0.784314,-0.393383,0.392579,0.785921,54.8553,426.986)">
                <path d="M35.723,-372.343C61.919,-365.018 61.898,-344.282 61.898,-344.282L88.576,-360.715C88.576,-360.715 112.238,-400.262 144.161,-392.239C156.256,-391.977 160.404,-389.116 223.129,-405.661C228.313,-407.027 234.862,-406.49 239.798,-409.608C295.726,-444.93 342.456,-468.96 342.456,-468.96C342.456,-468.96 383.77,-415.588 333.122,-379.405C333.424,-377.895 332.819,-379.641 334.184,-377.919C335.989,-378.493 348.864,-344.589 464.958,-383.307C464.958,-383.307 494.64,-309.333 391.754,-275.518C380.92,-271.351 386.023,-263.078 390.14,-253.833C407.412,-215.048 403.194,-160.821 389.64,-102.333C356.96,38.686 220.419,42.199 220.82,104.686C96.303,132.986 -138.857,29.387 -132.27,-0.431C-106.055,-119.103 -41.645,-185.68 152.429,-127.916C177.898,-120.335 211.581,-173.998 190.081,-177.498C134.226,-186.591 47.427,-200.858 26.121,-221.55C6.584,-240.522 -5.394,-261.874 -5.394,-261.874L5.87,-367.993C5.87,-367.993 9.527,-379.667 35.723,-372.343" style="fill:rgb(255,186,0);fill-rule:nonzero;"/>
                <clipPath id="_clip3">
                    <path d="M35.723,-372.343C61.919,-365.018 61.898,-344.282 61.898,-344.282L88.576,-360.715C88.576,-360.715 112.238,-400.262 144.161,-392.239C156.256,-391.977 160.404,-389.116 223.129,-405.661C228.313,-407.027 234.862,-406.49 239.798,-409.608C295.726,-444.93 342.456,-468.96 342.456,-468.96C342.456,-468.96 383.77,-415.588 333.122,-379.405C333.424,-377.895 332.819,-379.641 334.184,-377.919C335.989,-378.493 348.864,-344.589 464.958,-383.307C464.958,-383.307 494.64,-309.333 391.754,-275.518C380.92,-271.351 386.023,-263.078 390.14,-253.833C407.412,-215.048 403.194,-160.821 389.64,-102.333C356.96,38.686 220.419,42.199 220.82,104.686C96.303,132.986 -138.857,29.387 -132.27,-0.431C-106.055,-119.103 -41.645,-185.68 152.429,-127.916C177.898,-120.335 211.581,-173.998 190.081,-177.498C134.226,-186.591 47.427,-200.858 26.121,-221.55C6.584,-240.522 -5.394,-261.874 -5.394,-261.874L5.87,-367.993C5.87,-367.993 9.527,-379.667 35.723,-372.343" clip-rule="nonzero"/>
                </clipPath>
                <g clip-path="url(#_clip3)">
                    <g transform="matrix(2.06448,0.598122,-0.573816,1.98058,-71.3199,-645.856)">
                        <path d="M139.658,316.697C222.844,279.079 302.805,205.168 254.878,113.422C323.863,143.443 296.257,334.41 204.857,344.661L139.658,316.697Z" style="fill:rgb(226,137,64);"/>
                    </g>
                    <g transform="matrix(1.88885,-0.33375,0.249196,1.41032,-266.426,-527.801)">
                        <path d="M171.456,293.139C171.456,293.139 184.007,280.538 214.591,304.15C236.544,321.1 251.592,321.018 251.678,319.738C224.812,338.975 196.556,297.661 193.876,316.103L171.456,293.139Z" style="fill:rgb(226,137,64);"/>
                    </g>
                    <g transform="matrix(1.22689,-0.263918,0.180841,0.840685,118.789,-470.486)">
                        <path d="M173.278,287.811C204.649,280.512 262.329,218.722 254.669,196.614C259.655,204.884 272.672,262.158 192.332,292.397L173.278,287.811Z" style="fill:rgb(226,137,64);"/>
                    </g>
                </g>
            </g>
            <g transform="matrix(-0.430697,0.765612,0.764046,0.431579,-46.8767,136.48)">
                <path d="M6.534,-21.372C12.982,-21.345 18.21,-16.092 18.21,-9.639C18.21,-3.185 12.982,2.024 6.534,1.998C0.086,1.971 -5.142,-3.282 -5.142,-9.735C-5.142,-16.189 0.086,-21.398 6.534,-21.372" style="fill:rgb(35,31,32);fill-rule:nonzero;"/>
            </g>
            <g transform="matrix(-0.674369,1.36144,1.39286,0.692759,161.939,113.391)">
                <path d="M22.091,-41.365C39.547,-40.883 51.156,-22.317 50.826,-9.19C50.495,3.938 39.547,13.353 22.091,12.87C4.636,12.387 -13.9,-5.223 -11.585,-21.889C-9.772,-34.939 1.115,-41.945 22.091,-41.365" style="fill:rgb(47,47,47);fill-rule:nonzero;stroke:rgb(27,32,49);stroke-width:4.01px;"/>
            </g>
            <g transform="matrix(0.764451,0.0767748,-0.100774,0.997719,-51.6808,213.615)">
                <path d="M0,-43.055C3.257,-29.52 10.07,-17.534 18.224,-6.722C23.111,-0.24 30.447,11.85 38.627,3.976C44.611,-1.784 49.14,-9.846 53.623,-16.962C57.471,-23.072 59.867,-29.894 61.193,-30.228C62.518,-30.561 74.544,-13.556 84.549,-1.539C85.299,-0.639 91.689,7.71 96.762,6.879C103.268,5.814 104.655,1.773 107.106,-1.213C112.371,-7.624 115.499,-12.254 120.354,-19.036C123.141,-22.929 125.904,-26.847 128.549,-30.857C130.261,-33.451 132.373,-36.289 133.354,-39.351C136.324,-48.62 123.07,-54.335 120.1,-45.065C119.638,-43.624 120.442,-45.628 120.311,-45.41C119.962,-44.835 119.645,-44.236 119.298,-43.66C118.232,-41.892 117.088,-40.18 115.943,-38.476C112.909,-33.963 109.763,-29.54 106.583,-25.151C103.526,-20.931 100.432,-16.742 97.262,-12.624C96.061,-11.063 94.226,-11.395 92.879,-12.9C88.986,-17.248 84.617,-22.132 80.866,-26.624C75.193,-33.418 71.132,-40.108 64.488,-46.259C61.565,-48.966 55.366,-47.775 53.358,-44.609C49.585,-38.661 47.424,-32.959 44.013,-26.749C41.7,-22.54 35.726,-11.118 33.48,-11.215C31.563,-11.298 28.662,-16.69 26.554,-19.655C21.092,-27.336 16.16,-35.913 13.894,-45.33C11.589,-54.905 -2.324,-52.712 0,-43.055" style="fill:rgb(47,47,47);fill-rule:nonzero;stroke:rgb(27,32,49);stroke-width:6.85px;"/>
            </g>
            <g transform="matrix(1.45899,0,0,1.45899,-169.516,-69.123)">
                <path d="M414.659,180.579C429.739,223.286 438.377,269.801 438.377,313.425C438.377,444.943 359.874,500.704 263.18,500.704C166.487,500.704 61.458,454.716 61.458,323.198C61.458,289.924 67.429,284.293 76.501,250.64L167.651,307.107L217.852,255.99L343.854,286.969L414.659,180.579Z" style="fill:rgb(255,232,204);"/>
                <clipPath id="_clip4">
                    <path d="M414.659,180.579C429.739,223.286 438.377,269.801 438.377,313.425C438.377,444.943 359.874,500.704 263.18,500.704C166.487,500.704 61.458,454.716 61.458,323.198C61.458,289.924 67.429,284.293 76.501,250.64L167.651,307.107L217.852,255.99L343.854,286.969L414.659,180.579Z"/>
                </clipPath>
                <g clip-path="url(#_clip4)">
                    <g transform="matrix(1.10098,0,0,1.10098,-16.275,-64.5724)">
                        <path d="M112.348,476.057C252.147,506.845 374.408,439.662 402.51,247.058C402.51,247.058 509.547,505.67 439.026,499.447C327.671,603.486 197.927,581.092 112.348,476.057Z" style="fill:rgb(244,198,200);"/>
                    </g>
                    <g transform="matrix(0.97495,0,0,0.97495,44.104,-3.00571)">
                        <path d="M71.659,466.557C24.426,344.328 64.188,224.323 116.172,198.397L-37.932,182.368C-20.14,295.085 -44.243,400.124 71.659,466.557Z" style="fill:rgb(253,244,233);"/>
                    </g>
                    <g transform="matrix(0.97495,0,0,0.97495,251.399,33.6284)">
                        <path d="M-92.043,293.081C-92.043,293.081 -69.104,240.416 -27.677,205.106L-179.362,223.279C-104.895,266.674 -92.043,293.081 -92.043,293.081Z" style="fill:rgb(244,198,200);"/>
                    </g>
                    <g transform="matrix(0.97495,0,0,0.97495,389.1,21.7339)">
                        <path d="M-46.449,290.265C-46.449,290.265 -43.296,243.349 -45.86,193.962L-174.23,238.676C-71.601,280.479 -58.447,279.465 -46.449,290.265Z" style="fill:rgb(244,198,200);"/>
                    </g>
                </g>
            </g>
            <g transform="matrix(0.806615,0.754502,-0.389346,0.417924,281.12,-139.717)">
                <path d="M110.419,184.263C140.46,96.608 197.642,24.117 263.18,24.117C318.479,24.117 367.829,75.725 399.941,144.501L341.23,235.829L233.83,172.06L166.705,252.61L110.419,184.263Z" style="fill:rgb(255,232,204);"/>
                <clipPath id="_clip5">
                    <path d="M110.419,184.263C140.46,96.608 197.642,24.117 263.18,24.117C318.479,24.117 367.829,75.725 399.941,144.501L341.23,235.829L233.83,172.06L166.705,252.61L110.419,184.263Z"/>
                </clipPath>
                <g clip-path="url(#_clip5)">
                    <g transform="matrix(1.04813,-1.70678,0.882349,2.02747,-290.293,566.024)">
                        <path d="M314.05,72.557L313.164,131.478L349.823,132.394L314.05,72.557Z" style="fill:rgb(244,198,200);"/>
                    </g>
                    <g transform="matrix(1.04813,-1.70678,0.882349,2.02747,-168.971,543.084)">
                        <path d="M314.997,81.072L313.164,131.478L393.813,169.053L314.997,81.072Z" style="fill:rgb(244,198,200);"/>
                    </g>
                    <g transform="matrix(1.04813,-1.70678,0.882349,2.02747,-168.971,543.084)">
                        <path d="M353.286,140.383L343.57,194.543L429.85,154.413L353.286,140.383Z" style="fill:rgb(244,198,200);"/>
                    </g>
                    <g transform="matrix(1.04813,-1.70678,0.882349,2.02747,-350.809,585.601)">
                        <path d="M357.515,136.731L343.57,194.543L428.12,155.182L357.515,136.731Z" style="fill:rgb(244,198,200);"/>
                    </g>
                </g>
            </g>
        </g>
    </g>
</svg>
