<?xml version="1.0" encoding="UTF-8" standalone="no"?>
<!DOCTYPE svg PUBLIC "-//W3C//DTD SVG 1.1//EN" "http://www.w3.org/Graphics/SVG/1.1/DTD/svg11.dtd">
<svg width="100%" height="100%" viewBox="0 0 512 512" version="1.1" xmlns="http://www.w3.org/2000/svg" xmlns:xlink="http://www.w3.org/1999/xlink" xml:space="preserve" xmlns:serif="http://www.serif.com/" style="fill-rule:evenodd;clip-rule:evenodd;stroke-miterlimit:10;">
    <g transform="matrix(1,0,0,1,42.8599,460.333)">
        <path d="M0,-376.63C26.196,-369.305 26.175,-348.569 26.175,-348.569L88.576,-360.715C88.576,-360.715 112.238,-400.262 144.161,-392.239C156.256,-391.977 169.436,-387.44 234.189,-391.344C239.54,-391.666 245.856,-389.853 251.308,-391.941C313.084,-415.591 379.617,-445.246 379.617,-445.246C379.617,-445.246 415.678,-392.396 336.883,-343.999C336.883,-342.458 336.633,-344.289 337.633,-342.333C339.515,-342.541 348.864,-344.589 464.958,-383.307C464.958,-383.307 494.64,-309.333 391.754,-275.518C380.92,-271.351 386.023,-263.078 390.14,-253.833C407.412,-215.048 403.14,-160.833 389.64,-102.333C375.458,-40.873 324.826,29.116 312.598,40.316C188.081,68.616 65.657,-19.434 89.138,-38.956C120.717,-65.21 161.7,-99.531 178.78,-123.333C194.272,-144.923 211.64,-193.897 190.14,-197.397C134.285,-206.49 5.243,-183.968 -16.063,-204.66C-35.6,-223.632 -41.117,-266.161 -41.117,-266.161L-29.853,-372.28C-29.853,-372.28 -26.196,-383.954 0,-376.63" style="fill:rgb(255,186,0);fill-rule:nonzero;"/>
    </g>
    <g transform="matrix(0,73.4786,71.0434,0,255.999,190.522)">
        <ellipse cx="0" cy="0" rx="1" ry="1" style="fill:url(#_Radial1);"/>
    </g>
    <g transform="matrix(-0.829036,0.559195,0.559195,0.829036,48.2208,113.618)">
        <path d="M6.534,-21.372C12.982,-21.345 18.21,-16.092 18.21,-9.639C18.21,-3.185 12.982,2.024 6.534,1.998C0.086,1.971 -5.142,-3.282 -5.142,-9.735C-5.142,-16.189 0.086,-21.398 6.534,-21.372" style="fill:rgb(35,31,32);fill-rule:nonzero;"/>
    </g>
    <g transform="matrix(-0.242536,0.970143,0.970143,0.242536,223.866,138.547)">
        <path d="M13.585,-46.974C16.432,-54.239 42.936,-38.908 42.572,-25.782C41.962,-3.802 19.568,14.307 13.585,2.503C10.247,-4.082 36.309,-9.538 30.832,-25.447C26.543,-37.905 8.936,-35.112 13.585,-46.974" style="fill:rgb(47,47,47);fill-rule:nonzero;"/>
    </g>
    <g transform="matrix(-0.242536,0.970143,0.970143,0.242536,223.866,138.547)">
        <path d="M13.585,-46.974C16.432,-54.239 42.936,-38.908 42.572,-25.782C41.962,-3.802 19.568,14.307 13.585,2.503C10.247,-4.082 36.309,-9.538 30.832,-25.447C26.543,-37.905 8.936,-35.112 13.585,-46.974Z" style="fill:none;fill-rule:nonzero;stroke:rgb(27,32,49);stroke-width:5px;"/>
    </g>
    <g transform="matrix(1,0,0,1,2.0039,234.417)">
        <path d="M0,-43.055C3.257,-29.52 10.07,-17.534 18.224,-6.722C23.111,-0.24 30.447,11.85 38.627,3.976C44.611,-1.784 49.14,-9.846 53.623,-16.962C57.471,-23.072 59.867,-29.894 61.193,-30.228C62.518,-30.561 74.544,-13.556 84.549,-1.539C85.299,-0.639 91.689,7.71 96.762,6.879C103.268,5.814 104.655,1.773 107.106,-1.213C112.371,-7.624 115.499,-12.254 120.354,-19.036C123.141,-22.929 125.904,-26.847 128.549,-30.857C130.261,-33.451 132.373,-36.289 133.354,-39.351C136.324,-48.62 123.07,-54.335 120.1,-45.065C119.638,-43.624 120.442,-45.628 120.311,-45.41C119.962,-44.835 119.645,-44.236 119.298,-43.66C118.232,-41.892 117.088,-40.18 115.943,-38.476C112.909,-33.963 109.763,-29.54 106.583,-25.151C103.526,-20.931 100.432,-16.742 97.262,-12.624C96.061,-11.063 94.226,-11.395 92.879,-12.9C88.986,-17.248 84.617,-22.132 80.866,-26.624C75.193,-33.418 71.132,-40.108 64.488,-46.259C61.565,-48.966 55.366,-47.775 53.358,-44.609C49.585,-38.661 47.424,-32.959 44.013,-26.749C41.7,-22.54 35.726,-11.118 33.48,-11.215C31.563,-11.298 28.662,-16.69 26.554,-19.655C21.092,-27.336 16.16,-35.913 13.894,-45.33C11.589,-54.905 -2.324,-52.712 0,-43.055" style="fill:rgb(47,47,47);fill-rule:nonzero;"/>
    </g>
    <g transform="matrix(1,0,0,1,2.0039,234.417)">
        <path d="M0,-43.055C3.257,-29.52 10.07,-17.534 18.224,-6.722C23.111,-0.24 30.447,11.85 38.627,3.976C44.611,-1.784 49.14,-9.846 53.623,-16.962C57.471,-23.072 59.867,-29.894 61.193,-30.228C62.518,-30.561 74.544,-13.556 84.549,-1.539C85.299,-0.639 91.689,7.71 96.762,6.879C103.268,5.814 104.655,1.773 107.106,-1.213C112.371,-7.624 115.499,-12.254 120.354,-19.036C123.141,-22.929 125.904,-26.847 128.549,-30.857C130.261,-33.451 132.373,-36.289 133.354,-39.351C136.324,-48.62 123.07,-54.335 120.1,-45.065C119.638,-43.624 120.442,-45.628 120.311,-45.41C119.962,-44.835 119.645,-44.236 119.298,-43.66C118.232,-41.892 117.088,-40.18 115.943,-38.476C112.909,-33.963 109.763,-29.54 106.583,-25.151C103.526,-20.931 100.432,-16.742 97.262,-12.624C96.061,-11.063 94.226,-11.395 92.879,-12.9C88.986,-17.248 84.617,-22.132 80.866,-26.624C75.193,-33.418 71.132,-40.108 64.488,-46.259C61.565,-48.966 55.366,-47.775 53.358,-44.609C49.585,-38.661 47.424,-32.959 44.013,-26.749C41.7,-22.54 35.726,-11.118 33.48,-11.215C31.563,-11.298 28.662,-16.69 26.554,-19.655C21.092,-27.336 16.16,-35.913 13.894,-45.33C11.589,-54.905 -2.324,-52.712 0,-43.055Z" style="fill:none;fill-rule:nonzero;stroke:rgb(27,32,49);stroke-width:4px;"/>
    </g>
    <defs>
        <radialGradient id="_Radial1" cx="0" cy="0" r="1" gradientUnits="userSpaceOnUse" gradientTransform="matrix(0,1,1,0,-8.49688e-06,8.49688e-06)"><stop offset="0" style="stop-color:rgb(247,148,29);stop-opacity:1"/><stop offset="1" style="stop-color:rgb(255,186,0);stop-opacity:1"/></radialGradient>
    </defs>
</svg>
