<?xml version="1.0" encoding="UTF-8" standalone="no"?>
<!DOCTYPE svg PUBLIC "-//W3C//DTD SVG 1.1//EN" "http://www.w3.org/Graphics/SVG/1.1/DTD/svg11.dtd">
<svg width="100%" height="100%" viewBox="0 0 512 512" version="1.1" xmlns="http://www.w3.org/2000/svg" xmlns:xlink="http://www.w3.org/1999/xlink" xml:space="preserve" xmlns:serif="http://www.serif.com/" style="fill-rule:evenodd;clip-rule:evenodd;stroke-linejoin:round;stroke-miterlimit:2;">
    <rect id="Artboard1" x="0" y="0" width="512" height="512" style="fill:none;"/>
    <clipPath id="_clip1">
        <rect id="Artboard11" serif:id="Artboard1" x="0" y="0" width="512" height="512"/>
    </clipPath>
    <g clip-path="url(#_clip1)">
        <g id="Layer-2" serif:id="Layer 2" transform="matrix(0.986231,-0.165374,0.165374,0.986231,-12.596,59.009)">
            <g transform="matrix(1,0,0,1,42.8599,460.333)">
                <path d="M53.599,-389.53C73.624,-385.217 76.338,-378.081 77.477,-367.537L143.252,-373.048C143.252,-373.048 154.833,-401.566 186.756,-393.543C198.851,-393.281 209.547,-395.675 221.15,-395.053C232.545,-394.443 238.419,-395.672 241.237,-397.11C296.982,-425.566 346.762,-454.963 346.762,-454.963C346.762,-454.963 374.609,-418.863 331.037,-353.541C331.227,-352.16 333.645,-350.948 334.645,-348.992C336.527,-349.2 455.116,-379.106 464.958,-383.307C464.958,-383.307 494.64,-309.333 391.754,-275.518C380.92,-271.351 386.023,-263.078 390.14,-253.833C407.412,-215.048 403.14,-160.833 389.64,-102.333C375.458,-40.873 324.826,29.116 312.598,40.316C188.081,68.616 65.657,-19.434 89.138,-38.956C120.717,-65.21 161.7,-99.531 178.78,-123.333C194.272,-144.923 211.64,-193.897 190.14,-197.397C134.285,-206.49 57.387,-242.198 30.351,-254.492C6.602,-265.292 3.872,-304.494 3.872,-304.494L16.651,-382.78C16.651,-382.78 27.008,-395.257 53.599,-389.53Z" style="fill:rgb(255,186,0);fill-rule:nonzero;"/>
                <clipPath id="_clip2">
                    <path d="M53.599,-389.53C73.624,-385.217 76.338,-378.081 77.477,-367.537L143.252,-373.048C143.252,-373.048 154.833,-401.566 186.756,-393.543C198.851,-393.281 209.547,-395.675 221.15,-395.053C232.545,-394.443 238.419,-395.672 241.237,-397.11C296.982,-425.566 346.762,-454.963 346.762,-454.963C346.762,-454.963 374.609,-418.863 331.037,-353.541C331.227,-352.16 333.645,-350.948 334.645,-348.992C336.527,-349.2 455.116,-379.106 464.958,-383.307C464.958,-383.307 494.64,-309.333 391.754,-275.518C380.92,-271.351 386.023,-263.078 390.14,-253.833C407.412,-215.048 403.14,-160.833 389.64,-102.333C375.458,-40.873 324.826,29.116 312.598,40.316C188.081,68.616 65.657,-19.434 89.138,-38.956C120.717,-65.21 161.7,-99.531 178.78,-123.333C194.272,-144.923 211.64,-193.897 190.14,-197.397C134.285,-206.49 57.387,-242.198 30.351,-254.492C6.602,-265.292 3.872,-304.494 3.872,-304.494L16.651,-382.78C16.651,-382.78 27.008,-395.257 53.599,-389.53Z" clip-rule="nonzero"/>
                </clipPath>
                <g clip-path="url(#_clip2)">
                    <g transform="matrix(0.940592,0.190222,-0.275136,1.36046,280.333,-699.198)">
                        <path d="M166.443,277.389C181.218,272.332 258.293,232.953 254.669,196.614C259.655,204.884 307.228,248.691 198.455,285.598L166.443,277.389Z" style="fill:rgb(226,137,64);"/>
                    </g>
                    <g transform="matrix(0.97198,0.345167,-0.33114,0.932482,179.894,-341.427)">
                        <path d="M7.386,355.225C61.936,309.024 309.782,374.633 240.751,40.815C335.248,112.167 299.443,364.018 208.043,374.269L7.386,355.225Z" style="fill:rgb(226,137,64);"/>
                    </g>
                    <g transform="matrix(1.1447,-0.517762,0.751929,1.66242,-222.234,-587.223)">
                        <path d="M158.292,279.275C158.292,279.275 206.501,293.21 225.009,294.923C229.221,295.313 243.718,299.516 267.389,286.649C241.314,310.696 206.133,303.53 203.453,321.972L158.292,279.275Z" style="fill:rgb(226,137,64);"/>
                    </g>
                </g>
            </g>
            <g transform="matrix(0.884866,3.92773e-17,-4.31043e-17,1.12563,4.9871,-7.00863)">
                <path d="M438.013,251.91L34.404,179.848L11.291,182.435L-26.64,366.961L387.817,439.343L400.096,433.064L438.013,251.91Z" style="fill:rgb(27,32,49);"/>
            </g>
            <g transform="matrix(0.802347,0,-5.55112e-17,1,18.1007,37.1168)">
                <path d="M437.506,251.35L11.425,175.53L-27.305,360.147L398.775,435.967L437.506,251.35Z" style="fill:rgb(245,243,238);"/>
            </g>
            <g transform="matrix(1,5.55112e-17,-5.55112e-17,1,42.8599,460.333)">
                <path d="M279.489,-209.857C278.599,-210.515 278.4,-203.734 263.423,-204.284C249.09,-204.81 152.793,-219.628 126.635,-225.048C108.676,-228.769 80.452,-224.688 57.997,-229.873C18.868,-238.91 -1.29,-281.785 3.933,-304.529C3.933,-304.529 161.56,-281.857 165.677,-272.612C170.604,-261.547 173.779,-249.226 175.429,-235.905L211.766,-222.292L279.489,-209.857Z" style="fill:rgb(255,186,0);"/>
                <clipPath id="_clip3">
                    <path d="M279.489,-209.857C278.599,-210.515 278.4,-203.734 263.423,-204.284C249.09,-204.81 152.793,-219.628 126.635,-225.048C108.676,-228.769 80.452,-224.688 57.997,-229.873C18.868,-238.91 -1.29,-281.785 3.933,-304.529C3.933,-304.529 161.56,-281.857 165.677,-272.612C170.604,-261.547 173.779,-249.226 175.429,-235.905L211.766,-222.292L279.489,-209.857Z"/>
                </clipPath>
                <g clip-path="url(#_clip3)">
                    <g transform="matrix(1.1447,-0.517762,0.751929,1.66242,-222.234,-587.223)">
                        <path d="M149.775,268.355C149.775,268.355 188.331,285.748 217.05,292.984C220.208,293.78 228.257,295.562 233.834,295.172C252.175,293.887 267.776,287.979 267.848,286.893C281.019,314.472 253.899,321.169 251.219,339.61L149.775,268.355Z" style="fill:rgb(226,137,64);"/>
                    </g>
                </g>
            </g>
            <g transform="matrix(-0.829036,0.559195,0.559195,0.829036,96.2894,101.169)">
                <path d="M6.534,-21.372C12.982,-21.345 18.21,-16.092 18.21,-9.639C18.21,-3.185 12.982,2.024 6.534,1.998C0.086,1.971 -5.142,-3.282 -5.142,-9.735C-5.142,-16.189 0.086,-21.398 6.534,-21.372" style="fill:rgb(35,31,32);fill-rule:nonzero;"/>
            </g>
            <g transform="matrix(0.410003,0.0882034,-0.0916527,0.532542,16.031,178.932)">
                <path d="M113.759,128.324C113.086,128.324 112.431,128.537 111.945,128.915C111.458,129.292 111.183,129.801 111.183,130.323L111.183,181.229C111.183,182.258 112.229,183.07 113.554,183.07L176.152,183.07C176.152,183.07 176.152,336.479 176.152,336.479C176.152,337.508 177.198,338.32 178.523,338.32L242.226,338.32C242.899,338.32 243.555,338.106 244.041,337.729C244.527,337.352 244.802,336.843 244.802,336.32L244.802,183.07C244.802,183.07 307.195,183.07 307.195,183.07C307.868,183.07 308.524,182.856 309.01,182.479C309.496,182.102 309.771,181.593 309.771,181.07L309.771,130.164C309.771,129.136 308.725,128.324 307.4,128.324L113.759,128.324Z" style="fill:rgb(27,32,49);fill-rule:nonzero;"/>
                <g transform="matrix(1,-1.38778e-17,0,1,-2.23415,0.0963274)">
                    <path d="M336.506,128.392C335.856,128.392 335.224,128.597 334.755,128.961C334.286,129.326 334.02,129.816 334.02,130.32L334.02,336.477C334.02,337.469 335.03,338.252 336.308,338.252L400.011,338.252C400.661,338.252 401.293,338.046 401.762,337.682C402.231,337.318 402.496,336.827 402.496,336.323L402.496,254.861C402.496,254.861 467.333,254.861 467.333,254.861C467.333,254.861 467.333,336.477 467.333,336.477C467.333,337.469 468.342,338.252 469.62,338.252L533.605,338.252C534.254,338.252 534.887,338.046 535.356,337.682C535.825,337.318 536.09,336.827 536.09,336.323L536.09,130.167C536.09,129.175 535.081,128.392 533.803,128.392L469.818,128.392C469.169,128.392 468.536,128.597 468.067,128.961C467.598,129.326 467.333,129.816 467.333,130.32L467.333,200.532C467.333,200.532 402.496,200.532 402.496,200.532C402.496,200.532 402.496,130.167 402.496,130.167C402.496,129.175 401.487,128.392 400.209,128.392L336.506,128.392Z" style="fill:rgb(27,32,49);fill-rule:nonzero;"/>
                </g>
                <path d="M562.068,128.392C561.225,128.392 560.426,128.737 559.967,129.301C559.508,129.865 559.457,130.563 559.832,131.136L623.933,229.026C623.933,229.026 553.387,335.608 553.387,335.608C553.007,336.182 553.025,336.855 553.433,337.391C553.842,337.927 554.585,338.252 555.402,338.252L626.558,338.252C627.506,338.252 628.388,337.815 628.803,337.14L667.325,274.467C667.325,274.467 705.917,337.253 705.917,337.253C706.294,337.867 707.09,338.252 707.98,338.252L779.558,338.252C780.402,338.252 781.203,337.905 781.661,337.34C782.12,336.775 782.169,336.075 781.79,335.502L712.117,230.008C712.117,230.008 775.737,131.015 775.737,131.015C776.105,130.441 776.08,129.774 775.67,129.243C775.26,128.712 774.521,128.392 773.709,128.392L704.24,128.392C703.26,128.392 702.355,128.857 701.959,129.566L668.643,189.071C668.643,189.071 634.327,129.431 634.327,129.431C633.961,128.795 633.151,128.392 632.24,128.392L562.068,128.392Z" style="fill:rgb(27,32,49);fill-rule:nonzero;"/>
            </g>
            <g transform="matrix(0.836416,0.165617,-0.161335,0.814794,61.8805,192.581)">
                <path d="M0,-43.055C3.257,-29.52 10.07,-17.534 18.224,-6.722C23.111,-0.24 32.775,14.673 40.182,8.117C45.6,3.321 49.709,-3.382 53.774,-9.301C57.263,-14.383 59.442,-20.052 60.64,-20.332C61.838,-20.612 72.667,-6.519 81.681,3.437C82.357,4.182 90.572,11.051 95.196,10.717C103.001,10.154 106.039,3.304 108.49,0.318C113.755,-6.093 116.106,-10.755 120.776,-17.672C125.027,-23.969 125.904,-26.847 128.549,-30.857C130.261,-33.451 132.373,-36.289 133.354,-39.351C136.324,-48.62 125.835,-57.429 118.991,-46.981C118.623,-46.419 115.768,-41.751 114.623,-40.047C111.589,-35.534 100.432,-16.742 97.262,-12.624C96.061,-11.063 94.226,-11.395 92.879,-12.9C88.986,-17.248 84.617,-22.132 80.866,-26.624C75.193,-33.418 71.132,-40.108 64.488,-46.259C61.565,-48.966 55.366,-47.775 53.358,-44.609C49.585,-38.661 47.424,-32.959 44.013,-26.749C41.7,-22.54 36.817,-14.837 34.571,-14.934C32.654,-15.017 29.753,-20.409 27.645,-23.374C22.183,-31.055 21.064,-40.239 15.709,-48.825C10.529,-57.132 -2.324,-52.712 0,-43.055" style="fill:rgb(47,47,47);fill-rule:nonzero;stroke:rgb(27,32,49);stroke-width:4.75px;"/>
            </g>
            <g transform="matrix(0.198801,-0.909599,-1.26669,-0.276846,226.284,193.418)">
                <path d="M15.658,-49.836C19.311,-56.309 61.165,-48.488 62.181,-24.227C62.68,-12.324 28.254,8.019 22.81,-3.918C19.026,-12.216 42.084,-16.67 41.389,-25.403C40.217,-40.125 8.421,-37.01 15.658,-49.836Z" style="fill:rgb(47,47,47);fill-rule:nonzero;stroke:rgb(27,32,49);stroke-width:3.52px;"/>
            </g>
        </g>
        <g transform="matrix(-0.365897,1.12526,1.12526,0.365897,58.1591,25.6122)">
            <path d="M255.597,397.058C257.214,425.986 202.723,413.632 202.723,413.632C202.723,413.632 164.649,391.584 160.666,369.445C157.443,351.535 182.877,333.943 182.877,333.943C187.244,349.841 190.089,348.663 202.653,329.901C202.653,329.901 205.538,353.666 210.047,355.527C214.557,357.388 229.708,341.066 229.708,341.066C229.708,341.066 224.126,383.815 230.789,380.935C242.029,376.076 254.934,385.181 255.597,397.058Z" style="fill:rgb(255,186,0);"/>
        </g>
        <g transform="matrix(-0.365897,1.12526,1.12526,0.365897,58.1591,25.6122)">
            <path d="M257.429,396.956C257.096,390.428 253.415,384.633 248.251,381.143C243.142,377.689 236.605,376.507 230.47,378.958C230.453,378.924 230.437,378.89 230.424,378.859C230.242,378.42 230.101,377.868 229.98,377.228C229.47,374.521 229.404,370.447 229.545,366.021C229.904,354.777 231.66,341.321 231.66,341.321C231.771,340.471 231.32,339.648 230.545,339.284C229.77,338.92 228.848,339.099 228.265,339.726C228.265,339.726 222.839,345.581 217.57,349.808C215.646,351.352 213.755,352.682 212.182,353.355C211.818,353.511 211.478,353.629 211.165,353.688C211.022,353.715 210.897,353.764 210.793,353.721C210.64,353.658 210.531,353.484 210.388,353.296C210.16,352.994 209.941,352.624 209.726,352.201C208.861,350.502 208.1,348.064 207.435,345.432C205.619,338.254 204.567,329.668 204.567,329.668C204.47,328.868 203.885,328.213 203.101,328.025C202.317,327.838 201.499,328.158 201.051,328.828C196.926,335.002 193.895,339.238 191.503,341.526C190.577,342.412 189.852,342.999 189.152,343.082C188.899,343.113 188.695,342.973 188.483,342.769C188.239,342.535 188.01,342.227 187.78,341.856C186.718,340.143 185.773,337.329 184.701,333.442C184.538,332.851 184.099,332.376 183.523,332.166C182.948,331.957 182.306,332.039 181.802,332.388C181.802,332.388 169.82,340.706 163.104,351.795C159.752,357.33 157.723,363.542 158.85,369.772C160.23,377.429 165.461,385.111 171.917,391.911C184.564,405.233 201.804,415.218 201.804,415.218C201.964,415.311 202.137,415.379 202.318,415.42C202.318,415.42 203.437,415.983 205.434,416.032C205.559,416.035 205.667,416.004 205.797,415.986C207.251,415.786 208.786,415.531 210.843,415.179C210.981,415.156 211.099,415.117 211.241,415.114L211.242,415.115C211.323,415.139 211.411,415.139 211.496,415.151C212.307,415.267 213.159,415.382 214.045,415.488C221.819,416.418 232.227,416.902 240.684,414.772C249.493,412.554 256.187,407.48 255.597,397.058L255.619,397.542C255.962,407.628 249.34,412.56 240.675,414.737C232.221,416.861 221.824,416.346 214.048,415.458C213.162,415.357 212.309,415.254 211.497,415.148C211.411,415.137 211.327,415.113 211.242,415.114L211.241,415.114C211.105,415.074 211.002,415.004 210.877,414.943C209.022,414.045 207.68,413.295 206.404,412.61C206.291,412.55 206.205,412.482 206.09,412.441C204.706,411.957 203.694,411.865 203.305,411.848C200.88,410.407 185.852,401.26 174.583,389.381C168.659,383.135 163.744,376.149 162.481,369.118C161.524,363.77 163.401,358.471 166.288,353.727C170.93,346.098 178.23,339.878 181.818,337.087C183.056,341.12 184.271,343.825 185.577,345.239C186.79,346.552 188.129,347.04 189.6,346.867C190.897,346.715 192.422,345.926 194.14,344.29C196.088,342.435 198.46,339.377 201.443,335.094C202.062,339.044 203.072,344.63 204.396,349.081C205.083,351.39 205.866,353.407 206.704,354.804C207.499,356.129 208.42,356.969 209.302,357.334C210.233,357.719 211.45,357.738 212.858,357.278C214.317,356.801 216.091,355.78 217.951,354.443C221.078,352.196 224.508,349.046 227.088,346.532C226.295,353.867 225.146,366.574 225.703,374.423C225.847,376.449 226.11,378.174 226.495,379.45C226.847,380.618 227.335,381.478 227.868,382.021C228.879,383.05 230.096,383.36 231.562,382.723C236.555,380.554 241.916,381.533 246.113,384.329C250.352,387.153 253.441,391.829 253.765,397.16L257.429,396.956Z" style="fill:rgb(27,32,49);"/>
        </g>
        <g transform="matrix(0.639564,0.995516,-0.995516,0.639564,277.673,-56.5248)">
            <path d="M240.457,402.649C234.38,418.068 222.884,409.754 222.884,409.754C222.884,409.754 170.101,382.185 166.117,360.046C162.894,342.137 181.267,333.71 181.267,333.71C179.628,350.115 184.913,356.242 203.382,343.249C203.382,343.249 199.792,356.375 203.331,359.732C206.87,363.089 222.409,357.189 222.409,357.189C222.409,357.189 223.539,380.573 230.789,380.935C240.785,381.434 242.73,396.881 240.457,402.649Z" style="fill:rgb(255,186,0);"/>
            <clipPath id="_clip4">
                <path d="M240.457,402.649C234.38,418.068 222.884,409.754 222.884,409.754C222.884,409.754 170.101,382.185 166.117,360.046C162.894,342.137 181.267,333.71 181.267,333.71C179.628,350.115 184.913,356.242 203.382,343.249C203.382,343.249 199.792,356.375 203.331,359.732C206.87,363.089 222.409,357.189 222.409,357.189C222.409,357.189 223.539,380.573 230.789,380.935C240.785,381.434 242.73,396.881 240.457,402.649Z"/>
            </clipPath>
            <g clip-path="url(#_clip4)">
                <g transform="matrix(-0.0210914,-1.06157,1.54168,-0.0306304,-205.372,603.07)">
                    <path d="M158.292,279.275C158.292,279.275 169.259,284.784 187.767,286.497C191.98,286.887 193.652,277.057 223.231,278.382C197.156,302.429 197.138,293.567 194.458,312.009L158.292,279.275Z" style="fill:rgb(226,137,64);"/>
                </g>
            </g>
        </g>
        <g transform="matrix(0.639564,0.995516,-0.995516,0.639564,277.673,-56.5248)">
            <path d="M205.126,399.324L205.124,399.323C203.621,398.747 202.234,399.042 200.63,398.507C200.479,398.457 200.344,398.376 200.206,398.297C199.486,397.883 198.813,397.374 198.112,396.899C193.114,393.514 187.927,389.7 183.16,385.68C173.574,377.594 165.778,368.579 164.301,360.373C163.038,353.407 164.798,347.761 167.565,343.384C172.427,335.693 180.479,331.992 180.479,331.992C181.095,331.71 181.814,331.779 182.366,332.172C182.917,332.566 183.215,333.224 183.148,333.898C182.723,338.206 182.774,341.759 183.493,344.372C184.07,346.464 185.063,347.874 186.813,348.242C188.038,348.5 189.533,348.301 191.34,347.707C194.266,346.746 197.869,344.761 202.264,341.66C202.934,341.189 203.828,341.189 204.498,341.659C205.168,342.13 205.471,342.971 205.255,343.761C205.255,343.761 203.87,348.837 203.735,353.354C203.697,354.63 203.755,355.857 204.006,356.882C204.15,357.468 204.331,357.982 204.679,358.311C205.049,358.662 205.68,358.727 206.411,358.779C207.648,358.867 209.129,358.716 210.666,358.454C215.889,357.563 221.71,355.349 221.71,355.349C222.299,355.125 222.96,355.197 223.487,355.542C224.015,355.887 224.345,356.464 224.375,357.094C224.375,357.094 224.784,365.639 226.723,372.327C227.314,374.364 228.034,376.225 228.969,377.546C229.525,378.333 230.103,378.948 230.886,378.989C235.555,379.232 238.811,382.123 240.789,386.073C243.612,391.71 243.701,399.485 242.164,403.322L240.457,402.649C238.529,407.555 236.05,410.061 233.566,411.198C228.261,413.626 222.931,409.813 222.872,409.771C222.766,409.716 215.669,406.04 206.558,400.248C206.086,399.948 205.54,399.726 205.129,399.326L205.126,399.324ZM238.75,401.977C239.979,398.806 239.709,392.43 237.351,387.811C235.984,385.133 233.869,383.033 230.691,382.881C229.165,382.808 227.793,382.098 226.611,380.837C225.537,379.692 224.607,378.042 223.849,376.1C221.853,370.984 220.978,363.727 220.636,359.892C217.829,360.821 213.133,362.219 209.234,362.613C207.397,362.8 205.717,362.758 204.417,362.424C203.411,362.165 202.591,361.731 201.983,361.153C200.678,359.912 199.963,357.697 199.841,355.086C199.725,352.635 200.072,349.815 200.478,347.489C197.431,349.36 194.793,350.63 192.536,351.365C189.939,352.209 187.778,352.366 186.02,351.991C183.526,351.46 181.716,349.925 180.561,347.441C179.425,344.999 178.964,341.491 179.132,337.102C176.695,338.695 173.228,341.437 170.718,345.383C168.372,349.072 166.883,353.836 167.933,359.72C168.987,365.586 173.731,371.798 179.902,377.789C186.061,383.767 193.679,389.466 200.806,394.297C201.343,394.66 201.937,394.943 202.406,395.375C202.537,395.496 202.616,395.63 202.72,395.774C203.655,397.055 204.043,398.269 205.126,399.324C205.491,399.464 205.787,399.737 206.113,399.941C215.56,405.867 222.894,409.735 222.894,409.735C222.894,409.736 222.895,409.736 222.896,409.737C222.896,409.737 228.233,413.604 233.557,411.179C236.041,410.048 238.521,407.547 240.457,402.649L238.75,401.977Z" style="fill:rgb(27,32,49);"/>
        </g>
    </g>
</svg>
