<?xml version="1.0" encoding="UTF-8" standalone="no"?>
<!DOCTYPE svg PUBLIC "-//W3C//DTD SVG 1.1//EN" "http://www.w3.org/Graphics/SVG/1.1/DTD/svg11.dtd">
<svg width="100%" height="100%" viewBox="0 0 512 512" version="1.1" xmlns="http://www.w3.org/2000/svg" xmlns:xlink="http://www.w3.org/1999/xlink" xml:space="preserve" xmlns:serif="http://www.serif.com/" style="fill-rule:evenodd;clip-rule:evenodd;stroke-linecap:round;stroke-linejoin:round;stroke-miterlimit:1.5;">
    <rect id="Artboard1" x="0" y="0" width="512" height="512" style="fill:none;"/>
    <clipPath id="_clip1">
        <rect id="Artboard11" serif:id="Artboard1" x="0" y="0" width="512" height="512"/>
    </clipPath>
    <g clip-path="url(#_clip1)">
        <g transform="matrix(1.36711,-0.0407504,-0.0391923,-1.31484,-124.089,-41.0514)">
            <g id="Layer-2" serif:id="Layer 2">
                <path d="M128.097,-384.95C149.995,-374.601 144.048,-358.807 144.048,-358.807L188.918,-363.55C188.918,-363.55 194.565,-379.267 225.216,-377.973C233.263,-378.919 228.745,-376.882 258.661,-379.064C263.41,-379.411 269.41,-377.008 273.873,-379.657C303.771,-397.402 321.558,-432.31 321.558,-432.31C321.558,-432.31 360.802,-412.023 339.836,-356.642C340.077,-355.314 329.456,-340.206 331.153,-339.396C332.379,-340.597 333.815,-341.965 394.739,-423.121C394.739,-423.121 441.495,-378.033 385.848,-296.627C381.737,-288.67 395.51,-268.693 403.104,-261.197C422.035,-242.512 435.533,-269.072 446.747,-257.188C462.229,-240.781 462.528,-128.98 454.184,-113.85C441.357,-90.59 334.714,-78.289 299.081,-139.13C288.102,-157.876 256.612,-219.317 238.271,-225.643C190.622,-242.078 112.568,-222.727 96.92,-243.864C82.571,-263.243 84.446,-263.331 84.446,-263.331L101.343,-384.897C101.343,-384.897 106.199,-395.299 128.097,-384.95" style="fill:rgb(255,186,0);fill-rule:nonzero;"/>
                <clipPath id="_clip2">
                    <path d="M128.097,-384.95C149.995,-374.601 144.048,-358.807 144.048,-358.807L188.918,-363.55C188.918,-363.55 194.565,-379.267 225.216,-377.973C233.263,-378.919 228.745,-376.882 258.661,-379.064C263.41,-379.411 269.41,-377.008 273.873,-379.657C303.771,-397.402 321.558,-432.31 321.558,-432.31C321.558,-432.31 360.802,-412.023 339.836,-356.642C340.077,-355.314 329.456,-340.206 331.153,-339.396C332.379,-340.597 333.815,-341.965 394.739,-423.121C394.739,-423.121 441.495,-378.033 385.848,-296.627C381.737,-288.67 395.51,-268.693 403.104,-261.197C422.035,-242.512 435.533,-269.072 446.747,-257.188C462.229,-240.781 462.528,-128.98 454.184,-113.85C441.357,-90.59 334.714,-78.289 299.081,-139.13C288.102,-157.876 256.612,-219.317 238.271,-225.643C190.622,-242.078 112.568,-222.727 96.92,-243.864C82.571,-263.243 84.446,-263.331 84.446,-263.331L101.343,-384.897C101.343,-384.897 106.199,-395.299 128.097,-384.95" clip-rule="nonzero"/>
                </clipPath>
                <g clip-path="url(#_clip2)">
                    <g transform="matrix(1.42486,-0.271593,0.195032,1.10618,-105.728,-488.231)">
                        <path d="M149.506,282.808C149.506,282.808 167.418,271.886 201.913,281.938C230.392,290.237 256.087,279.682 256.173,278.402C230.098,302.449 197.138,293.567 194.458,312.009L149.506,282.808Z" style="fill:rgb(226,137,64);"/>
                    </g>
                    <g transform="matrix(1.05062,-0.0165228,0.0141661,0.973811,189.724,-575.775)">
                        <path d="M173.278,287.811C188.257,229.146 190.324,171.047 199.901,160.678C204.887,168.948 272.672,262.158 192.332,292.397L173.278,287.811Z" style="fill:rgb(226,137,64);"/>
                    </g>
                    <g transform="matrix(0.961586,0.0192793,-0.0185421,0.999814,113.599,-355.143)">
                        <path d="M0,-19.374C-5.331,-15.746 -6.727,-8.468 -3.119,-3.118C0.49,2.232 7.737,3.628 13.068,0C18.399,-3.628 19.795,-10.906 16.187,-16.256C12.578,-21.606 5.331,-23.002 0,-19.374" style="fill:rgb(35,31,32);fill-rule:nonzero;"/>
                    </g>
                    <g transform="matrix(0.961757,-0.00384434,0.00369735,0.999993,2.84469,-498.45)">
                        <path d="M227.446,190.527L227.652,170.649" style="fill:none;stroke:rgb(35,31,32);stroke-width:19.66px;"/>
                    </g>
                    <g transform="matrix(1.3258,-0.475573,0.477563,0.900911,-44.0375,-457.209)">
                        <path d="M33.991,231.294L78.913,242.293" style="fill:none;stroke:rgb(35,31,32);stroke-width:12.88px;"/>
                    </g>
                </g>
            </g>
        </g>
    </g>
</svg>
