<?xml version="1.0" encoding="UTF-8" standalone="no"?>
<!DOCTYPE svg PUBLIC "-//W3C//DTD SVG 1.1//EN" "http://www.w3.org/Graphics/SVG/1.1/DTD/svg11.dtd">
<svg width="100%" height="100%" viewBox="0 0 512 512" version="1.1" xmlns="http://www.w3.org/2000/svg" xmlns:xlink="http://www.w3.org/1999/xlink" xml:space="preserve" xmlns:serif="http://www.serif.com/" style="fill-rule:evenodd;clip-rule:evenodd;stroke-linejoin:round;stroke-miterlimit:1.41421;">
    <rect id="Artboard1" x="0" y="0" width="512" height="512" style="fill:none;"/>
    <g id="Artboard11" serif:id="Artboard1">
        <g id="Layer-2" serif:id="Layer 2">
            <g transform="matrix(0.999451,-0.033136,0.033136,0.999451,55.1864,466.143)">
                <path d="M-10.111,-376.628C8.549,-375.492 13.392,-359.441 13.392,-359.441L73.934,-396.581C73.934,-396.581 107.729,-436.803 139.652,-428.78C151.747,-428.518 166.754,-438.412 226.124,-422.273C231.297,-420.867 257.276,-407.141 262.976,-408.405C325.438,-422.259 384.241,-442.397 384.241,-442.397C384.241,-442.397 432.341,-396.899 353.546,-348.502C353.546,-346.961 353.296,-348.792 354.296,-346.836C356.178,-347.044 348.864,-344.589 464.958,-383.307C464.958,-383.307 479.547,-299.47 405.029,-279.459C394.195,-275.292 412.22,-262.01 416.337,-252.765C433.609,-213.98 467.453,-104.851 437.697,-53.586C379.353,46.933 343.068,34.747 330.84,45.947C206.323,74.247 65.657,-19.434 89.138,-38.956C120.717,-65.21 165.04,-84.248 186.568,-104.117C216.297,-131.554 215.639,-146.325 193.866,-145.667C75.453,-142.089 5.243,-183.968 -16.063,-204.66C-35.6,-223.632 -41.117,-266.161 -41.117,-266.161L-29.381,-366.198C-29.381,-366.198 -30.33,-377.86 -10.111,-376.628Z" style="fill:rgb(255,186,0);fill-rule:nonzero;"/>
                <clipPath id="_clip1">
                    <path d="M-10.111,-376.628C8.549,-375.492 13.392,-359.441 13.392,-359.441L73.934,-396.581C73.934,-396.581 107.729,-436.803 139.652,-428.78C151.747,-428.518 166.754,-438.412 226.124,-422.273C231.297,-420.867 257.276,-407.141 262.976,-408.405C325.438,-422.259 384.241,-442.397 384.241,-442.397C384.241,-442.397 432.341,-396.899 353.546,-348.502C353.546,-346.961 353.296,-348.792 354.296,-346.836C356.178,-347.044 348.864,-344.589 464.958,-383.307C464.958,-383.307 479.547,-299.47 405.029,-279.459C394.195,-275.292 412.22,-262.01 416.337,-252.765C433.609,-213.98 467.453,-104.851 437.697,-53.586C379.353,46.933 343.068,34.747 330.84,45.947C206.323,74.247 65.657,-19.434 89.138,-38.956C120.717,-65.21 165.04,-84.248 186.568,-104.117C216.297,-131.554 215.639,-146.325 193.866,-145.667C75.453,-142.089 5.243,-183.968 -16.063,-204.66C-35.6,-223.632 -41.117,-266.161 -41.117,-266.161L-29.381,-366.198C-29.381,-366.198 -30.33,-377.86 -10.111,-376.628Z" clip-rule="nonzero"/>
                </clipPath>
                <g clip-path="url(#_clip1)">
                    <g transform="matrix(2.53751e-15,107.151,117,2.45341e-15,223.637,-222.36)">
                        <ellipse cx="-0" cy="0" rx="1" ry="1" style="fill:url(#_Radial2);"/>
                    </g>
                </g>
            </g>
            <g transform="matrix(-0.230561,0.973058,0.673995,0.1597,39.3416,105.909)">
                <path d="M6.534,-21.372C12.982,-21.345 18.21,-16.092 18.21,-9.639C18.21,-3.185 12.982,2.024 6.534,1.998C0.086,1.971 -5.142,-3.282 -5.142,-9.735C-5.142,-16.189 0.086,-21.398 6.534,-21.372" style="fill:rgb(35,31,32);fill-rule:nonzero;"/>
            </g>
            <g transform="matrix(0.490243,0.522416,-0.194158,0.182201,14.046,52.9998)">
                <path d="M233.742,363.804C265.806,339.317 269.065,325.619 277.403,333.027C286.296,340.928 278.509,352.448 245.504,378.099C214.22,402.411 198.499,409.522 189.122,400.648C180.547,392.534 196.701,392.091 233.742,363.804Z" style="fill:rgb(47,47,47);fill-rule:nonzero;stroke:rgb(27,32,49);stroke-width:9.92px;"/>
            </g>
        </g>
        <g transform="matrix(1.25911,-0.0417447,0.0434436,1.31035,-36.8115,-19.8513)">
            <ellipse cx="199.975" cy="152.997" rx="51.317" ry="58.275" style="fill:rgb(225,232,237);"/>
        </g>
        <g transform="matrix(-0.043868,1.23159,1.07752,0.0383802,246.477,139.994)">
            <path d="M22.091,-41.365C39.547,-40.883 51.156,-22.317 50.826,-9.19C50.495,3.938 39.547,13.353 22.091,12.87C4.636,12.387 -13.9,-5.223 -11.585,-21.889C-9.772,-34.939 1.115,-41.945 22.091,-41.365Z" style="fill:rgb(41,47,51);fill-rule:nonzero;stroke:rgb(27,32,49);stroke-width:4.32px;stroke-linejoin:miter;stroke-miterlimit:10;"/>
        </g>
    </g>
    <defs>
        <radialGradient id="_Radial2" cx="0" cy="0" r="1" gradientUnits="userSpaceOnUse" gradientTransform="matrix(0,1,1,0,-8.49688e-06,8.49688e-06)"><stop offset="0" style="stop-color:rgb(247,110,29);stop-opacity:1"/><stop offset="1" style="stop-color:rgb(255,186,0);stop-opacity:1"/></radialGradient>
    </defs>
</svg>
