<?xml version="1.0" encoding="UTF-8" standalone="no"?>
<!DOCTYPE svg PUBLIC "-//W3C//DTD SVG 1.1//EN" "http://www.w3.org/Graphics/SVG/1.1/DTD/svg11.dtd">
<svg width="100%" height="100%" viewBox="0 0 512 512" version="1.1" xmlns="http://www.w3.org/2000/svg" xmlns:xlink="http://www.w3.org/1999/xlink" xml:space="preserve" xmlns:serif="http://www.serif.com/" style="fill-rule:evenodd;clip-rule:evenodd;stroke-linejoin:round;stroke-miterlimit:2;">
    <g transform="matrix(1,0,0,1,-562,0)">
        <g id="Artboard1" transform="matrix(-1,0,0,1,1074,0)">
            <rect x="0" y="0" width="512" height="512" style="fill:none;"/>
            <g transform="matrix(0.992818,-0.119634,0.119634,0.992818,555.234541,474.149133)">
                <path d="M-41.345,-459.134C-68.869,-454.275 -70.914,-433.153 -70.914,-433.153L-111.471,-440.649C-111.471,-440.649 -149.556,-483.565 -181.324,-481.188C-222.368,-478.116 -229.119,-468.245 -270.216,-470.653C-279.559,-471.2 -420.972,-514.534 -420.972,-514.534C-420.972,-514.534 -434.618,-481.704 -405.606,-460.396C-395.851,-453.232 -372.693,-428.148 -362.943,-428.391C-367.152,-428.352 -507.687,-427.919 -507.687,-427.919C-507.687,-427.919 -507.573,-427.182 -507.281,-425.87C-506.248,-421.246 -505.416,-380.377 -476.238,-359.845C-446.515,-338.93 -392.581,-350.958 -394.912,-346.653C-395.147,-346.22 -396.26,-345.558 -396.499,-345.134C-434.487,-277.859 -459.267,-226.836 -448.191,-167.639C-435.631,-100.511 -395.808,-45.938 -374.332,-28.381C-245.325,8.204 -125.878,-15.988 -118.313,-54.195C-132.084,-82.459 -151.618,-106.681 -175.661,-122.872C-228.499,-158.453 -229.026,-248.422 -208.371,-254.19C-160.763,-267.485 -55.457,-276.982 -30.091,-300.966C-9.789,-320.161 -6.52,-375.507 -6.52,-375.507L-11.246,-451.741C-11.246,-451.741 -13.822,-463.993 -41.345,-459.134" style="fill:rgb(255,186,0);fill-rule:nonzero;"/>
                <clipPath id="_clip1">
                    <path d="M-41.345,-459.134C-68.869,-454.275 -70.914,-433.153 -70.914,-433.153L-111.471,-440.649C-111.471,-440.649 -149.556,-483.565 -181.324,-481.188C-222.368,-478.116 -229.119,-468.245 -270.216,-470.653C-279.559,-471.2 -420.972,-514.534 -420.972,-514.534C-420.972,-514.534 -434.618,-481.704 -405.606,-460.396C-395.851,-453.232 -372.693,-428.148 -362.943,-428.391C-367.152,-428.352 -507.687,-427.919 -507.687,-427.919C-507.687,-427.919 -507.573,-427.182 -507.281,-425.87C-506.248,-421.246 -505.416,-380.377 -476.238,-359.845C-446.515,-338.93 -392.581,-350.958 -394.912,-346.653C-395.147,-346.22 -396.26,-345.558 -396.499,-345.134C-434.487,-277.859 -459.267,-226.836 -448.191,-167.639C-435.631,-100.511 -395.808,-45.938 -374.332,-28.381C-245.325,8.204 -125.878,-15.988 -118.313,-54.195C-132.084,-82.459 -151.618,-106.681 -175.661,-122.872C-228.499,-158.453 -229.026,-248.422 -208.371,-254.19C-160.763,-267.485 -55.457,-276.982 -30.091,-300.966C-9.789,-320.161 -6.52,-375.507 -6.52,-375.507L-11.246,-451.741C-11.246,-451.741 -13.822,-463.993 -41.345,-459.134" clip-rule="nonzero"/>
                </clipPath>
                <g clip-path="url(#_clip1)">
                    <g transform="matrix(-1.03081,0.036279,0.034804,0.988921,-192.858389,-341.428081)">
                        <path d="M54.187,324.56C232.201,347.18 273.351,160.129 274.744,48.448C302.424,80.635 296.257,334.41 204.857,344.661L54.187,324.56Z" style="fill:rgb(226,137,64);"/>
                    </g>
                    <g transform="matrix(-1.495356,-0.180409,-0.134703,1.116514,104.987701,-539.847837)">
                        <path d="M146.043,277.02C146.043,277.02 150.104,268.737 184.022,281.842C216.777,294.498 255.064,292.512 255.15,291.233C229.609,320.612 171.69,309.742 169.009,328.184L146.043,277.02Z" style="fill:rgb(226,137,64);"/>
                    </g>
                    <g transform="matrix(-1.30525,0.229599,0.171431,0.97457,-229.741683,-644.756714)">
                        <path d="M174.687,278.091C206.058,270.792 266.818,217.894 259.159,195.786C264.144,204.056 326.634,327.338 199.449,286.078L174.687,278.091Z" style="fill:rgb(226,137,64);"/>
                    </g>
                </g>
            </g>
            <g transform="matrix(0.425772,-0.90483,0.90483,0.425772,474.420226,60.699834)">
                <path d="M-10.739,-19.403C-17.74,-19.403 -23.413,-13.729 -23.414,-6.728C-23.414,0.271 -17.739,5.946 -10.739,5.945C-3.739,5.944 1.935,0.271 1.936,-6.729C1.936,-13.729 -3.739,-19.403 -10.739,-19.403" style="fill:rgb(35,31,32);fill-rule:nonzero;"/>
            </g>
            <g transform="matrix(-0.950569,0.310513,0.310513,0.950569,453.264844,-94.496041)">
                <g transform="matrix(0.912642,0,0,0.912642,-91.583942,9.82021)">
                    <circle cx="380.855" cy="151.847" r="54.533" style="fill:rgb(47,47,47);stroke:rgb(27,32,49);stroke-width:5.37px;"/>
                </g>
                <g transform="matrix(1.629327,0.254156,-0.173598,1.112892,-132.030718,-40.188152)">
                    <circle cx="252.299" cy="141.625" r="11.146" style="fill:white;"/>
                </g>
                <g transform="matrix(0.715839,0.383183,-0.383183,0.715839,100.809769,-34.038528)">
                    <circle cx="252.299" cy="141.625" r="11.146" style="fill:white;"/>
                </g>
                <g transform="matrix(2.372337,1.269894,-1.269894,2.372337,-156.30781,-519.432367)">
                    <circle cx="252.299" cy="141.625" r="11.146" style="fill:white;"/>
                </g>
            </g>
            <g transform="matrix(-0.66712,0.217921,0.221114,0.676894,508.203391,-92.979909)">
                <g transform="matrix(0.912642,0,0,0.912642,-91.583942,9.82021)">
                    <circle cx="380.855" cy="151.847" r="54.533" style="fill:rgb(47,47,47);stroke:rgb(27,32,49);stroke-width:7.6px;"/>
                </g>
                <g transform="matrix(0.395216,0.881425,-0.907442,0.395216,247.548737,-126.737567)">
                    <circle cx="252.299" cy="141.625" r="11.146" style="fill:white;"/>
                </g>
                <g transform="matrix(-0.527036,0.716337,-1.313344,-0.938575,554.226535,129.852808)">
                    <circle cx="252.299" cy="141.625" r="11.146" style="fill:white;"/>
                </g>
                <g transform="matrix(1.170306,2.610059,-2.687098,1.170306,353.227612,-678.763332)">
                    <circle cx="252.299" cy="141.625" r="11.146" style="fill:white;"/>
                </g>
            </g>
            <g transform="matrix(-0.135945,-1.128176,1.147909,-0.138323,470.352648,184.35853)">
                <path d="M13.585,-46.974C16.432,-54.239 46.998,-19.561 46.998,-19.561C46.998,-19.561 36.102,12.243 24.667,12.198C17.181,12.169 37.617,-7.243 36.407,-17.461C34.86,-30.525 8.936,-35.112 13.585,-46.974" style="fill:rgb(47,47,47);fill-rule:nonzero;stroke:rgb(27,32,49);stroke-width:4.28px;"/>
            </g>
        </g>
    </g>
</svg>
