<?xml version="1.0" encoding="UTF-8" standalone="no"?>
<!DOCTYPE svg PUBLIC "-//W3C//DTD SVG 1.1//EN" "http://www.w3.org/Graphics/SVG/1.1/DTD/svg11.dtd">
<svg width="100%" height="100%" viewBox="0 0 512 512" version="1.1" xmlns="http://www.w3.org/2000/svg" xmlns:xlink="http://www.w3.org/1999/xlink" xml:space="preserve" xmlns:serif="http://www.serif.com/" style="fill-rule:evenodd;clip-rule:evenodd;stroke-linejoin:round;stroke-miterlimit:2;">
    <rect id="Artboard1" x="0" y="0" width="512" height="512" style="fill:none;"/>
    <g id="Artboard11" serif:id="Artboard1">
        <g transform="matrix(-1,0,0,1,18.5685,264.278)">
            <path d="M0,40.498C-22.918,26.966 -37.479,40.976 -37.479,40.976L-71.268,-11.234C-71.268,-11.234 -59.519,-54.613 -86.812,-71.714C-104.61,-82.866 -324.966,-233.814 -324.966,-233.814C-324.966,-233.814 -340.941,-166.18 -292.476,-114.156C-342.431,-160.724 -427.948,-235.178 -427.948,-235.178C-427.948,-235.178 -465.051,-160.473 -395.854,-94.522C-414.436,-86.105 -447.466,-76.969 -461.895,-52.445C-484.869,-13.398 -499.622,30.131 -472.916,89.943C-463.614,110.778 -485.872,146.265 -487.306,168.312C-381.232,239.402 -273.769,219.283 -242.365,216.976C-254.775,116.758 -338.065,51.277 -241.578,71.222C-187.617,82.376 -141.824,166.726 -109.99,167.893C-83.402,168.867 -49.765,144.055 -49.765,144.055L17.191,64.489C17.191,64.489 22.918,54.031 0,40.498" style="fill:url(#_Linear1);fill-rule:nonzero;"/>
            <clipPath id="_clip2">
                <path d="M0,40.498C-22.918,26.966 -37.479,40.976 -37.479,40.976L-71.268,-11.234C-71.268,-11.234 -59.519,-54.613 -86.812,-71.714C-104.61,-82.866 -324.966,-233.814 -324.966,-233.814C-324.966,-233.814 -340.941,-166.18 -292.476,-114.156C-342.431,-160.724 -427.948,-235.178 -427.948,-235.178C-427.948,-235.178 -465.051,-160.473 -395.854,-94.522C-414.436,-86.105 -447.466,-76.969 -461.895,-52.445C-484.869,-13.398 -499.622,30.131 -472.916,89.943C-463.614,110.778 -485.872,146.265 -487.306,168.312C-381.232,239.402 -273.769,219.283 -242.365,216.976C-254.775,116.758 -338.065,51.277 -241.578,71.222C-187.617,82.376 -141.824,166.726 -109.99,167.893C-83.402,168.867 -49.765,144.055 -49.765,144.055L17.191,64.489C17.191,64.489 22.918,54.031 0,40.498" clip-rule="nonzero"/>
            </clipPath>
            <g clip-path="url(#_clip2)">
                <g transform="matrix(-6.12323e-17,1,1,6.12323e-17,-494.129,-264.396)">
                    <rect x="1.115" y="0.997" width="510.586" height="510.586" style="fill:url(#_Linear3);"/>
                </g>
            </g>
        </g>
        <g transform="matrix(0.530963,-0.847395,0.847395,0.530963,45.3602,327.803)">
            <path d="M-10.739,-19.403C-17.74,-19.403 -23.413,-13.729 -23.414,-6.728C-23.414,0.271 -17.739,5.946 -10.739,5.945C-3.739,5.944 1.935,0.271 1.936,-6.729C1.936,-13.729 -3.739,-19.403 -10.739,-19.403" style="fill:rgb(35,31,32);fill-rule:nonzero;"/>
        </g>
        <g transform="matrix(1,0,0,1,-681.081,60.8108)">
            <path d="M862.602,154.601C893.612,153.25 912.866,181.011 911.025,206.177C908.322,243.123 883.249,260.506 864.403,261.358C839.72,262.473 816.401,228.978 815.529,205.277C814.46,176.207 837.92,155.676 862.602,154.601Z" style="fill:rgb(251,251,246);"/>
        </g>
        <g transform="matrix(2.61617,0,0,2.61617,-354.402,-440.267)">
            <ellipse cx="205.07" cy="271.455" rx="13.288" ry="13.964" style="fill:rgb(35,31,32);"/>
        </g>
        <g transform="matrix(1,0,0,1,-671.171,110.811)">
            <path d="M732.773,292.626C732.009,276.762 756.915,261.672 786.827,262.446C817.619,263.243 832.198,273.348 832.773,292.176C832.975,298.816 799.37,290.364 783.792,291.364C763.281,292.682 733.123,299.897 732.773,292.626Z" style="fill:rgb(225,84,22);"/>
        </g>
    </g>
    <defs>
        <linearGradient id="_Linear1" x1="0" y1="0" x2="1" y2="0" gradientUnits="userSpaceOnUse" gradientTransform="matrix(510.517,0,0,477.717,-492.69,5.04465)"><stop offset="0" style="stop-color:rgb(82,174,211);stop-opacity:1"/><stop offset="1" style="stop-color:rgb(255,186,0);stop-opacity:1"/></linearGradient>
        <linearGradient id="_Linear3" x1="0" y1="0" x2="1" y2="0" gradientUnits="userSpaceOnUse" gradientTransform="matrix(510.586,0,0,510.586,1.11507,256.29)"><stop offset="0" style="stop-color:rgb(106,93,122);stop-opacity:1"/><stop offset="0.28" style="stop-color:rgb(109,93,109);stop-opacity:1"/><stop offset="0.63" style="stop-color:rgb(255,185,0);stop-opacity:1"/><stop offset="1" style="stop-color:rgb(255,186,0);stop-opacity:1"/></linearGradient>
    </defs>
</svg>
