<?xml version="1.0" encoding="UTF-8" standalone="no"?>
<!DOCTYPE svg PUBLIC "-//W3C//DTD SVG 1.1//EN" "http://www.w3.org/Graphics/SVG/1.1/DTD/svg11.dtd">
<svg width="100%" height="100%" viewBox="0 0 512 512" version="1.1" xmlns="http://www.w3.org/2000/svg" xmlns:xlink="http://www.w3.org/1999/xlink" xml:space="preserve" xmlns:serif="http://www.serif.com/" style="fill-rule:evenodd;clip-rule:evenodd;stroke-linecap:round;stroke-linejoin:round;stroke-miterlimit:1.5;">
    <rect id="Artboard1" x="0" y="0" width="512" height="512" style="fill:none;"/>
    <clipPath id="_clip1">
        <rect id="Artboard11" serif:id="Artboard1" x="0" y="0" width="512" height="512"/>
    </clipPath>
    <g clip-path="url(#_clip1)">
        <g transform="matrix(1,0,0,1,-1097.06,6.94677)">
            <path d="M1174.12,434.809C1161.85,394.454 1206.01,300.765 1204.24,256C1198.49,110.261 1209.81,50.531 1319.61,14.11C1369.45,-2.422 1368.6,48.007 1376.62,44.786C1467,8.477 1456.42,44.897 1474.8,94.958C1485.58,124.303 1531.86,145.876 1547.87,194.911C1581.72,298.58 1671.01,462.389 1451.72,470.957C1389.22,473.399 1336.69,423.517 1305.63,443.592C1233.65,490.117 1188.11,480.818 1174.12,434.809Z" style="fill:url(#_Linear2);stroke:rgb(92,47,84);stroke-width:4.91px;"/>
        </g>
        <g transform="matrix(1,0,0,1,-1098.32,10.2192)">
            <path d="M1216.84,369.447C1218.58,368.226 1220.21,367.202 1221.84,366.029C1222.5,365.555 1223.12,365.089 1223.73,364.579C1224.14,364.239 1224.51,363.871 1224.89,363.516C1226.89,361.664 1228.81,359.886 1230.67,358.165C1233.71,355.367 1236.61,352.726 1239.39,350.112C1244.36,345.432 1248.96,340.867 1253.25,335.697C1256.52,331.759 1259.59,327.464 1262.5,322.506C1263.71,320.429 1264.91,318.241 1266.04,315.89C1266.49,314.941 1266.98,313.986 1267.35,312.961C1267.58,312.322 1267.75,311.687 1267.91,311.012C1268.28,309.453 1268.49,307.974 1268.76,306.306C1267.73,307.628 1266.75,308.738 1265.78,309.997C1265.37,310.536 1264.97,311.047 1264.61,311.606C1264.04,312.499 1263.56,313.424 1263.04,314.312C1261.78,316.496 1260.54,318.566 1259.28,320.529C1256.28,325.182 1253.2,329.215 1250,332.962C1245.74,337.953 1241.25,342.411 1236.47,347.06C1233.73,349.72 1230.91,352.449 1228,355.382C1226.19,357.201 1224.34,359.093 1222.48,361.115C1222.13,361.503 1221.76,361.884 1221.42,362.3C1220.91,362.923 1220.45,363.564 1220,364.246C1218.87,365.92 1217.92,367.608 1216.84,369.447Z" style="fill:rgb(65,40,60);"/>
            <path d="M1207.73,317.5C1208.77,317.834 1209.51,318.136 1210.58,318.392C1210.99,318.491 1211.35,318.571 1211.78,318.594C1212.61,318.64 1213.44,318.511 1214.27,318.438C1215.51,318.329 1216.75,318.176 1217.99,317.998C1221.07,317.556 1224.16,316.993 1227.2,316.246C1230.26,315.495 1233.27,314.568 1236.2,313.467C1238.17,312.724 1240.1,311.899 1241.98,310.97C1242.16,310.876 1242.36,310.798 1242.54,310.679C1242.82,310.48 1243.04,310.276 1243.28,310.021C1243.96,309.285 1244.3,308.728 1244.89,307.923C1244.28,307.872 1243.92,307.806 1243.31,307.772C1242.76,307.742 1242.35,307.695 1241.8,307.739C1241.52,307.761 1241.26,307.814 1240.98,307.884C1239.92,308.151 1238.9,308.529 1237.85,308.855C1235.26,309.66 1232.65,310.402 1230,311.082C1228.24,311.533 1226.47,311.961 1224.7,312.384C1222.04,313.023 1219.36,313.605 1216.7,314.188C1214.89,314.583 1213.06,314.811 1211.33,315.397C1210.93,315.532 1210.61,315.713 1210.24,315.916C1209.28,316.445 1208.65,316.927 1207.73,317.5Z" style="fill:rgb(65,40,60);"/>
            <path d="M1356.61,356.594C1357.49,358.939 1358.37,361.322 1359.52,363.831C1359.94,364.765 1360.39,365.685 1360.91,366.609C1361.24,367.205 1361.61,367.781 1361.98,368.368C1363.74,371.174 1365.66,374.035 1367.7,376.929C1370.59,381.008 1373.72,385.146 1377.04,389.232C1382.42,395.837 1388.29,402.33 1394.42,408.259C1399.53,413.208 1404.83,417.757 1410.16,421.672C1412.84,423.645 1415.52,425.466 1418.22,427.057C1419.43,427.776 1420.63,428.491 1421.87,429.061C1422.68,429.434 1423.49,429.734 1424.31,430.008C1426.35,430.683 1428.27,431.113 1430.25,431.51C1428.6,430.408 1427.09,429.199 1425.41,427.923C1424.74,427.413 1424.09,426.902 1423.38,426.411C1422.3,425.661 1421.15,424.963 1420.03,424.199C1417.52,422.501 1414.98,420.658 1412.45,418.664C1407.38,414.677 1402.33,410.108 1397.39,405.223C1391.44,399.332 1385.67,392.969 1380.3,386.545C1376.98,382.56 1373.8,378.564 1370.82,374.646C1368.71,371.865 1366.7,369.128 1364.81,366.473C1364.41,365.917 1364.03,365.358 1363.62,364.826C1362.98,363.999 1362.34,363.225 1361.68,362.454C1359.9,360.367 1358.2,358.513 1356.61,356.594Z" style="fill:rgb(65,40,60);"/>
            <path d="M1488.89,352.31C1491.18,351.461 1493.31,350.712 1495.42,349.802C1496.35,349.399 1497.24,348.992 1498.11,348.524C1500.02,347.493 1501.77,346.311 1503.49,345.189C1506.27,343.376 1508.85,341.538 1511.27,339.678C1518.1,334.43 1523.68,329.013 1528.43,322.959C1533.19,316.891 1537.12,310.18 1540.63,302.359C1542.66,297.846 1544.54,292.958 1546.34,287.589C1546.51,287.093 1546.69,286.6 1546.83,286.088C1547.04,285.321 1547.19,284.554 1547.32,283.755C1547.65,281.782 1547.81,279.868 1548.04,277.773C1546.98,279.584 1545.93,281.182 1544.95,282.922C1544.56,283.622 1544.2,284.306 1543.87,285.021C1543.65,285.497 1543.48,285.987 1543.29,286.466C1541.22,291.62 1539.18,296.326 1537.06,300.688C1533.46,308.094 1529.59,314.456 1525.02,320.279C1520.46,326.078 1515.2,331.339 1508.79,336.538C1506.48,338.411 1504.02,340.28 1501.41,342.185C1499.79,343.374 1498.06,344.514 1496.36,345.809C1495.58,346.4 1494.85,347.029 1494.09,347.684C1492.36,349.176 1490.73,350.715 1488.89,352.31Z" style="fill:rgb(65,40,60);"/>
            <path d="M1476.04,323.926C1477.59,321.977 1479.11,320.155 1480.56,318.168C1481.18,317.321 1481.78,316.483 1482.33,315.595C1483.49,313.71 1484.49,311.741 1485.52,309.802C1487.09,306.862 1488.58,303.909 1490.02,300.947C1493.67,293.422 1496.99,285.854 1499.92,278.147C1502.85,270.421 1505.41,262.555 1507.58,254.479C1508.99,249.194 1510.24,243.817 1511.29,238.321C1511.39,237.779 1511.51,237.239 1511.58,236.691C1511.69,235.858 1511.75,235.038 1511.78,234.195C1511.86,232.061 1511.77,230.041 1511.72,227.88C1510.92,229.879 1510.08,231.706 1509.32,233.692C1509.02,234.472 1508.75,235.237 1508.51,236.033C1508.35,236.558 1508.24,237.092 1508.11,237.622C1506.77,242.981 1505.33,248.228 1503.78,253.401C1501.42,261.295 1498.76,268.992 1495.86,276.603C1492.96,284.209 1489.82,291.73 1486.4,299.245C1485.05,302.213 1483.66,305.181 1482.26,308.166C1481.33,310.137 1480.33,312.082 1479.46,314.104C1479.05,315.058 1478.7,316.016 1478.35,316.999C1477.53,319.313 1476.85,321.574 1476.04,323.926Z" style="fill:rgb(65,40,60);"/>
            <path d="M1452.48,316.964C1451.1,315.834 1449.76,314.775 1448.32,313.764C1446.87,312.744 1445.41,311.826 1443.89,310.946C1443.46,310.699 1443.04,310.462 1442.6,310.243C1441.57,309.734 1440.52,309.304 1439.46,308.871C1433.43,306.393 1427.2,304.545 1420.87,303.038C1415.65,301.792 1410.35,300.8 1405.03,299.92C1399.76,299.05 1394.46,298.294 1389.17,297.514C1382.85,296.583 1376.55,295.617 1370.32,294.38C1366.17,293.557 1362.05,292.617 1357.98,291.501C1355.95,290.944 1353.95,290.271 1351.91,289.708C1350.99,289.452 1350.07,289.246 1349.13,289.037C1346.88,288.538 1344.73,288.143 1342.49,287.563C1344.31,288.853 1346.04,290.062 1347.96,291.17C1348.77,291.642 1349.58,292.085 1350.44,292.47C1354.68,294.372 1359.18,295.598 1363.66,296.79C1370.77,298.685 1378.04,300.025 1385.35,301.228C1390.16,302.022 1395,302.742 1399.83,303.483C1405.84,304.405 1411.83,305.369 1417.75,306.576C1423.66,307.779 1429.5,309.229 1435.23,311.109C1437.22,311.763 1439.19,312.509 1441.18,313.209C1442.03,313.51 1442.89,313.786 1443.76,314.058C1446.69,314.976 1449.56,315.821 1452.48,316.964Z" style="fill:rgb(65,40,60);"/>
        </g>
        <g transform="matrix(1,0,0,1,-1098.32,10.2192)">
            <path d="M1283.39,449.33C1283.39,449.33 1236.66,386.289 1295.11,305.356C1311.55,282.595 1347.52,278.558 1380,247.832C1446.5,184.929 1415.37,134.513 1330.23,119.141C1320.56,117.394 1307.97,93.566 1297.18,90.365C1294.12,89.459 1229.12,81.869 1234.52,146.748C1242.56,243.146 1335.97,277.309 1335.97,277.309C1320.2,282.704 1306.42,291.773 1295.11,305.356C1295.11,305.356 1194.36,247.23 1207.08,140.791C1219.8,34.352 1279.22,55.177 1318.72,61.202C1329.41,62.833 1343.72,85.643 1359.03,89.042C1400.28,98.2 1467.65,77.463 1472.17,164.153C1475.89,235.309 1413.26,285.897 1389.16,305.356C1365.06,324.816 1330.92,348.246 1331.59,385.064C1332.26,421.883 1369.86,466.263 1440.04,462.255C1596.02,453.346 1594.01,364.312 1594.01,364.312C1594.01,364.312 1614.76,373.684 1612.08,397.784C1609.86,417.788 1574.02,506.951 1413.26,501.545C1336.31,498.957 1306.15,470.957 1306.15,470.957C1306.15,470.957 1285.4,500.876 1227.83,498.198C1170.26,495.52 1153.44,467.968 1152.85,446.652C1152.17,421.811 1170.93,406.486 1170.93,406.486C1170.93,406.486 1160.89,455.767 1223.81,460.247C1266.05,463.254 1283.39,449.33 1283.39,449.33Z" style="fill:white;"/>
            <path d="M1226.68,460.427C1229.97,460.607 1233.11,460.683 1236.09,460.671L1237.36,460.66L1237.84,460.652C1240.44,460.61 1242.91,460.502 1245.27,460.336C1246.93,460.219 1248.54,460.075 1250.08,459.907L1249.02,460.018C1247.8,460.14 1246.55,460.247 1245.27,460.336C1242.91,460.501 1240.44,460.611 1237.84,460.652L1237.36,460.66L1236.09,460.671C1232.68,460.685 1229.07,460.584 1225.26,460.343L1226.68,460.427ZM1165.58,418.102C1165.41,417.509 1165.31,416.903 1165.27,416.295C1165.02,416.634 1164.77,416.984 1164.52,417.344L1165.58,418.102C1165.68,418.489 1165.82,418.871 1166,419.245L1169.82,422.198L1171.21,423.271L1171.24,423.225L1171.18,422.921L1171.04,422.16C1171.04,422.115 1170.99,422.062 1171.02,422.024L1171.02,422.024L1171.02,422.024C1168.93,420.511 1167.12,419.21 1165.58,418.102ZM1300.78,298.921C1299.64,300.011 1298.56,301.145 1297.54,302.332C1298.6,301.159 1299.68,300.022 1300.78,298.921ZM1334.83,277.857C1325.81,282.477 1317.4,286.612 1310.19,291.411C1309.04,292.178 1307.92,292.961 1306.83,293.766C1309.04,291.914 1311.31,290.187 1313.65,288.582C1320.21,284.087 1327.29,280.543 1334.83,277.857ZM1336.08,277.218C1336.06,277.2 1336.04,277.187 1336.02,277.178C1336.02,277.178 1296.52,262.737 1266.7,226.13C1250.67,206.463 1237.45,180.399 1234.64,146.738C1232.7,123.53 1239.79,109.611 1249.82,101.348C1267.79,86.559 1295.19,89.878 1297.15,90.458C1305.32,92.878 1314.5,107.123 1322.68,114.646C1325.32,117.073 1327.86,118.802 1330.22,119.228C1371.78,126.724 1400.46,142.57 1411.19,164.156C1422.42,186.758 1413.94,215.639 1379.96,247.795C1365.34,261.633 1350.01,270.059 1336.08,277.218ZM1222.9,460.178C1222.3,460.131 1221.7,460.079 1221.11,460.023L1222,460.104C1222.6,460.155 1223.2,460.203 1223.81,460.247L1222.9,460.178ZM1220.23,459.936C1219.36,459.846 1218.5,459.747 1217.65,459.639L1218.5,459.744C1218.79,459.778 1219.07,459.811 1219.36,459.843L1220.23,459.936ZM1252.15,459.662C1253.51,459.489 1254.82,459.298 1256.08,459.091L1255.13,459.243C1253.84,459.442 1252.51,459.624 1251.12,459.788L1252.15,459.662ZM1216.81,459.528C1216.24,459.45 1215.68,459.368 1215.12,459.282L1214.35,459.161C1214.09,459.117 1213.82,459.072 1213.55,459.028L1212.76,458.888C1212.5,458.84 1212.24,458.792 1211.98,458.744L1211.24,458.6C1209.92,458.339 1208.65,458.054 1207.41,457.746C1206.24,457.453 1205.1,457.14 1203.99,456.809L1203.32,456.603C1203.1,456.534 1202.88,456.464 1202.66,456.393L1202.01,456.178C1201.26,455.928 1200.53,455.669 1199.81,455.4L1199.48,455.275C1199.27,455.196 1199.07,455.117 1198.87,455.038L1198.36,454.837C1198.13,454.743 1197.9,454.648 1197.67,454.552C1197.46,454.464 1197.25,454.375 1197.04,454.285L1196.51,454.05L1195.96,453.803C1193.14,452.512 1190.62,451.076 1188.38,449.532L1188.34,449.508L1187.89,449.197C1186.57,448.258 1185.34,447.282 1184.2,446.275L1183.82,445.938C1183.71,445.831 1183.59,445.724 1183.47,445.615L1183.13,445.291L1182.79,444.964L1182.45,444.636L1182.12,444.306L1181.8,443.974L1181.48,443.64L1181.17,443.305L1180.87,442.969L1180.57,442.631L1180.27,442.291L1179.99,441.95L1179.7,441.608L1179.42,441.264L1179.15,440.919L1178.88,440.573L1178.62,440.226L1178.37,439.878L1178.11,439.529L1177.87,439.179L1177.63,438.828L1177.39,438.476L1177.16,438.124L1176.93,437.771L1176.71,437.417L1176.49,437.062L1176.28,436.707L1176.07,436.352L1175.87,435.996L1175.67,435.639L1175.48,435.283L1175.29,434.926L1175.11,434.568L1174.92,434.211L1174.75,433.854L1174.58,433.496L1174.41,433.139L1174.25,432.781L1174.09,432.424L1173.93,432.067L1173.64,431.353L1173.36,430.641L1173.09,429.93L1172.84,429.222L1172.6,428.517L1172.38,427.814L1172.17,427.116L1171.98,426.421L1171.8,425.73L1171.63,425.045L1171.49,424.439L1171.41,424.384C1158.96,442.036 1164.28,433.838 1170.78,423.925L1168.65,422.386C1167.37,421.466 1166.53,420.393 1166,419.245L1165.89,419.164L1164.18,417.835L1164.2,417.795L1164.52,417.344C1162.87,416.163 1161.56,415.235 1160.55,414.528C1165.08,408.12 1169.4,404.613 1169.4,404.613C1170.19,403.966 1171.3,403.887 1172.18,404.416C1173.06,404.945 1173.5,405.967 1173.3,406.969C1173.3,406.969 1175.8,410.945 1175.47,415.709L1173.74,418.152L1171.02,422.024C1171.06,422.051 1171.04,422.115 1171.04,422.16L1171.18,422.921L1171.25,423.294L1171.24,423.225C1172.61,421.137 1174.02,418.998 1175.3,417.029C1175.38,416.584 1175.44,416.143 1175.47,415.709C1183.74,404.021 1180.45,409.163 1175.3,417.029C1175.03,418.534 1174.44,420.087 1173.38,421.594L1171.85,423.766C1181.22,431.002 1188.91,437 1171.49,424.439L1171.48,424.365L1171.63,425.045L1171.8,425.731L1171.98,426.421L1172.17,427.116L1172.38,427.814L1172.6,428.517L1172.84,429.222L1173.09,429.93L1173.36,430.641L1173.64,431.353L1173.93,432.067L1174.09,432.424L1174.25,432.781L1174.41,433.139L1174.58,433.496L1174.75,433.854L1174.92,434.211L1175.11,434.568L1175.29,434.926L1175.48,435.283L1175.67,435.639L1175.87,435.996L1176.07,436.352L1176.28,436.707L1176.49,437.062L1176.71,437.417L1176.93,437.771L1177.16,438.124L1177.39,438.476L1177.63,438.828L1177.87,439.179L1178.11,439.529L1178.37,439.878L1178.62,440.226L1178.88,440.573L1179.15,440.919L1179.42,441.264L1179.7,441.608L1179.99,441.95L1180.27,442.291L1180.57,442.631L1180.87,442.969L1181.17,443.305L1181.48,443.641L1181.8,443.974L1182.12,444.306L1182.45,444.636L1182.79,444.964L1183.13,445.291L1183.47,445.615L1183.82,445.938L1184.2,446.275C1185.46,447.394 1186.84,448.475 1188.34,449.508L1188.38,449.532C1190.62,451.076 1193.14,452.512 1195.96,453.803L1196.51,454.05L1197.08,454.303L1197.67,454.552L1198.26,454.797L1198.87,455.038C1199.07,455.117 1199.27,455.196 1199.48,455.275L1199.81,455.4C1200.52,455.668 1201.26,455.927 1202.01,456.178L1202.66,456.393C1202.88,456.464 1203.1,456.534 1203.32,456.603L1203.99,456.809C1205.1,457.14 1206.24,457.453 1207.41,457.746C1208.65,458.053 1209.92,458.339 1211.24,458.6L1211.98,458.744C1212.24,458.792 1212.5,458.84 1212.76,458.888L1213.55,459.028C1213.82,459.072 1214.09,459.117 1214.35,459.161L1215.12,459.282C1215.41,459.327 1215.69,459.37 1215.98,459.412L1216.81,459.528ZM1259.67,458.438C1259.99,458.376 1260.29,458.312 1260.6,458.248C1263.78,457.579 1266.6,456.819 1269.08,456.032L1269.16,456.006L1269.31,455.959C1269.83,455.791 1270.34,455.621 1270.84,455.451L1271.37,455.265C1271.54,455.203 1271.72,455.141 1271.89,455.078L1272.14,454.985C1272.66,454.795 1273.17,454.605 1273.65,454.415C1275.03,453.874 1276.25,453.34 1277.32,452.832C1279.52,451.796 1281.09,450.873 1282.09,450.235L1282.37,450.052C1282.46,449.992 1282.55,449.931 1282.64,449.87L1282.8,449.76C1283.2,449.486 1283.39,449.331 1283.39,449.33L1283.39,449.33C1283.38,449.31 1261.69,420.046 1266.34,375.801C1268.52,355.138 1276.44,331.208 1295,305.461C1293.56,304.622 1252.68,280.512 1226.77,235.618C1212.22,210.408 1202.39,178.645 1206.91,140.772C1211.8,99.832 1223.6,77.694 1238.51,66.289C1262.43,47.993 1294.37,57.311 1318.74,61.027C1327.32,62.336 1338.24,77.237 1350.12,84.875C1353.05,86.758 1356.04,88.197 1359.07,88.869C1386.43,94.943 1425.27,87.895 1449.67,107.693C1462.11,117.783 1470.82,134.837 1472.35,164.144C1473.63,188.586 1467.08,210.605 1456.96,229.772C1437.59,266.456 1405.11,292.692 1389.27,305.484C1374.73,317.219 1356.53,330.398 1344.54,347.095C1336.68,358.041 1331.48,370.501 1331.74,385.062C1332.12,406.325 1344.85,430.114 1369.07,445.621C1386.73,456.924 1410.49,463.826 1440.03,462.148C1495.5,459.003 1530.98,445.712 1553.69,429.897C1594.81,401.254 1594,364.312 1594,364.312C1594,364.311 1594.01,364.31 1594.01,364.31C1594.01,364.309 1594.01,364.309 1594.01,364.309C1594.01,364.309 1595.11,364.806 1596.76,365.866L1596.82,365.9L1597.16,366.123C1600.29,368.175 1605.1,372.055 1608.47,378.14C1611.23,383.134 1613.02,389.613 1612.12,397.787C1611.87,400.021 1611.21,403.117 1610,406.847C1623.12,400.605 1617.59,403.626 1610.3,407.516L1611.45,410.028C1611.54,410.221 1611.31,410.428 1611.23,410.63L1611.01,411.239C1614.27,419.263 1616.96,425.978 1610.62,412.242C1610.75,411.904 1610.88,411.57 1611.01,411.239L1610.33,409.574L1609.65,407.9C1609.52,408.281 1609.38,408.669 1609.24,409.062C1609.23,409.096 1609.19,409.131 1609.2,409.164L1610.62,412.242C1609.99,413.84 1609.28,415.517 1608.48,417.259C1600.87,433.742 1585.05,456.201 1555.15,474.19C1524.66,492.542 1479.43,506.278 1413.18,504.052C1384.54,503.089 1362.31,498.634 1345.67,493.398C1323.49,486.419 1311.09,478.026 1306.51,474.491C1302.6,478.962 1291.67,489.503 1271.03,495.826C1259.7,499.297 1245.42,501.505 1227.71,500.678C1199.86,499.376 1181.34,492.31 1169.45,483.004C1155.78,472.299 1150.73,458.583 1150.4,446.72C1150.16,437.743 1152.33,429.95 1155.29,423.592C1156.83,420.268 1158.59,417.338 1160.34,414.835C1157.3,412.433 1156.42,411.632 1160.55,414.528L1160.46,414.66L1160.34,414.835C1161.4,415.671 1162.72,416.701 1164.18,417.835C1162.64,420.08 1161.08,422.695 1159.71,425.648C1157.04,431.407 1155.08,438.46 1155.31,446.584C1155.6,457.235 1160.22,469.51 1172.5,479.113C1183.8,487.953 1201.46,494.492 1227.94,495.718C1244.96,496.506 1258.69,494.403 1269.57,491.063C1294.31,483.473 1304.1,469.533 1304.1,469.533C1304.51,468.937 1305.16,468.55 1305.88,468.472C1306.6,468.394 1307.32,468.633 1307.85,469.126C1307.85,469.126 1319.62,479.95 1347.17,488.611C1363.49,493.74 1385.27,498.094 1413.35,499.038C1478.3,501.224 1522.67,487.876 1552.57,469.9C1581.36,452.599 1596.66,431.048 1604.01,415.192C1604.74,413.615 1605.39,412.095 1605.97,410.641L1609.12,409.133C1609.15,409.117 1609.14,409.065 1609.15,409.031C1609.29,408.655 1609.42,408.285 1609.54,407.92L1608,408.745L1606.37,409.616C1606.24,409.954 1606.1,410.296 1605.97,410.641C1592.46,417.078 1598.76,413.674 1606.37,409.616L1606.63,408.922C1606.7,408.732 1606.66,408.443 1606.84,408.357L1609.35,407.158C1606.24,399.528 1603.92,393.679 1609.94,406.733C1611.14,403.051 1611.8,399.992 1612.05,397.78C1612.96,389.62 1611.18,383.148 1608.44,378.156C1605.09,372.068 1600.29,368.181 1597.16,366.123L1597.15,366.116L1596.76,365.866C1595.16,364.847 1594.08,364.35 1594.01,364.317C1594.02,364.79 1594.61,401.472 1553.75,429.994C1531.05,445.844 1495.55,459.169 1440.05,462.361C1410.44,464.062 1386.63,457.157 1368.93,445.841C1344.61,430.291 1331.83,406.411 1331.44,385.067C1331.17,370.437 1336.39,357.914 1344.29,346.912C1356.29,330.19 1374.51,316.985 1389.06,305.229C1404.88,292.452 1437.32,266.247 1456.65,229.609C1466.74,210.493 1473.27,188.536 1471.99,164.162C1470.47,134.995 1461.83,118.013 1449.45,107.97C1425.09,88.205 1386.31,95.28 1358.99,89.215C1355.93,88.534 1352.9,87.08 1349.93,85.173C1338.09,77.562 1327.24,62.68 1318.69,61.376C1294.4,57.67 1262.56,48.333 1238.72,66.565C1223.86,77.931 1212.12,100.006 1207.24,140.811C1202.72,178.604 1212.53,210.302 1227.04,235.461C1252.59,279.757 1292.74,303.795 1295.08,305.167C1295.49,304.672 1295.91,304.182 1296.33,303.7C1298.15,301.406 1300.18,299.305 1302.39,297.345C1305.9,293.999 1309.61,291.006 1313.49,288.346C1320.31,283.675 1327.68,280.029 1335.56,277.303C1331.53,275.749 1294.69,260.912 1266.5,226.289C1250.46,206.585 1237.22,180.474 1234.41,146.757C1232.47,123.45 1239.61,109.479 1249.69,101.185C1267.73,86.344 1295.24,89.689 1297.2,90.272C1305.39,92.701 1314.61,106.969 1322.81,114.514C1325.41,116.914 1327.91,118.632 1330.25,119.054C1371.87,126.577 1400.58,142.472 1411.31,164.094C1422.55,186.737 1414.08,215.673 1380.04,247.868C1365.4,261.708 1350.06,270.132 1336.11,277.291L1336.11,277.311C1336.11,277.37 1336.08,277.422 1336.02,277.441L1335.39,277.659C1326.17,282.383 1317.57,286.581 1310.23,291.468C1308.76,292.444 1307.34,293.447 1305.98,294.488C1302.18,297.755 1298.59,301.402 1295.22,305.45C1295.18,305.501 1295.11,305.517 1295.05,305.49C1276.49,331.223 1268.56,355.146 1266.38,375.804C1261.7,420.042 1283.38,449.31 1283.39,449.33L1283.39,449.33C1283.39,449.331 1283.2,449.486 1282.8,449.76L1282.64,449.87C1282.55,449.931 1282.46,449.992 1282.37,450.052L1282.09,450.235C1281.09,450.873 1279.52,451.796 1277.32,452.832C1276.25,453.34 1275.02,453.874 1273.65,454.415C1273.17,454.604 1272.66,454.795 1272.14,454.985C1271.89,455.078 1271.63,455.171 1271.37,455.265L1270.84,455.451C1270.34,455.621 1269.83,455.791 1269.31,455.959L1269.16,456.006L1269.08,456.032C1266.6,456.819 1263.78,457.579 1260.6,458.248C1260.29,458.312 1259.99,458.376 1259.67,458.438L1258.85,458.6L1257.94,458.769C1258.53,458.662 1259.11,458.552 1259.67,458.438Z" style="fill:rgb(139,123,137);"/>
        </g>
        <g transform="matrix(1,0,0,1,-1098.32,10.2192)">
            <path d="M1335.97,277.309C1335.97,277.309 1346.28,277.195 1380,247.832C1442.8,193.144 1424.2,134.633 1333.9,118.934C1315.89,115.803 1314.18,88.366 1290.37,89.318C1223.52,91.99 1025.36,160.115 1034.53,224.569C1071.02,480.793 1335.97,277.309 1335.97,277.309Z" style="fill:none;"/>
            <clipPath id="_clip3">
                <path d="M1335.97,277.309C1335.97,277.309 1346.28,277.195 1380,247.832C1442.8,193.144 1424.2,134.633 1333.9,118.934C1315.89,115.803 1314.18,88.366 1290.37,89.318C1223.52,91.99 1025.36,160.115 1034.53,224.569C1071.02,480.793 1335.97,277.309 1335.97,277.309Z"/>
            </clipPath>
            <g clip-path="url(#_clip3)">
                <g id="Layer-2" serif:id="Layer 2" transform="matrix(0.817809,0,0,0.817809,1052.94,33.8607)">
                    <g transform="matrix(0.777821,-0.628486,0.628486,0.777821,305.615,531.528)">
                        <path d="M0,-376.63C26.196,-369.305 26.175,-348.569 26.175,-348.569L88.576,-360.715C88.576,-360.715 112.238,-400.262 144.161,-392.239C156.256,-391.977 133.102,-391.281 197.855,-395.185C203.206,-395.507 209.522,-393.694 214.974,-395.782C276.75,-419.432 325.509,-432.685 325.509,-432.685C325.509,-432.685 344.751,-386.798 265.956,-338.401C265.956,-336.86 265.706,-338.691 266.706,-336.735C268.588,-336.943 294.756,-332.028 410.85,-370.746C410.85,-370.746 440.532,-296.772 337.646,-262.957C326.812,-258.79 350.965,-240.108 356.37,-231.552C386.083,-184.52 403.14,-160.833 389.64,-102.333C375.458,-40.873 324.826,29.116 312.598,40.316C188.081,68.616 65.657,-19.434 89.138,-38.956C120.717,-65.21 161.7,-99.531 178.78,-123.333C194.272,-144.923 211.64,-193.897 190.14,-197.397C134.285,-206.49 5.243,-183.968 -16.063,-204.66C-35.6,-223.632 -41.117,-266.161 -41.117,-266.161L-29.853,-372.28C-29.853,-372.28 -26.196,-383.954 0,-376.63" style="fill:rgb(255,186,0);fill-rule:nonzero;"/>
                    </g>
                    <g transform="matrix(-0.146012,0.989283,0.989283,0.146012,105.588,268.529)">
                        <path d="M6.534,-21.372C12.982,-21.345 18.21,-16.092 18.21,-9.639C18.21,-3.185 12.982,2.024 6.534,1.998C0.086,1.971 -5.142,-3.282 -5.142,-9.735C-5.142,-16.189 0.086,-21.398 6.534,-21.372" style="fill:rgb(35,31,32);fill-rule:nonzero;"/>
                    </g>
                </g>
            </g>
        </g>
        <g transform="matrix(0.900867,0,0,0.900867,-57.9884,14.8101)">
            <circle cx="102.438" cy="153.291" r="23.874" style="fill:none;stroke:rgb(145,109,224);stroke-width:16.82px;"/>
        </g>
        <g transform="matrix(0.900867,0,0,0.900867,30.7884,-103.285)">
            <circle cx="102.438" cy="153.291" r="23.874" style="fill:none;stroke:rgb(145,109,224);stroke-width:18.76px;stroke-dasharray:0,37.53,0,0;"/>
        </g>
        <g transform="matrix(1.39656,0,0,1.39656,-98.4585,-150.231)">
            <circle cx="102.438" cy="153.291" r="23.874" style="fill:none;stroke:rgb(145,109,224);stroke-width:10.85px;"/>
        </g>
        <g transform="matrix(0.443602,0.516993,0.646122,-0.554399,169.662,198.574)">
            <path d="M13.585,-46.974C16.432,-54.239 42.896,-35.56 42.531,-22.434C41.921,-0.455 19.568,14.307 13.585,2.503C10.247,-4.082 36.309,-9.538 30.832,-25.447C26.543,-37.905 8.936,-35.112 13.585,-46.974Z" style="fill:rgb(35,31,32);fill-rule:nonzero;stroke:rgb(27,32,49);stroke-width:6.49px;stroke-linecap:butt;stroke-linejoin:miter;stroke-miterlimit:10;"/>
        </g>
        <g transform="matrix(0.947663,-0.610853,0.367372,0.569932,-741.196,624.775)">
            <path d="M732.773,292.626C732.009,276.762 756.915,261.672 786.827,262.446C817.619,263.243 832.198,273.348 832.773,292.176C832.975,298.816 799.37,290.364 783.792,291.364C763.281,292.682 733.123,299.897 732.773,292.626Z" style="fill:rgb(237,108,48);"/>
        </g>
    </g>
    <defs>
        <linearGradient id="_Linear2" x1="0" y1="0" x2="1" y2="0" gradientUnits="userSpaceOnUse" gradientTransform="matrix(35.6402,399.718,-433.659,38.6665,1348.67,46.2773)"><stop offset="0" style="stop-color:rgb(219,78,186);stop-opacity:1"/><stop offset="1" style="stop-color:rgb(131,53,167);stop-opacity:1"/></linearGradient>
    </defs>
</svg>
