<?xml version="1.0" encoding="UTF-8" standalone="no"?>
<!DOCTYPE svg PUBLIC "-//W3C//DTD SVG 1.1//EN" "http://www.w3.org/Graphics/SVG/1.1/DTD/svg11.dtd">
<svg width="100%" height="100%" viewBox="0 0 512 512" version="1.1" xmlns="http://www.w3.org/2000/svg" xmlns:xlink="http://www.w3.org/1999/xlink" xml:space="preserve" xmlns:serif="http://www.serif.com/" style="fill-rule:evenodd;clip-rule:evenodd;stroke-miterlimit:10;">
    <rect id="Artboard1" x="0" y="0" width="512" height="512" style="fill:none;"/>
    <g id="Artboard11" serif:id="Artboard1">
        <g id="Layer-2" serif:id="Layer 2">
            <g transform="matrix(1,0,0,1,42.8599,460.333)">
                <path d="M-1.196,-361.077C25,-353.752 24.979,-333.016 24.979,-333.016L87.38,-345.162C87.38,-345.162 111.042,-384.709 142.965,-376.686C155.06,-376.424 168.24,-371.887 232.993,-375.791C238.344,-376.113 243.069,-377.72 247.848,-381.073C277.792,-402.086 291.535,-457.859 291.535,-457.859C291.535,-457.859 345.237,-444.21 341.797,-379.885C342.353,-378.448 327.27,-349.462 328.908,-347.999C330.589,-348.871 346.346,-321.254 427.498,-407.019C427.498,-407.019 489.043,-339.759 405.282,-271.108C396.68,-263.313 384.827,-247.525 388.944,-238.28C406.216,-199.495 403.14,-160.833 389.64,-102.333C375.458,-40.873 324.826,29.116 312.598,40.316C188.081,68.616 65.657,-19.434 89.138,-38.956C120.717,-65.21 161.7,-99.531 178.78,-123.333C194.272,-144.923 210.444,-178.344 188.944,-181.844C133.089,-190.937 11.321,-186.791 -9.985,-207.483C-29.522,-226.455 -42.313,-250.608 -42.313,-250.608L-31.049,-356.727C-31.049,-356.727 -27.392,-368.401 -1.196,-361.077" style="fill:rgb(255,186,0);fill-rule:nonzero;"/>
            </g>
            <g transform="matrix(-0.829036,0.559195,0.559195,0.829036,45.2299,128.573)">
                <path d="M6.534,-21.372C12.982,-21.345 18.21,-16.092 18.21,-9.639C18.21,-3.185 12.982,2.024 6.534,1.998C0.086,1.971 -5.142,-3.282 -5.142,-9.735C-5.142,-16.189 0.086,-21.398 6.534,-21.372" style="fill:rgb(35,31,32);fill-rule:nonzero;"/>
            </g>
            <g transform="matrix(1.04422,0,0,1.04422,-9.5642,5.61268)">
                <ellipse cx="199.975" cy="152.997" rx="51.317" ry="58.275" style="fill:rgb(225,232,237);"/>
            </g>
            <g transform="matrix(-0.0730975,1.06162,0.449191,0.0309288,178.409,162.964)">
                <path d="M22.091,-41.365C39.547,-40.883 51.156,-22.317 50.826,-9.19C50.495,3.938 39.547,13.353 22.091,12.87C4.636,12.387 -13.9,-5.223 -11.585,-21.889C-9.772,-34.939 1.115,-41.945 22.091,-41.365Z" style="fill:rgb(41,47,51);fill-rule:nonzero;stroke:rgb(27,32,49);stroke-width:6.12px;"/>
            </g>
            <g transform="matrix(0.654673,0,0,0.654673,-15.7822,15.1558)">
                <ellipse cx="199.975" cy="152.997" rx="51.317" ry="58.275" style="fill:rgb(225,232,237);"/>
            </g>
            <g transform="matrix(-0.0725646,0.717973,0.336191,0.0339783,109.372,112.439)">
                <path d="M22.091,-41.365C39.547,-40.883 51.156,-22.317 50.826,-9.19C50.495,3.938 39.547,13.353 22.091,12.87C4.636,12.387 -13.9,-5.223 -11.585,-21.889C-9.772,-34.939 1.115,-41.945 22.091,-41.365Z" style="fill:rgb(41,47,51);fill-rule:nonzero;stroke:rgb(27,32,49);stroke-width:8.87px;"/>
            </g>
        </g>
    </g>
</svg>
