<?xml version="1.0" encoding="UTF-8" standalone="no"?>
<!DOCTYPE svg PUBLIC "-//W3C//DTD SVG 1.1//EN" "http://www.w3.org/Graphics/SVG/1.1/DTD/svg11.dtd">
<svg width="100%" height="100%" viewBox="0 0 512 512" version="1.1" xmlns="http://www.w3.org/2000/svg" xmlns:xlink="http://www.w3.org/1999/xlink" xml:space="preserve" xmlns:serif="http://www.serif.com/" style="fill-rule:evenodd;clip-rule:evenodd;stroke-linecap:round;stroke-linejoin:round;stroke-miterlimit:1.5;">
    <rect id="Artboard1" x="0" y="0" width="512" height="512" style="fill:none;"/>
    <clipPath id="_clip1">
        <rect id="Artboard11" serif:id="Artboard1" x="0" y="0" width="512" height="512"/>
    </clipPath>
    <g clip-path="url(#_clip1)">
        <g transform="matrix(-1,0,0,1,18.5685,264.278)">
            <path d="M-8.128,-29.073C-32.664,-39.387 -45.2,-23.539 -45.2,-23.539L-85.729,-70.709C-85.729,-70.709 -79.944,-115.277 -109.296,-128.536C-128.437,-137.183 -308.11,-264.869 -308.11,-264.869C-308.11,-264.869 -314.807,-195.698 -259.761,-150.694C-315.546,-190.091 -410.333,-252.317 -410.333,-252.317C-410.333,-252.317 -437.009,-173.285 -359.542,-117.281C-376.817,-106.433 -425.87,-93.424 -451.66,-58.743C-473.194,-29.786 -500.861,25.173 -472.916,89.943C-463.876,110.893 -485.872,146.265 -487.306,168.312C-381.232,239.402 -273.769,219.283 -242.365,216.976C-254.775,116.758 -341.643,27.253 -243.346,33.987C-188.373,37.754 -131.611,115.148 -99.91,112.006C-73.434,109.381 -43.456,80.255 -43.456,80.255L12.144,-7.623C12.144,-7.623 16.407,-18.758 -8.128,-29.073" style="fill:url(#_Linear2);fill-rule:nonzero;"/>
            <clipPath id="_clip3">
                <path d="M-8.128,-29.073C-32.664,-39.387 -45.2,-23.539 -45.2,-23.539L-85.729,-70.709C-85.729,-70.709 -79.944,-115.277 -109.296,-128.536C-128.437,-137.183 -308.11,-264.869 -308.11,-264.869C-308.11,-264.869 -314.807,-195.698 -259.761,-150.694C-315.546,-190.091 -410.333,-252.317 -410.333,-252.317C-410.333,-252.317 -437.009,-173.285 -359.542,-117.281C-376.817,-106.433 -425.87,-93.424 -451.66,-58.743C-473.194,-29.786 -500.861,25.173 -472.916,89.943C-463.876,110.893 -485.872,146.265 -487.306,168.312C-381.232,239.402 -273.769,219.283 -242.365,216.976C-254.775,116.758 -341.643,27.253 -243.346,33.987C-188.373,37.754 -131.611,115.148 -99.91,112.006C-73.434,109.381 -43.456,80.255 -43.456,80.255L12.144,-7.623C12.144,-7.623 16.407,-18.758 -8.128,-29.073" clip-rule="nonzero"/>
            </clipPath>
            <g clip-path="url(#_clip3)">
                <g transform="matrix(-6.12323e-17,1,1,6.12323e-17,-494.129,-264.396)">
                    <rect x="1.115" y="0.997" width="510.586" height="510.586" style="fill:url(#_Linear4);"/>
                </g>
            </g>
        </g>
        <g transform="matrix(0.530963,-0.847395,0.847395,0.530963,47.6764,254.841)">
            <path d="M-10.739,-19.403C-17.74,-19.403 -23.413,-13.729 -23.414,-6.728C-23.414,0.271 -17.739,5.946 -10.739,5.945C-3.739,5.944 1.935,0.271 1.936,-6.729C1.936,-13.729 -3.739,-19.403 -10.739,-19.403" style="fill:rgb(35,31,32);fill-rule:nonzero;"/>
        </g>
        <g transform="matrix(1.72894,-0.982109,0.982109,1.72894,-362.015,-41.1731)">
            <ellipse cx="205.07" cy="271.455" rx="13.288" ry="13.964" style="fill:rgb(35,31,32);"/>
        </g>
        <g transform="matrix(0.990055,-0.14068,-0.14068,-0.990055,-623.116,729.658)">
            <path d="M734.248,291.889C734.016,280.816 748.702,283.115 760.204,290.615C766.017,294.406 785.294,268.623 796.992,268.48C809.001,268.333 820.501,284.739 829.367,286.426C843.239,289.067 864.706,282.518 865.566,293.978C866.386,304.905 836.956,314.607 826.794,313.371C818.968,312.419 804.479,296.55 799.17,297.03C793.186,297.57 767.345,323.925 762.384,321.021C752.33,315.136 734.376,298.04 734.248,291.889Z" style="fill:rgb(35,31,32);"/>
        </g>
        <g transform="matrix(0.869509,-0.493917,0.493917,0.869509,-532.814,311.932)">
            <path d="M660.41,268.971C700.321,293.064 741.631,298.422 788.816,297.804" style="fill:none;stroke:rgb(35,31,32);stroke-width:21.66px;"/>
        </g>
        <g transform="matrix(0.904911,0,0,0.879345,344.314,123.247)">
            <g transform="matrix(1.43469,1.26175,1.26175,-1.43469,-156.05,34.3066)">
                <path d="M89.557,33.592C96.239,54.421 88.96,62.843 67.986,51.883" style="fill:none;stroke:rgb(146,4,0);stroke-width:15.56px;"/>
            </g>
            <g transform="matrix(-1.43469,-1.26175,1.26175,-1.43469,140.973,303.157)">
                <path d="M89.557,33.592C99.346,58.95 91.151,65.911 67.986,51.883" style="fill:none;stroke:rgb(146,4,0);stroke-width:16px;"/>
            </g>
            <g transform="matrix(1.43469,1.26175,-1.26175,1.43469,20.629,-161.488)">
                <path d="M89.557,33.592C98.966,56.561 92.443,66.052 67.986,51.883" style="fill:none;stroke:rgb(146,4,0);stroke-width:16px;"/>
            </g>
            <g transform="matrix(-1.43469,-1.26175,-1.26175,1.43469,317.079,108.338)">
                <path d="M89.557,33.592C99.797,51.74 92.761,60.44 67.986,51.883" style="fill:none;stroke:rgb(146,4,0);stroke-width:15.56px;"/>
            </g>
        </g>
    </g>
    <defs>
        <linearGradient id="_Linear2" x1="0" y1="0" x2="1" y2="0" gradientUnits="userSpaceOnUse" gradientTransform="matrix(510.517,0,0,477.717,-492.69,5.04465)"><stop offset="0" style="stop-color:rgb(82,174,211);stop-opacity:1"/><stop offset="1" style="stop-color:rgb(255,186,0);stop-opacity:1"/></linearGradient>
        <linearGradient id="_Linear4" x1="0" y1="0" x2="1" y2="0" gradientUnits="userSpaceOnUse" gradientTransform="matrix(510.586,0,0,510.586,1.11507,256.29)"><stop offset="0" style="stop-color:rgb(255,70,60);stop-opacity:1"/><stop offset="0.62" style="stop-color:rgb(255,185,0);stop-opacity:1"/><stop offset="1" style="stop-color:rgb(255,186,0);stop-opacity:1"/></linearGradient>
    </defs>
</svg>
