<?xml version="1.0" encoding="UTF-8" standalone="no"?>
<!DOCTYPE svg PUBLIC "-//W3C//DTD SVG 1.1//EN" "http://www.w3.org/Graphics/SVG/1.1/DTD/svg11.dtd">
<svg width="100%" height="100%" viewBox="0 0 512 512" version="1.1" xmlns="http://www.w3.org/2000/svg" xmlns:xlink="http://www.w3.org/1999/xlink" xml:space="preserve" xmlns:serif="http://www.serif.com/" style="fill-rule:evenodd;clip-rule:evenodd;stroke-linejoin:round;stroke-miterlimit:2;">
    <rect id="Artboard1" x="0" y="0" width="512" height="512" style="fill:none;"/>
    <clipPath id="_clip1">
        <rect id="Artboard11" serif:id="Artboard1" x="0" y="0" width="512" height="512"/>
    </clipPath>
    <g clip-path="url(#_clip1)">
        <g id="Layer-2" serif:id="Layer 2">
            <g transform="matrix(1,0,0,1,42.8599,460.333)">
                <path d="M7.066,-315.596C34.206,-313.779 38.422,-293.476 38.422,-293.476L97.025,-318.116C97.025,-318.116 112.107,-361.664 144.996,-360.333C156.889,-362.548 151.066,-360.133 211.273,-384.284C216.248,-386.28 222.008,-387.851 227.327,-390.256C282.15,-415.051 307.613,-460.333 307.613,-460.333C307.613,-460.333 372.24,-423.044 323.05,-350.772C323.537,-349.31 330.142,-351.65 331.394,-349.844C333.231,-350.301 396.272,-356.14 465.289,-376.904C465.289,-376.904 491.546,-324.272 406.935,-281.774C396.178,-277.414 419.868,-254.141 425.283,-222.083C430.883,-188.928 430.85,-159.813 411.231,-102.333C390.858,-42.639 346.417,29.116 334.189,40.316C209.672,68.616 87.248,-19.434 110.729,-38.956C142.308,-65.21 183.291,-99.531 200.371,-123.333C215.863,-144.923 251.579,-179.964 229.817,-178.997C173.283,-176.485 51.565,-128.071 26.481,-143.973C3.479,-158.552 -10.611,-199.057 -10.611,-199.057L-21.269,-305.238C-21.269,-305.238 -20.074,-317.413 7.066,-315.596" style="fill:rgb(255,186,0);fill-rule:nonzero;"/>
            </g>
            <g transform="matrix(-0.829036,0.559195,0.559195,0.829036,49.7523,181.237)">
                <path d="M-11.366,-9.298C-4.918,-9.271 0.309,-4.018 0.31,2.435C0.31,8.888 -4.918,14.098 -11.366,14.071C-17.814,14.045 -23.042,8.792 -23.042,2.339C-23.042,-4.115 -17.814,-9.325 -11.366,-9.298" style="fill:rgb(35,31,32);fill-rule:nonzero;"/>
            </g>
            <g transform="matrix(-0.655273,0.755392,0.755392,0.655273,240.259,183.098)">
                <path d="M9.83,-18.996C19.827,-15.427 37.008,-6.008 36.677,7.12C36.347,20.248 25.399,29.663 7.943,29.18C-9.513,28.697 -21.131,14.764 -23.06,0.835C-25.387,-15.974 -9.253,-25.809 9.83,-18.996Z" style="fill:rgb(47,47,47);fill-rule:nonzero;stroke:rgb(27,32,49);stroke-width:4.34px;"/>
            </g>
            <path d="M-8.096,301.082L33.07,264.615C33.07,264.615 41.891,281.539 47.772,286.93C53.653,292.321 81.588,256 81.588,256L121.166,291.831L146.277,256L335.756,342.798L420.229,619.2L-147.277,594.207L-8.096,301.082Z" style="fill:none;"/>
            <clipPath id="_clip2">
                <path d="M-8.096,301.082L33.07,264.615C33.07,264.615 41.891,281.539 47.772,286.93C53.653,292.321 81.588,256 81.588,256L121.166,291.831L146.277,256L335.756,342.798L420.229,619.2L-147.277,594.207L-8.096,301.082Z"/>
            </clipPath>
            <g clip-path="url(#_clip2)">
                <g transform="matrix(0.784781,-4.69009e-17,4.69009e-17,0.784781,-954.557,70.8111)">
                    <g transform="matrix(0.967877,0,0,0.967877,16.0138,8.22342)">
                        <circle cx="1377.91" cy="381.102" r="125.102" style="fill:rgb(185,147,121);"/>
                    </g>
                    <g transform="matrix(0.175977,0,0,0.175977,1110.55,314.324)">
                        <circle cx="1377.91" cy="381.102" r="125.102" style="fill:rgb(134,92,81);"/>
                    </g>
                    <g transform="matrix(0.197131,0,0,0.197131,1133.03,362.105)">
                        <circle cx="1377.91" cy="381.102" r="125.102" style="fill:rgb(134,92,81);"/>
                    </g>
                    <g transform="matrix(0.154823,0,0,0.154823,1229.87,296.594)">
                        <circle cx="1377.91" cy="381.102" r="125.102" style="fill:rgb(134,92,81);"/>
                    </g>
                    <g transform="matrix(0.0985656,0,0,0.0985656,1204.89,417.999)">
                        <circle cx="1377.91" cy="381.102" r="125.102" style="fill:rgb(134,92,81);"/>
                    </g>
                    <g transform="matrix(0.146358,0,0,0.146358,1067.38,333.499)">
                        <circle cx="1377.91" cy="381.102" r="125.102" style="fill:rgb(134,92,81);"/>
                    </g>
                    <g transform="matrix(0.146358,0,0,0.146358,1169.67,248.03)">
                        <circle cx="1377.91" cy="381.102" r="125.102" style="fill:rgb(134,92,81);"/>
                    </g>
                    <g transform="matrix(0.103267,0,0,0.103267,1164.65,269.843)">
                        <circle cx="1377.91" cy="381.102" r="125.102" style="fill:rgb(134,92,81);"/>
                    </g>
                </g>
            </g>
            <g transform="matrix(0.922101,0,0,0.821036,10.4065,295.386)">
                <path d="M21.591,-43.055C24.848,-29.52 31.661,-17.534 39.815,-6.722C44.702,-0.24 52.038,11.85 60.218,3.976C66.202,-1.784 70.731,-9.846 75.214,-16.962C79.062,-23.072 81.458,-29.894 82.784,-30.228C84.109,-30.561 96.135,-13.556 106.14,-1.539C106.89,-0.639 113.28,7.71 118.353,6.879C124.859,5.814 126.246,1.773 128.697,-1.213C133.962,-7.624 137.09,-12.254 141.945,-19.036C144.732,-22.929 147.495,-26.847 150.14,-30.857C151.852,-33.451 153.964,-36.289 154.945,-39.351C157.915,-48.62 144.661,-54.335 141.691,-45.065C141.229,-43.624 142.033,-45.628 141.902,-45.41C141.553,-44.835 141.236,-44.236 140.889,-43.66C139.823,-41.892 138.679,-40.18 137.534,-38.476C134.5,-33.963 131.354,-29.54 128.174,-25.151C125.117,-20.931 122.023,-16.742 118.853,-12.624C117.652,-11.063 115.817,-11.395 114.47,-12.9C110.577,-17.248 106.208,-22.132 102.457,-26.624C96.784,-33.418 92.723,-40.108 86.079,-46.259C83.156,-48.966 76.957,-47.775 74.949,-44.609C71.176,-38.661 69.015,-32.959 65.604,-26.749C63.291,-22.54 57.317,-11.118 55.071,-11.215C53.154,-11.298 50.253,-16.69 48.145,-19.655C42.683,-27.336 37.751,-35.913 35.485,-45.33C33.18,-54.905 19.267,-52.712 21.591,-43.055" style="fill:rgb(47,47,47);fill-rule:nonzero;stroke:rgb(27,32,49);stroke-width:4.93px;"/>
            </g>
            <g transform="matrix(0.664427,-0.979097,0.801895,0.544176,-246.649,436.068)">
                <path d="M228.498,410.079C230.115,439.007 182.679,432.95 171.373,426.177C160.068,419.405 160.89,393.093 160.666,369.445C160.493,351.248 171.555,305.019 171.555,305.019C180.391,318.938 182.765,316.978 189.276,295.356C189.276,295.356 199.002,317.232 203.859,317.689C208.716,318.146 218.416,298.099 218.416,298.099C218.416,298.099 206.06,345.703 218.138,343.69C230.217,341.676 246.058,315.504 238.287,343.69C222.387,401.357 227.834,398.202 228.498,410.079Z" style="fill:rgb(255,186,0);"/>
            </g>
            <g transform="matrix(0.664427,-0.979097,0.801895,0.544176,-246.649,436.068)">
                <path d="M204.05,314.214C204.261,314.085 204.911,313.673 205.315,313.288C206.386,312.266 207.516,310.798 208.631,309.178C212.438,303.644 215.966,296.332 215.966,296.332C216.702,294.811 218.256,294.206 219.577,294.927C220.898,295.648 221.566,297.464 221.128,299.148C221.128,299.148 217.031,314.96 215.952,327.748C215.603,331.888 215.535,335.682 216.174,338.353C216.445,339.484 216.809,340.39 217.752,340.233C220.667,339.75 223.797,337.599 226.722,335.35C230.661,332.321 234.257,329.051 236.596,327.906C239.195,326.634 241.069,327.396 242.148,329.038C242.746,329.949 243.266,331.467 243.144,333.887C243.033,336.104 242.37,339.605 240.931,344.777C238.999,351.634 237.459,357.658 236.017,362.88C235.582,364.454 235.145,365.944 234.716,367.371C233.987,369.795 233.311,372.009 232.653,374.064C230.45,380.934 228.837,385.818 227.881,389.783C227.675,390.636 227.457,391.406 227.34,392.172C227.318,392.314 227.301,392.456 227.286,392.596L227.252,393.124C226.696,401.818 228.153,403.914 228.498,410.079C229.183,422.183 221.281,428.18 211.024,430.552C200.603,432.961 187.747,431.657 179.023,429.191C178.485,429.039 177.952,428.924 177.459,428.717L177.458,428.717C174.781,428.164 172.565,427.915 170.923,427.298C167.21,425.895 164.24,422.82 162.168,418.156C161.431,416.496 160.998,414.559 160.543,412.559C157.89,400.882 158.133,384.645 157.988,369.483C157.924,362.973 159.241,352.967 161.003,342.691C164.235,323.854 168.931,304.083 168.931,304.083C169.219,302.879 170.036,301.974 171.045,301.74C172.054,301.506 173.086,301.983 173.715,302.974C175.415,305.644 176.849,307.695 178.121,309.075C178.613,309.608 179.063,310.025 179.496,310.298C179.695,310.423 179.86,310.551 180.036,310.511C180.3,310.451 180.495,310.157 180.746,309.822C181.149,309.284 181.543,308.58 181.954,307.721C183.362,304.785 184.834,300.298 186.666,294.184C187.043,292.933 187.985,292.066 189.075,291.97C190.164,291.873 191.199,292.564 191.72,293.736C191.72,293.736 195.297,301.756 199.152,308.041C200.295,309.904 201.457,311.611 202.554,312.862C202.936,313.298 203.305,313.672 203.66,313.957C203.773,314.048 203.944,314.152 204.05,314.214ZM237.772,334.987C236.941,335.533 235.86,336.279 234.959,337.013C230.26,340.839 224.001,346.225 218.525,347.146C216.287,347.52 214.555,346.803 213.209,345.414C211.732,343.891 210.69,341.318 210.256,337.914C209.504,332.013 210.544,323.097 211.913,315.099C211.736,315.339 211.558,315.574 211.38,315.803C209.906,317.703 208.423,319.221 207.101,320.09C205.861,320.904 204.68,321.22 203.642,321.12C202.644,321.024 201.489,320.505 200.295,319.476C199.028,318.385 197.615,316.649 196.207,314.559C193.901,311.136 191.551,306.726 189.781,303.18C188.225,307.828 186.863,311.168 185.549,313.285C184.097,315.624 182.565,316.777 181.04,317.119C179.392,317.489 177.582,316.989 175.597,315.203C174.733,314.426 173.797,313.361 172.771,312.008C171.13,319.215 168.375,331.825 166.26,344.042C164.576,353.77 163.286,363.241 163.343,369.407C163.461,381.683 163.312,394.681 164.718,405.226C165.258,409.278 166.197,412.86 167.165,416.039C168.303,419.779 169.408,422.978 171.824,425.057C173.174,426.218 174.99,427.678 177.458,428.717L177.459,428.717C177.974,428.823 178.489,429.017 179.028,429.164C187.763,431.549 200.598,432.896 211.015,430.495C221.262,428.132 229.165,422.172 228.498,410.079C228.163,404.078 226.606,401.915 227.199,393.805C227.227,393.417 227.243,393.012 227.286,392.596C227.311,392.215 227.335,391.822 227.349,391.414C227.48,387.579 227.583,382.69 228.345,375.833C228.537,374.109 228.743,372.301 229.048,370.345C229.439,367.847 229.925,365.165 230.561,362.267C231.807,356.586 233.612,350.133 235.642,342.602C236.443,339.672 237.368,336.84 237.772,334.987ZM237.977,333.588C237.989,333.061 237.856,332.786 237.52,332.84C237.317,332.873 237.675,333.23 237.759,333.357C237.814,333.44 237.889,333.517 237.977,333.588Z" style="fill:rgb(27,32,49);"/>
            </g>
            <g transform="matrix(-1.29207,-0.199075,-0.179476,1.16486,364.44,29.9775)">
                <path d="M230.335,343.696C239.511,399.73 219.574,430.435 198.778,419.338C185.821,412.424 168.702,375.326 168.702,375.326C185.188,375.447 193.698,380.155 179.059,362.962C179.059,362.962 194.29,364.371 197.307,360.538C200.325,356.705 189.314,343.831 189.314,343.831C189.314,343.831 214.244,357.485 219.101,346.244C223.958,335.003 225.61,314.843 230.335,343.696Z" style="fill:rgb(255,186,0);"/>
            </g>
            <path d="M6.887,379.999L6.778,379.777C7.067,378.051 6.716,376.792 6.795,375.375C6.893,373.601 7.175,372.288 7.413,371.024C7.492,370.601 7.556,370.238 7.689,369.881C8.109,368.752 8.762,367.985 9.229,367.362C10.661,365.451 12.16,364.959 13.247,364.919C14.777,364.864 16.49,365.698 17.624,368.1C18.474,369.902 19.17,373.163 19.853,376.939C20.536,380.716 21.247,385.066 22.376,388.725C22.938,390.545 24.38,391.613 26.181,392.311C28.219,393.1 30.692,393.412 33.314,393.47C44.042,393.704 57.092,389.532 57.092,389.532C58.678,389.032 60.394,389.74 61.165,391.213C61.936,392.686 61.541,394.5 60.226,395.518C60.226,395.518 55.717,399.015 51.994,403.006C50.498,404.609 49.119,406.283 48.316,407.825C48.156,408.134 47.85,408.585 47.74,408.876C48.042,409.31 48.662,409.592 49.362,409.929C50.731,410.588 52.448,411.126 54.263,411.582C60.635,413.183 68.179,413.711 68.179,413.711C69.597,413.81 70.806,414.773 71.221,416.132C71.635,417.491 71.167,418.965 70.046,419.837C66.185,422.825 63.397,425.144 61.552,426.967C61.19,427.325 60.847,427.709 60.552,428.064C61.119,428.194 61.766,428.323 62.376,428.404C66.484,428.95 72.516,429.265 79.584,430.34C80.722,430.507 81.689,431.257 82.136,432.316C82.584,433.376 82.445,434.591 81.771,435.523C81.771,435.523 76.519,443.392 68.396,452.112C67.21,453.384 65.951,454.641 64.585,455.851C61.394,458.676 57.869,461.109 54.37,463.723C53.507,464.368 52.681,465.016 51.832,465.659C51.191,466.144 50.543,466.592 49.929,467.095L49.728,467.273L49.699,467.213C50.003,466.949 50.214,466.763 50.254,466.72C51.351,465.541 52.36,464.291 53.354,462.981C55.675,459.922 57.544,456.67 59.675,453.543C60.597,452.189 61.534,450.902 62.472,449.632C62.93,449.011 63.392,448.409 63.861,447.822C67.528,443.225 70.74,439.098 72.998,436.166C68.122,435.66 63.989,435.429 60.989,435.02C58.495,434.681 56.632,434.145 55.475,433.469C54.391,432.836 53.694,432.032 53.273,431.159C52.785,430.147 52.624,428.979 52.992,427.607C53.281,426.526 54.027,425.139 55.483,423.491C56.442,422.406 57.771,421.122 59.512,419.601C56.447,419.132 52.993,418.464 50.041,417.542C46.17,416.334 43.145,414.501 41.888,412.52C41.097,411.274 40.791,409.823 41.001,408.205C41.229,406.45 42.184,404.362 43.684,402.253C44.433,401.201 45.321,400.126 46.273,399.073C40.572,400.05 33.944,400.685 28.513,399.822C22.323,398.837 17.614,395.951 16.033,390.646C14.38,385.055 13.606,377.96 12.613,373.37L12.48,373.51C11.683,374.405 10.892,375.36 9.8,376.603C9.246,377.233 7.995,378.647 6.887,379.999ZM47.74,408.876C47.706,408.965 47.691,409.038 47.703,409.089C47.715,409.139 47.755,409.167 47.831,409.162C47.938,409.157 47.816,408.987 47.74,408.876Z" style="fill:rgb(27,32,49);"/>
        </g>
    </g>
</svg>
