<?xml version="1.0" encoding="UTF-8" standalone="no"?>
<!DOCTYPE svg PUBLIC "-//W3C//DTD SVG 1.1//EN" "http://www.w3.org/Graphics/SVG/1.1/DTD/svg11.dtd">
<svg width="100%" height="100%" viewBox="0 0 512 512" version="1.1" xmlns="http://www.w3.org/2000/svg" xmlns:xlink="http://www.w3.org/1999/xlink" xml:space="preserve" xmlns:serif="http://www.serif.com/" style="fill-rule:evenodd;clip-rule:evenodd;stroke-linejoin:round;stroke-miterlimit:2;">
    <rect id="Artboard1" x="0" y="0" width="512" height="512" style="fill:none;"/>
    <clipPath id="_clip1">
        <rect id="Artboard11" serif:id="Artboard1" x="0" y="0" width="512" height="512"/>
    </clipPath>
    <g clip-path="url(#_clip1)">
        <g transform="matrix(1.03055,-0.0792466,0.0792466,1.03055,43.5124,558.765)">
            <path d="M35.037,-404.243C62.97,-403.278 67.948,-382.65 67.948,-382.65L157.327,-393.339C157.327,-393.339 165.827,-432.764 230.738,-443.25C248.706,-446.152 358.789,-524.503 358.789,-524.503C358.789,-524.503 405.511,-456.097 329.649,-430.691C400.872,-454.544 480.42,-483.816 480.42,-483.816C480.42,-483.816 516.253,-418.142 407.104,-375.739C469.675,-318.964 467.938,-223.929 465.943,-183.291C463,-123.376 386.979,-71.695 371.979,-48.362C260.588,26.294 142.138,-71.979 123.138,-105.979C179.138,-154.979 304.281,-205.367 250.096,-237.188C200.199,-266.49 99.95,-207.36 71.11,-224.309C47.021,-238.464 19.278,-300.785 19.278,-300.785L6.266,-392.714C6.266,-392.714 7.104,-405.207 35.037,-404.243" style="fill:rgb(255,186,0);fill-rule:nonzero;"/>
        </g>
        <g transform="matrix(-0.259023,1.06948,0.861825,0.20873,262.244,155.043)">
            <path d="M22.091,-41.365C39.547,-40.883 51.156,-22.317 50.826,-9.19C50.495,3.938 39.547,13.353 22.091,12.87C4.636,12.387 -13.9,-5.223 -11.585,-21.889C-9.772,-34.939 1.115,-41.945 22.091,-41.365" style="fill:rgb(47,47,47);fill-rule:nonzero;stroke:rgb(27,32,49);stroke-width:4.34px;"/>
        </g>
        <g transform="matrix(-0.614315,-0.831222,-0.831222,0.614315,28.4657,169.663)">
            <path d="M-11.278,-20.376C-18.629,-20.376 -24.588,-14.417 -24.588,-7.066C-24.588,0.284 -18.629,6.243 -11.279,6.243C-3.928,6.243 2.031,0.284 2.031,-7.066C2.031,-14.417 -3.928,-20.376 -11.278,-20.376" style="fill:rgb(35,31,32);fill-rule:nonzero;"/>
        </g>
        <g transform="matrix(1.29076,-0.292106,0.288328,1.27407,-15.6154,53.225)">
            <path d="M19.677,186.716C8.487,179.498 -3.772,140.79 6.72,137.946C17.211,135.101 97.125,155.75 108.266,160.585C131.165,170.523 167.335,185.305 160.813,197.698C146.618,224.673 100.018,192.327 92.038,187.668C77.613,179.247 33.707,195.764 19.677,186.716Z" style="fill:rgb(47,47,47);"/>
            <clipPath id="_clip2">
                <path d="M19.677,186.716C8.487,179.498 -3.772,140.79 6.72,137.946C17.211,135.101 97.125,155.75 108.266,160.585C131.165,170.523 167.335,185.305 160.813,197.698C146.618,224.673 100.018,192.327 92.038,187.668C77.613,179.247 33.707,195.764 19.677,186.716Z"/>
            </clipPath>
            <g clip-path="url(#_clip2)">
                <g transform="matrix(2.15545,0.316532,-0.316532,2.15545,-35.5165,-349.659)">
                    <path d="M41.395,215.216L54.706,238.949L71.279,215.216L41.395,215.216Z" style="fill:white;stroke:rgb(27,32,49);stroke-width:1.72px;stroke-linecap:round;stroke-miterlimit:1.5;"/>
                </g>
                <g transform="matrix(2.11215,0.538386,-0.532643,2.11131,121.329,-324.591)">
                    <path d="M41.395,215.216L54.706,238.949L71.279,215.216L41.395,215.216Z" style="fill:white;stroke:rgb(27,32,49);stroke-width:3.01px;stroke-linecap:round;stroke-miterlimit:1.5;"/>
                </g>
                <g transform="matrix(2.15545,0.316532,-0.316532,2.15545,111.26,-317.477)">
                    <path d="M41.395,215.216L54.706,238.949L71.279,215.216L41.395,215.216Z" style="fill:white;stroke:rgb(27,32,49);stroke-width:3.01px;stroke-linecap:round;stroke-miterlimit:1.5;"/>
                </g>
                <g transform="matrix(-2.14079,-0.403946,0.403946,-2.14079,160.995,705.11)">
                    <path d="M41.395,215.216L54.706,238.949L71.279,215.216L41.395,215.216Z" style="fill:white;stroke:rgb(27,32,49);stroke-width:3.01px;stroke-linecap:round;stroke-miterlimit:1.5;"/>
                </g>
                <g transform="matrix(-2.14079,-0.403946,0.403946,-2.14079,60.7458,676.658)">
                    <path d="M42.406,214.541L54.606,241.945L71.279,215.216L42.406,214.541Z" style="fill:white;stroke:rgb(27,32,49);stroke-width:3.01px;stroke-linecap:round;stroke-miterlimit:1.5;"/>
                </g>
                <g transform="matrix(-2.19936,-0.414996,0.475506,-2.52004,101.5,767.799)">
                    <path d="M41.395,215.216L54.706,238.949L68.908,215.526L41.395,215.216Z" style="fill:white;stroke:rgb(27,32,49);stroke-width:2.73px;stroke-linecap:round;stroke-miterlimit:1.5;"/>
                </g>
                <g transform="matrix(2.15545,0.316532,-0.316532,2.15545,12.3404,-343.311)">
                    <path d="M44.089,213.746L54.706,238.949L71.279,215.216L44.089,213.746Z" style="fill:white;stroke:rgb(27,32,49);stroke-width:3.01px;stroke-linecap:round;stroke-miterlimit:1.5;"/>
                </g>
            </g>
            <path d="M16.756,191.365C20.237,193.611 25.155,194.78 31.014,194.989C38.356,195.251 47.381,194.101 56.422,192.891C64.853,191.763 73.299,190.579 80.215,190.715C83.907,190.787 87.088,191.14 89.321,192.444C94.283,195.34 113.698,208.461 131.575,212.54C145.631,215.747 158.675,213.477 165.614,200.291C168.627,194.566 166.856,188.135 160.362,182.049C150.19,172.515 126.979,162.71 110.409,155.519C102.495,152.085 60.402,140.734 32.199,135.255C19.121,132.714 8.769,131.684 5.313,132.621C2.574,133.364 0.46,135.125 -0.943,137.862C-2.261,140.431 -2.904,144.194 -2.655,148.68C-2.193,157.005 1.196,168.339 5.709,177.243C9.015,183.764 13.027,188.96 16.756,191.365ZM19.677,186.716C8.487,179.498 -3.772,140.79 6.72,137.946C17.211,135.101 97.125,155.75 108.266,160.585C131.165,170.523 167.335,185.305 160.813,197.698C146.618,224.673 100.018,192.327 92.038,187.668C77.613,179.247 33.707,195.764 19.677,186.716Z" style="fill:rgb(27,32,49);"/>
        </g>
    </g>
</svg>
