<?xml version="1.0" encoding="UTF-8" standalone="no"?>
<!DOCTYPE svg PUBLIC "-//W3C//DTD SVG 1.1//EN" "http://www.w3.org/Graphics/SVG/1.1/DTD/svg11.dtd">
<svg width="100%" height="100%" viewBox="0 0 512 512" version="1.1" xmlns="http://www.w3.org/2000/svg" xmlns:xlink="http://www.w3.org/1999/xlink" xml:space="preserve" xmlns:serif="http://www.serif.com/" style="fill-rule:evenodd;clip-rule:evenodd;stroke-miterlimit:10;">
    <g id="Layer-2" serif:id="Layer 2">
        <g transform="matrix(1.03956,-0.0200457,0.0192793,0.999814,14.1034,471.604)">
            <path d="M62.132,-374.475C88.328,-367.15 84.716,-348.21 84.716,-348.21L137.061,-356.046C137.061,-356.046 138.367,-378.737 171.179,-376.07C179.912,-378.721 178.651,-378.899 211.366,-387.253C216.56,-388.58 223.111,-387.885 228.099,-390.919C284.614,-425.294 344.729,-466.431 344.729,-466.431C344.729,-466.431 389.707,-420.928 320.901,-359.149C321.178,-357.633 336.633,-344.289 337.633,-342.333C339.515,-342.541 348.864,-344.589 464.958,-383.307C464.958,-383.307 494.64,-309.333 391.754,-275.518C380.92,-271.351 386.023,-263.078 390.14,-253.833C407.412,-215.048 403.14,-160.833 389.64,-102.333C375.458,-40.873 324.826,29.116 312.598,40.316C188.081,68.616 85.859,-20.556 109.34,-40.078C140.919,-66.332 181.902,-100.653 198.982,-124.455C214.474,-146.045 211.64,-193.897 190.14,-197.397C134.285,-206.49 53.728,-179.299 32.422,-199.991C12.885,-218.963 7.368,-261.492 7.368,-261.492L18.632,-367.611C18.632,-367.611 35.936,-381.799 62.132,-374.475" style="fill:rgb(255,186,0);fill-rule:nonzero;"/>
        </g>
        <g transform="matrix(1,0,0,1,61.8893,142.677)">
            <path d="M0,-19.374C-5.331,-15.746 -6.727,-8.468 -3.119,-3.118C0.49,2.232 7.737,3.628 13.068,0C18.399,-3.628 19.795,-10.906 16.187,-16.256C12.578,-21.606 5.331,-23.002 0,-19.374" style="fill:rgb(35,31,32);fill-rule:nonzero;"/>
        </g>
        <g transform="matrix(1,0,0,1,5.32733,20.3966)">
            <g transform="matrix(1,0,0,1,218.784,173.696)">
                <path d="M0,-31.284C-11.074,-17.782 -4.657,3.153 5.476,11.506C15.609,19.858 29.895,17.758 40.969,4.255C52.042,-9.247 50.885,-34.788 36.779,-43.96C25.733,-51.142 13.307,-47.509 0,-31.284" style="fill:rgb(47,47,47);fill-rule:nonzero;"/>
            </g>
            <g transform="matrix(-0.655273,0.755392,0.755392,0.655273,264.507,152.83)">
                <path d="M22.091,-41.365C39.547,-40.883 51.156,-22.317 50.826,-9.19C50.495,3.938 39.547,13.353 22.091,12.87C4.636,12.387 -13.9,-5.223 -11.585,-21.889C-9.772,-34.939 1.115,-41.945 22.091,-41.365Z" style="fill:none;fill-rule:nonzero;stroke:rgb(27,32,49);stroke-width:5px;"/>
            </g>
        </g>
        <g transform="matrix(1,0,0,1,15.9072,19.0498)">
            <g transform="matrix(1,0,0,1,2.0039,234.417)">
                <path d="M0,-43.055C3.257,-29.52 10.07,-17.534 18.224,-6.722C23.111,-0.24 30.447,11.85 38.627,3.976C44.611,-1.784 49.14,-9.846 53.623,-16.962C57.471,-23.072 59.867,-29.894 61.193,-30.228C62.518,-30.561 74.544,-13.556 84.549,-1.539C85.299,-0.639 91.689,7.71 96.762,6.879C103.268,5.814 104.655,1.773 107.106,-1.213C112.371,-7.624 115.499,-12.254 120.354,-19.036C123.141,-22.929 125.904,-26.847 128.549,-30.857C130.261,-33.451 132.373,-36.289 133.354,-39.351C136.324,-48.62 123.07,-54.335 120.1,-45.065C119.638,-43.624 120.442,-45.628 120.311,-45.41C119.962,-44.835 119.645,-44.236 119.298,-43.66C118.232,-41.892 117.088,-40.18 115.943,-38.476C112.909,-33.963 109.763,-29.54 106.583,-25.151C103.526,-20.931 100.432,-16.742 97.262,-12.624C96.061,-11.063 94.226,-11.395 92.879,-12.9C88.986,-17.248 84.617,-22.132 80.866,-26.624C75.193,-33.418 71.132,-40.108 64.488,-46.259C61.565,-48.966 55.366,-47.775 53.358,-44.609C49.585,-38.661 47.424,-32.959 44.013,-26.749C41.7,-22.54 35.726,-11.118 33.48,-11.215C31.563,-11.298 28.662,-16.69 26.554,-19.655C21.092,-27.336 16.16,-35.913 13.894,-45.33C11.589,-54.905 -2.324,-52.712 0,-43.055" style="fill:rgb(47,47,47);fill-rule:nonzero;"/>
            </g>
            <g transform="matrix(1,0,0,1,2.0039,234.417)">
                <path d="M0,-43.055C3.257,-29.52 10.07,-17.534 18.224,-6.722C23.111,-0.24 30.447,11.85 38.627,3.976C44.611,-1.784 49.14,-9.846 53.623,-16.962C57.471,-23.072 59.867,-29.894 61.193,-30.228C62.518,-30.561 74.544,-13.556 84.549,-1.539C85.299,-0.639 91.689,7.71 96.762,6.879C103.268,5.814 104.655,1.773 107.106,-1.213C112.371,-7.624 115.499,-12.254 120.354,-19.036C123.141,-22.929 125.904,-26.847 128.549,-30.857C130.261,-33.451 132.373,-36.289 133.354,-39.351C136.324,-48.62 123.07,-54.335 120.1,-45.065C119.638,-43.624 120.442,-45.628 120.311,-45.41C119.962,-44.835 119.645,-44.236 119.298,-43.66C118.232,-41.892 117.088,-40.18 115.943,-38.476C112.909,-33.963 109.763,-29.54 106.583,-25.151C103.526,-20.931 100.432,-16.742 97.262,-12.624C96.061,-11.063 94.226,-11.395 92.879,-12.9C88.986,-17.248 84.617,-22.132 80.866,-26.624C75.193,-33.418 71.132,-40.108 64.488,-46.259C61.565,-48.966 55.366,-47.775 53.358,-44.609C49.585,-38.661 47.424,-32.959 44.013,-26.749C41.7,-22.54 35.726,-11.118 33.48,-11.215C31.563,-11.298 28.662,-16.69 26.554,-19.655C21.092,-27.336 16.16,-35.913 13.894,-45.33C11.589,-54.905 -2.324,-52.712 0,-43.055Z" style="fill:none;fill-rule:nonzero;stroke:rgb(27,32,49);stroke-width:4px;"/>
            </g>
        </g>
        <g transform="matrix(0.931808,0,0,1.03631,-119.161,-61.4971)">
            <path d="M187.248,311.021C187.248,311.021 172.437,397.483 180.169,410.543C184.15,417.267 200.571,350.519 211.207,351.248C215.785,351.562 224.086,409.186 227.519,407.034C243.475,397.036 246.571,311.139 246.571,311.139C242.23,309.488 231.031,298.052 212.613,276.317C206.746,288.243 198.065,300.396 187.248,311.021Z" style="fill:rgb(215,89,139);"/>
        </g>
    </g>
</svg>
