<?xml version="1.0" encoding="UTF-8" standalone="no"?>
<!DOCTYPE svg PUBLIC "-//W3C//DTD SVG 1.1//EN" "http://www.w3.org/Graphics/SVG/1.1/DTD/svg11.dtd">
<svg width="100%" height="100%" viewBox="0 0 512 512" version="1.1" xmlns="http://www.w3.org/2000/svg" xmlns:xlink="http://www.w3.org/1999/xlink" xml:space="preserve" xmlns:serif="http://www.serif.com/" style="fill-rule:evenodd;clip-rule:evenodd;stroke-miterlimit:10;">
    <g transform="matrix(0.373662,0.154704,-0.262868,0.634914,-298.83,-270.806)">
        <path d="M1375.42,266.148L1356.38,265.984C1356.38,265.984 1340.28,330.459 1255.68,329.408C1149.68,328.09 1139.98,180.651 1139.98,180.651L1353.31,234.08L1381.24,233.507L1375.42,266.148Z" style="fill:rgb(47,47,47);"/>
    </g>
    <rect id="Artboard1" x="0" y="0" width="512" height="512" style="fill:none;"/>
    <clipPath id="_clip1">
        <rect id="Artboard11" serif:id="Artboard1" x="0" y="0" width="512" height="512"/>
    </clipPath>
    <g clip-path="url(#_clip1)">
        <g id="Layer-2" serif:id="Layer 2">
            <g transform="matrix(1,0,0,1,42.8599,460.333)">
                <path d="M0,-376.63C26.196,-369.305 26.175,-348.569 26.175,-348.569L88.576,-360.715C88.576,-360.715 112.238,-400.262 144.161,-392.239C156.256,-391.977 169.436,-387.44 234.189,-391.344C239.54,-391.666 245.856,-389.853 251.308,-391.941C313.084,-415.591 379.617,-445.246 379.617,-445.246C379.617,-445.246 415.678,-392.396 336.883,-343.999C336.883,-342.458 336.633,-344.289 337.633,-342.333C339.515,-342.541 348.864,-344.589 464.958,-383.307C464.958,-383.307 494.64,-309.333 391.754,-275.518C380.92,-271.351 386.023,-263.078 390.14,-253.833C407.412,-215.048 403.14,-160.833 389.64,-102.333C375.458,-40.873 324.826,29.116 312.598,40.316C188.081,68.616 65.657,-19.434 89.138,-38.956C120.717,-65.21 161.7,-99.531 178.78,-123.333C194.272,-144.923 211.64,-193.897 190.14,-197.397C134.285,-206.49 5.243,-183.968 -16.063,-204.66C-35.6,-223.632 -41.117,-266.161 -41.117,-266.161L-29.853,-372.28C-29.853,-372.28 -26.196,-383.954 0,-376.63" style="fill:rgb(255,186,0);fill-rule:nonzero;"/>
            </g>
            <g transform="matrix(-0.829036,0.559195,0.559195,0.829036,48.2208,113.618)">
                <path d="M6.534,-21.372C12.982,-21.345 18.21,-16.092 18.21,-9.639C18.21,-3.185 12.982,2.024 6.534,1.998C0.086,1.971 -5.142,-3.282 -5.142,-9.735C-5.142,-16.189 0.086,-21.398 6.534,-21.372" style="fill:rgb(35,31,32);fill-rule:nonzero;"/>
            </g>
            <g transform="matrix(-0.655273,0.755392,0.755392,0.655273,222.127,139.542)">
                <path d="M22.091,-41.365C39.547,-40.883 51.156,-22.317 50.826,-9.19C50.495,3.938 39.547,13.353 22.091,12.87C4.636,12.387 -13.9,-5.223 -11.585,-21.889C-9.772,-34.939 1.115,-41.945 22.091,-41.365" style="fill:rgb(47,47,47);fill-rule:nonzero;"/>
            </g>
            <g transform="matrix(-0.655273,0.755392,0.755392,0.655273,222.127,139.542)">
                <path d="M22.091,-41.365C39.547,-40.883 51.156,-22.317 50.826,-9.19C50.495,3.938 39.547,13.353 22.091,12.87C4.636,12.387 -13.9,-5.223 -11.585,-21.889C-9.772,-34.939 1.115,-41.945 22.091,-41.365Z" style="fill:none;fill-rule:nonzero;stroke:rgb(27,32,49);stroke-width:5px;"/>
            </g>
            <g transform="matrix(1.1653,0,0,0.957498,-18.0431,238.651)">
                <path d="M16.834,-43.055C19.241,-29.52 24.275,-17.534 30.301,-6.722C33.912,-0.24 39.333,11.85 45.378,3.976C49.8,-1.784 52.994,-8.298 55.448,-13.343C57.578,-17.722 61.014,-22.928 63.54,-23.016C67.547,-23.155 74.544,-13.556 84.549,-1.539C85.299,-0.639 91.656,6.434 96.762,6.879C100.49,7.204 104.074,6.675 107.252,4.986C114.078,1.359 118.38,-1.559 124.935,-5.713C128.699,-8.097 132.447,-10.516 136.113,-13.072C138.485,-14.725 141.303,-16.428 143.136,-18.842C148.684,-26.149 138.062,-37.363 132.514,-30.055C131.652,-28.919 134.392,-31.794 134.204,-31.649C133.707,-31.269 131.842,-29.486 131.346,-29.104C129.823,-27.932 128.244,-26.847 126.666,-25.77C122.487,-22.919 118.231,-20.201 113.953,-17.53C109.84,-14.961 105.563,-11.042 99.707,-9.955C97.585,-9.561 95.157,-11.262 92.879,-12.9C88.33,-16.172 84.245,-19.402 80.866,-22.742C75.728,-27.819 71.201,-34.356 65.677,-36.368C63.22,-37.264 58.52,-35.611 55.966,-32.559C53.083,-29.114 51.224,-24.215 48.704,-20.5C46.994,-17.983 43.234,-11.118 41.574,-11.215C40.158,-11.298 38.014,-16.69 36.456,-19.655C32.42,-27.336 28.776,-35.913 27.101,-45.33C25.398,-54.905 15.117,-52.712 16.834,-43.055Z" style="fill:rgb(47,47,47);fill-rule:nonzero;stroke:rgb(27,32,49);stroke-width:3.75px;"/>
            </g>
        </g>
        <g transform="matrix(0.649034,0.268714,-0.290412,0.701442,-678.494,-445.682)">
            <path d="M1367.32,232.628L1409.43,232.927L1627.76,181.804C1627.76,181.804 1633.3,321.208 1496.3,330.177C1413.59,335.591 1400.97,266.369 1400.97,266.369L1361.98,254.914L1367.32,232.628Z" style="fill:rgb(47,47,47);"/>
            <g transform="matrix(0.621535,0.0973393,-0.113694,0.621535,567.134,-35.4676)">
                <path d="M1173.26,224.688C1172.23,222.09 1172.9,219.174 1175,217.197C1177.09,215.221 1180.23,214.538 1183.06,215.443C1202.95,221.806 1237.05,232.722 1250.37,236.984C1251.8,237.441 1252.96,238.432 1253.56,239.716C1254.16,241 1254.15,242.459 1253.54,243.739C1246.62,258.104 1226.88,298.562 1224.54,297.504C1200.85,286.788 1181.96,246.419 1173.26,224.688Z" style="fill:white;"/>
            </g>
            <g transform="matrix(1,0,0,1,250.902,8.56495)">
                <path d="M1167.61,245.659C1167.31,244.471 1167.55,243.22 1168.26,242.194C1168.98,241.167 1170.11,240.452 1171.4,240.211C1183.12,238.026 1212.82,232.498 1225.3,230.176C1226.48,229.956 1227.7,230.33 1228.51,231.161C1229.31,231.992 1229.58,233.154 1229.22,234.217C1224.09,249.12 1209.26,291.593 1206.65,291.71C1182.31,292.804 1170.95,258.288 1167.61,245.659Z" style="fill:white;"/>
            </g>
        </g>
    </g>
</svg>
