<?xml version="1.0" encoding="UTF-8" standalone="no"?>
<!DOCTYPE svg PUBLIC "-//W3C//DTD SVG 1.1//EN" "http://www.w3.org/Graphics/SVG/1.1/DTD/svg11.dtd">
<svg width="100%" height="100%" viewBox="0 0 512 512" version="1.1" xmlns="http://www.w3.org/2000/svg" xmlns:xlink="http://www.w3.org/1999/xlink" xml:space="preserve" xmlns:serif="http://www.serif.com/" style="fill-rule:evenodd;clip-rule:evenodd;stroke-linejoin:round;stroke-miterlimit:2;">
    <g id="Artboard2" transform="matrix(-1,0,0,1,1074,0)">
        <rect x="562" y="0" width="512" height="512" style="fill:none;"/>
        <clipPath id="_clip1">
            <rect x="562" y="0" width="512" height="512"/>
        </clipPath>
        <g clip-path="url(#_clip1)">
            <g transform="matrix(-1.099611,0.028199,0.028199,1.099611,554.50036,579.311717)">
                <path d="M-32.579,-319.363C-56.433,-328.978 -66.841,-307.268 -66.841,-307.268L-108.135,-323.761C-108.135,-323.761 -92.219,-392.288 -142.748,-420.267C-178.756,-440.205 -220.022,-442.536 -220.022,-442.536C-254.751,-470.756 -293.329,-496.264 -336.99,-518.191C-336.99,-518.191 -374.934,-466.899 -341.169,-440.557C-325.726,-428.51 -299.756,-428.73 -290.181,-426.874C-294.3,-427.74 -481.245,-480.078 -481.245,-480.078C-481.245,-480.078 -481.292,-479.334 -481.288,-477.99C-481.272,-473.252 -475.628,-433.913 -451.539,-407.596C-427,-380.787 -392.755,-380.843 -395.662,-376.905C-437.638,-320.046 -442.709,-252.677 -429.536,-190.647C-415.706,-125.519 -389.584,-83.035 -389.584,-83.035C-357.51,-51.019 -87.815,-39.334 -76.31,-97.01C-88.905,-116.298 -137.636,-150.621 -194.63,-165.446C-240.93,-177.49 -209.28,-227.38 -187.809,-215.706C-153.73,-197.176 -103.493,-184.259 -73.927,-202.82C-55.911,-214.13 -44.513,-236.316 -44.513,-236.316L-14.409,-300.526C-14.409,-300.526 -8.725,-309.749 -32.579,-319.363Z" style="fill:rgb(255,186,0);fill-rule:nonzero;"/>
                <clipPath id="_clip2">
                    <path d="M-32.579,-319.363C-56.433,-328.978 -66.841,-307.268 -66.841,-307.268L-108.135,-323.761C-108.135,-323.761 -92.219,-392.288 -142.748,-420.267C-178.756,-440.205 -220.022,-442.536 -220.022,-442.536C-254.751,-470.756 -293.329,-496.264 -336.99,-518.191C-336.99,-518.191 -374.934,-466.899 -341.169,-440.557C-325.726,-428.51 -299.756,-428.73 -290.181,-426.874C-294.3,-427.74 -481.245,-480.078 -481.245,-480.078C-481.245,-480.078 -481.292,-479.334 -481.288,-477.99C-481.272,-473.252 -475.628,-433.913 -451.539,-407.596C-427,-380.787 -392.755,-380.843 -395.662,-376.905C-437.638,-320.046 -442.709,-252.677 -429.536,-190.647C-415.706,-125.519 -389.584,-83.035 -389.584,-83.035C-357.51,-51.019 -87.815,-39.334 -76.31,-97.01C-88.905,-116.298 -137.636,-150.621 -194.63,-165.446C-240.93,-177.49 -209.28,-227.38 -187.809,-215.706C-153.73,-197.176 -103.493,-184.259 -73.927,-202.82C-55.911,-214.13 -44.513,-236.316 -44.513,-236.316L-14.409,-300.526C-14.409,-300.526 -8.725,-309.749 -32.579,-319.363Z" clip-rule="nonzero"/>
                </clipPath>
                <g clip-path="url(#_clip2)">
                    <g transform="matrix(1.984095,77.3703,76.372711,-1.958512,-289.360372,-286.602672)">
                        <ellipse cx="-0" cy="0" rx="1" ry="1" style="fill:url(#_Radial3);"/>
                    </g>
                    <g transform="matrix(1.984095,77.3703,76.372711,-1.958512,-100.036939,-340.430608)">
                        <ellipse cx="-0" cy="0" rx="1" ry="1" style="fill:url(#_Radial4);"/>
                    </g>
                    <g transform="matrix(0.805453,0.644306,0.618124,-0.772722,-458.639733,50.540132)">
                        <path d="M76.703,343.788C33.675,330.881 -77.664,292.619 -107.723,331.994C-76.763,304.316 -8.934,362.651 42.26,380.464C72.95,374.758 223.191,376.043 223.191,376.043C288.615,208.655 -113.276,-190.29 -155.953,173.265C-3.036,16.588 249.988,395.773 76.703,343.788Z" style="fill:rgb(226,137,64);"/>
                    </g>
                    <g transform="matrix(-1.30525,0.229599,0.171431,0.97457,-229.741683,-644.756714)">
                        <path d="M121.161,227.4C158.027,249.753 222.185,144.138 214.526,122.03C234.464,151.979 222.847,440.012 208.429,363.768C181.707,222.465 129.516,249.016 121.161,227.4Z" style="fill:rgb(226,137,64);"/>
                    </g>
                    <g transform="matrix(-0.049616,-1.324361,-0.988839,0.037046,-12.784847,-189.717011)">
                        <path d="M198.769,321.809C224.91,217.983 201.741,154.688 197.368,202.216C204.828,248.611 203.098,258.876 198.769,321.809Z" style="fill:rgb(226,137,64);"/>
                    </g>
                    <g transform="matrix(-0.049616,-1.324361,-0.988839,0.037046,13.536179,-126.847054)">
                        <path d="M161.358,300.996C205.09,297.504 218.528,187.269 180.683,190.229C130.571,199.338 131.463,303.383 161.358,300.996Z" style="fill:rgb(226,137,64);"/>
                    </g>
                    <g transform="matrix(-0.018329,-1.325163,0.989439,-0.013686,-348.2929,-133.463635)">
                        <path d="M161.358,300.996C194.039,311.201 204.681,193.216 180.683,190.229C131.264,188.203 132.959,292.129 161.358,300.996Z" style="fill:rgb(226,137,64);"/>
                    </g>
                </g>
            </g>
            <g transform="matrix(-0.774756,-0.570705,-0.570705,0.774756,590.679174,264.027736)">
                <path d="M-10.739,-19.403C-17.74,-19.403 -23.413,-13.729 -23.414,-6.728C-23.414,0.271 -17.739,5.946 -10.739,5.945C-3.739,5.944 1.935,0.271 1.936,-6.729C1.936,-13.729 -3.739,-19.403 -10.739,-19.403" style="fill:rgb(35,31,32);fill-rule:nonzero;"/>
            </g>
            <g transform="matrix(2.059186,0.934154,0.45443,-1.001715,903.785201,116.770568)">
                <path d="M-11.615,-25.583C-18.615,-25.583 -23.413,-13.729 -23.414,-6.728C-23.414,0.271 -17.645,-9.51 -10.645,-9.511C-3.645,-9.512 1.935,0.271 1.936,-6.729C1.936,-13.729 -4.614,-25.583 -11.615,-25.583Z" style="fill:rgb(226,137,64);fill-rule:nonzero;"/>
            </g>
            <g transform="matrix(2.179781,-0.601204,-0.292463,-1.06038,648.466252,102.01276)">
                <path d="M-11.615,-25.583C-18.615,-25.583 -23.413,-13.729 -23.414,-6.728C-23.414,0.271 -17.645,-9.51 -10.645,-9.511C-3.645,-9.512 1.935,0.271 1.936,-6.729C1.936,-13.729 -4.614,-25.583 -11.615,-25.583Z" style="fill:rgb(226,137,64);fill-rule:nonzero;"/>
            </g>
            <g transform="matrix(2.059186,0.934154,0.45443,-1.001715,901.66029,110.494373)">
                <path d="M-11.615,-25.583C-18.615,-25.583 -23.413,-13.729 -23.414,-6.728C-23.414,0.271 -17.645,-9.51 -10.645,-9.511C-3.645,-9.512 1.935,0.271 1.936,-6.729C1.936,-13.729 -4.614,-25.583 -11.615,-25.583Z" style="fill:rgb(35,31,32);fill-rule:nonzero;"/>
            </g>
            <g transform="matrix(0.533765,0.961787,1.944925,-1.07938,649.400996,109.106503)">
                <path d="M-10.739,-19.403C-17.74,-19.403 -7.283,-14.55 -7.283,-7.549C-7.284,-0.55 -17.739,5.946 -10.739,5.945C-3.739,5.944 8.779,0.535 8.779,-6.465C8.779,-13.465 -3.739,-19.403 -10.739,-19.403" style="fill:rgb(35,31,32);fill-rule:nonzero;"/>
            </g>
            <g transform="matrix(1.054558,0.410133,-0.410133,1.054558,600.973853,-70.525824)">
                <g transform="matrix(-0.672832,0.616614,0.616614,0.672832,421.191905,-189.605602)">
                    <path d="M380.855,97.314C408.108,86.636 435.927,106.78 433.81,138.035C432.182,162.079 398.817,200.463 372.467,204.582C342.73,209.231 326.322,181.945 326.322,151.847C326.322,121.75 352.831,108.294 380.855,97.314Z" style="fill:rgb(47,47,47);stroke:rgb(27,32,49);stroke-width:4.75px;"/>
                </g>
                <g transform="matrix(-1.734802,-0.022646,-0.006223,0.476687,706.671416,111.952318)">
                    <circle cx="252.299" cy="141.625" r="11.146" style="fill:white;"/>
                </g>
                <g transform="matrix(-0.678508,0.550594,0.574488,0.707953,306.791058,-88.616619)">
                    <circle cx="252.299" cy="141.625" r="11.146" style="fill:white;"/>
                </g>
                <g transform="matrix(2.19211,1.17342,-1.174784,2.194658,-121.33305,-473.817602)">
                    <circle cx="252.299" cy="141.625" r="11.146" style="fill:white;"/>
                </g>
            </g>
            <g transform="matrix(0.901917,0.052103,-0.052047,0.900946,450.312697,32.957397)">
                <g transform="matrix(0.912642,0,0,0.912642,-91.583942,9.82021)">
                    <path d="M380.855,97.314C409.405,91.542 439.825,98.486 431.979,145.891C426.661,178.022 399.653,192.261 375.753,201.416C347.647,212.182 326.322,181.945 326.322,151.847C326.322,121.75 351.354,103.278 380.855,97.314Z" style="fill:rgb(47,47,47);stroke:rgb(27,32,49);stroke-width:5.95px;"/>
                </g>
                <g transform="matrix(0.182011,0.737192,-0.757192,0.178088,280.84073,-61.730073)">
                    <circle cx="252.299" cy="141.625" r="11.146" style="fill:white;"/>
                </g>
                <g transform="matrix(-0.007884,0.725668,-1.831908,0.007282,506.032975,-2.928925)">
                    <circle cx="252.299" cy="141.625" r="11.146" style="fill:white;"/>
                </g>
                <g transform="matrix(1.073003,2.393052,-2.463686,1.073003,347.735845,-622.446395)">
                    <circle cx="252.299" cy="141.625" r="11.146" style="fill:white;"/>
                </g>
            </g>
            <g transform="matrix(-0.647915,-1.10625,-0.836355,0.489841,710.720348,357.355447)">
                <path d="M25.427,-45.872C28.274,-53.138 56.916,-35.94 59.105,-28.718C60.573,-23.874 58.481,0.076 47.624,14.574C44.044,5.919 54.734,-20.656 53.343,-24.714C51.646,-29.662 28.227,-38.577 25.427,-45.872Z" style="fill:rgb(47,47,47);fill-rule:nonzero;stroke:rgb(27,32,49);stroke-width:4.32px;"/>
            </g>
        </g>
    </g>
    <defs>
        <radialGradient id="_Radial3" cx="0" cy="0" r="1" gradientUnits="userSpaceOnUse" gradientTransform="matrix(0,1,1,0,-0.000008,0.000008)"><stop offset="0" style="stop-color:rgb(247,162,29);stop-opacity:1"/><stop offset="0.49" style="stop-color:rgb(249,168,22);stop-opacity:0.75"/><stop offset="1" style="stop-color:rgb(255,186,0);stop-opacity:0"/></radialGradient>
        <radialGradient id="_Radial4" cx="0" cy="0" r="1" gradientUnits="userSpaceOnUse" gradientTransform="matrix(0,1,1,0,-0.000008,0.000008)"><stop offset="0" style="stop-color:rgb(247,162,29);stop-opacity:1"/><stop offset="0.49" style="stop-color:rgb(249,168,22);stop-opacity:0.75"/><stop offset="1" style="stop-color:rgb(255,186,0);stop-opacity:0"/></radialGradient>
    </defs>
</svg>
