<?xml version="1.0" encoding="UTF-8" standalone="no"?>
<!DOCTYPE svg PUBLIC "-//W3C//DTD SVG 1.1//EN" "http://www.w3.org/Graphics/SVG/1.1/DTD/svg11.dtd">
<svg width="100%" height="100%" viewBox="0 0 512 512" version="1.1" xmlns="http://www.w3.org/2000/svg" xmlns:xlink="http://www.w3.org/1999/xlink" xml:space="preserve" xmlns:serif="http://www.serif.com/" style="fill-rule:evenodd;clip-rule:evenodd;stroke-linecap:round;stroke-linejoin:round;stroke-miterlimit:1.5;">
    <g id="Layer-2" serif:id="Layer 2">
        <g transform="matrix(-0.968932,-0.412707,-0.396927,0.931884,371.104,568.718)">
            <path d="M31.699,-280.145C58.721,-282.622 61.585,-263.544 61.585,-263.544L108.156,-289.598C108.156,-289.598 101.887,-311.375 133.584,-320.589C140.909,-326.198 143.461,-331.557 171.425,-351.087C175.865,-354.188 192.477,-371.094 197.247,-374.486C251.295,-412.912 308.475,-458.347 308.475,-458.347C308.475,-458.347 356.422,-416.249 291.969,-349.587C292.348,-348.095 311.33,-355.797 312.686,-354.088C314.49,-354.683 323.257,-358.632 429.57,-420.687C429.57,-420.687 472.868,-354.371 378.555,-299.864C365.272,-279.409 390.607,-250.458 402.623,-215.592C413.226,-184.825 424.842,-147.079 413.339,-96.847C399.259,-35.362 353.653,41.266 341.425,52.466C230.44,64.021 125.382,-22.464 121.799,-42.515C119.088,-57.686 210.29,-106.387 227.37,-130.189C242.862,-151.779 240.522,-173.563 219.174,-169.171C163.713,-157.762 92.079,-99.485 65.233,-111.309C40.617,-122.149 21.386,-160.119 21.386,-160.119L9.3,-268.722C9.3,-268.722 4.677,-277.667 31.699,-280.145" style="fill:rgb(255,186,0);fill-rule:nonzero;"/>
        </g>
        <g transform="matrix(-0.927403,-0.374063,-0.374063,0.927403,433.904,335.277)">
            <path d="M0,-19.374C-5.331,-15.746 -6.727,-8.468 -3.119,-3.118C0.49,2.232 7.737,3.628 13.068,0C18.399,-3.628 19.795,-10.906 16.187,-16.256C12.578,-21.606 5.331,-23.002 0,-19.374" style="fill:rgb(35,31,32);fill-rule:nonzero;"/>
        </g>
    </g>
    <g id="Layer1">
    </g>
    <g transform="matrix(-0.93062,-0.37536,-0.37536,0.93062,773.715,167.882)">
        <path d="M408.248,229.857C411.47,239.528 421.388,248.424 423.914,250.383C425.766,251.819 442.794,258.164 450.807,257.589C450.821,258.086 450.828,258.585 450.828,259.087C450.828,281.106 437.355,298.982 420.76,298.982C404.164,298.982 393.854,285.625 393.854,263.606C393.854,250.547 400.929,237.137 408.248,229.857Z" style="fill:rgb(47,47,47);stroke:rgb(27,32,49);stroke-width:5.34px;"/>
    </g>
    <g transform="matrix(0.410436,0.374102,-0.466754,0.512087,407.762,71.3219)">
        <path d="M329.977,322.544C347.842,322.66 366.187,325.852 382.075,333.234C392.56,338.104 401.376,346.367 410.652,354.031C416.2,358.615 421.685,363.278 427.104,368.009C430.984,371.396 432.558,377.79 429.649,382.191C426.567,386.854 419.416,388.177 414.863,384.864C412.948,383.471 411.322,381.831 409.563,380.314C398.154,370.501 386.998,359.751 374.15,352.523C368.245,349.2 361.236,347.475 354.284,345.955C322.69,339.048 281.979,351.004 254.237,365.557C245.522,370.129 237.662,376.255 229.672,382.193C220.359,389.115 211.002,396.018 202.352,403.688C202.183,403.84 202.034,403.976 202.034,403.976L201.319,404.575C198.966,406.21 198.395,406.229 197.11,406.494C191.074,407.739 184.486,402.421 184.619,396.096C184.736,390.541 190.227,386.619 195.05,382.715C208.93,371.482 223.102,360.424 238.081,350.958C262.382,335.601 298.706,322.876 327.876,322.549C328.577,322.544 329.277,322.542 329.977,322.544Z" style="fill:rgb(47,47,47);fill-rule:nonzero;stroke:rgb(27,32,49);stroke-width:8.54px;stroke-linecap:butt;stroke-miterlimit:1.41421;"/>
    </g>
</svg>
