<?xml version="1.0" encoding="UTF-8" standalone="no"?>
<!DOCTYPE svg PUBLIC "-//W3C//DTD SVG 1.1//EN" "http://www.w3.org/Graphics/SVG/1.1/DTD/svg11.dtd">
<svg width="100%" height="100%" viewBox="0 0 512 512" version="1.1" xmlns="http://www.w3.org/2000/svg" xmlns:xlink="http://www.w3.org/1999/xlink" xml:space="preserve" xmlns:serif="http://www.serif.com/" style="fill-rule:evenodd;clip-rule:evenodd;stroke-linecap:round;stroke-linejoin:round;stroke-miterlimit:1.5;">
    <rect id="Artboard1" x="0" y="0" width="512" height="512" style="fill:none;"/>
    <clipPath id="_clip1">
        <rect id="Artboard11" serif:id="Artboard1" x="0" y="0" width="512" height="512"/>
    </clipPath>
    <g clip-path="url(#_clip1)">
        <g id="Layer-2" serif:id="Layer 2">
            <g transform="matrix(0.99031,0.138874,-0.138874,0.99031,5.09738,411.183)">
                <path d="M-2.047,-241.183C24.543,-245.796 33.37,-227.212 33.37,-227.212L66.714,-262.395C66.714,-262.395 71.041,-307.914 103.059,-314.344C114.005,-319.269 127.747,-320.827 184.086,-351.946C188.742,-354.517 195.173,-355.587 199.167,-359.784C244.416,-407.321 291.365,-462.266 291.365,-462.266C291.365,-462.266 346.212,-430.307 296.274,-353.342C296.931,-351.962 295.926,-353.495 297.656,-352.17C299.253,-353.159 306.754,-358.981 394.233,-443.187C394.233,-443.187 452.377,-389.584 374.638,-315.405C366.711,-307.05 394.429,-295.676 405.063,-277.882C487.594,-139.775 445.275,-44.351 420.444,28.505C306.889,84.684 177.369,25.296 195.493,1.018C219.867,-31.633 231.215,-50.248 240.725,-77.714C252.499,-111.716 250.291,-150.592 229.539,-144.556C175.626,-128.875 89.325,-76.096 61.413,-85.543C35.819,-94.204 8.244,-124.687 8.244,-124.687L-26.933,-224.552C-26.933,-224.552 -28.637,-236.569 -2.047,-241.183" style="fill:rgb(255,186,0);fill-rule:nonzero;"/>
            </g>
            <g transform="matrix(-0.898661,0.438645,0.438645,0.898661,48.0884,201.592)">
                <path d="M6.534,-21.372C12.982,-21.345 18.21,-16.092 18.21,-9.639C18.21,-3.185 12.982,2.024 6.534,1.998C0.086,1.971 -5.142,-3.282 -5.142,-9.735C-5.142,-16.189 0.086,-21.398 6.534,-21.372" style="fill:rgb(35,31,32);fill-rule:nonzero;"/>
            </g>
        </g>
        <g transform="matrix(0.83943,-0.00682019,0.00682019,0.83943,-589.135,-17.5923)">
            <path d="M779.659,373.033C795.403,376.495 806.034,394.523 820.067,387.211C831.232,381.393 825.897,348.219 838.164,343.496C846.681,340.217 869.16,361.377 882.001,360.358C898.247,359.069 934.244,341.432 934.17,324.936" style="fill:none;stroke:rgb(47,47,47);stroke-width:20.62px;"/>
        </g>
        <g transform="matrix(1.09142,0.153053,-0.174421,1.2438,-469.833,-239.58)">
            <path d="M672.918,261.466C690.172,234.594 738.911,221.584 773.225,257.4" style="fill:none;stroke:rgb(47,47,47);stroke-width:17.6px;"/>
        </g>
        <g transform="matrix(1.09142,0.153053,-0.174421,1.2438,-469.833,-239.58)">
            <path d="M736.661,239.972C738.648,249.582 731.678,263.851 745.657,271.468C764.642,281.811 772.159,259.14 772.159,259.14C772.159,259.14 738.739,234.26 736.661,239.972Z" style="fill:rgb(47,47,47);stroke:rgb(47,47,47);stroke-width:17.6px;"/>
        </g>
    </g>
</svg>
