<?xml version="1.0" encoding="UTF-8" standalone="no"?>
<!DOCTYPE svg PUBLIC "-//W3C//DTD SVG 1.1//EN" "http://www.w3.org/Graphics/SVG/1.1/DTD/svg11.dtd">
<svg width="100%" height="100%" viewBox="0 0 512 512" version="1.1" xmlns="http://www.w3.org/2000/svg" xmlns:xlink="http://www.w3.org/1999/xlink" xml:space="preserve" xmlns:serif="http://www.serif.com/" style="fill-rule:evenodd;clip-rule:evenodd;stroke-linejoin:round;stroke-miterlimit:2;">
    <rect id="Artboard1" x="0" y="0" width="512" height="512" style="fill:none;"/>
    <clipPath id="_clip1">
        <rect id="Artboard11" serif:id="Artboard1" x="0" y="0" width="512" height="512"/>
    </clipPath>
    <g clip-path="url(#_clip1)">
        <g id="Layer-2" serif:id="Layer 2" transform="matrix(1,0,0,1,-1.13687e-13,-21.7423)">
            <g transform="matrix(1,0,0,1,42.8599,460.333)">
                <path d="M7.066,-315.596C34.206,-313.779 38.422,-293.476 38.422,-293.476L97.025,-318.116C97.025,-318.116 112.107,-361.664 144.996,-360.333C156.889,-362.548 151.066,-360.133 211.273,-384.284C216.248,-386.28 222.008,-387.851 227.327,-390.256C282.15,-415.051 307.613,-460.333 307.613,-460.333C307.613,-460.333 372.24,-423.044 323.05,-350.772C323.537,-349.31 330.142,-351.65 331.394,-349.844C333.231,-350.301 396.272,-356.14 465.289,-376.904C465.289,-376.904 491.546,-324.272 406.935,-281.774C396.178,-277.414 408.147,-283.317 414.066,-275.108C438.898,-240.671 437.5,-140.852 424,-82.352C409.818,-20.892 359.186,49.097 346.958,60.297C222.441,88.597 100.017,0.547 123.498,-18.975C155.077,-45.229 196.06,-79.55 213.14,-103.352C228.632,-124.942 251.579,-179.964 229.817,-178.997C173.283,-176.485 51.565,-128.071 26.481,-143.973C3.479,-158.552 -10.611,-199.057 -10.611,-199.057L-21.269,-305.238C-21.269,-305.238 -20.074,-317.413 7.066,-315.596" style="fill:rgb(255,186,0);fill-rule:nonzero;"/>
            </g>
            <g transform="matrix(-0.829036,0.559195,0.559195,0.829036,49.7523,181.237)">
                <path d="M-11.366,-9.298C-4.918,-9.271 0.309,-4.018 0.31,2.435C0.31,8.888 -4.918,14.098 -11.366,14.071C-17.814,14.045 -23.042,8.792 -23.042,2.339C-23.042,-4.115 -17.814,-9.325 -11.366,-9.298" style="fill:rgb(35,31,32);fill-rule:nonzero;"/>
            </g>
            <g transform="matrix(-0.655273,0.755392,0.755392,0.655273,240.259,183.098)">
                <path d="M9.83,-18.996C19.827,-15.427 37.008,-6.008 36.677,7.12C36.347,20.248 25.399,29.663 7.943,29.18C-9.513,28.697 -21.131,14.764 -23.06,0.835C-25.387,-15.974 -9.253,-25.809 9.83,-18.996Z" style="fill:rgb(47,47,47);fill-rule:nonzero;stroke:rgb(27,32,49);stroke-width:4.34px;"/>
            </g>
            <path d="M-36.528,277.742L40.802,253.037C40.802,253.037 60.723,273.047 66.202,277.327C71.681,281.607 88.931,251.41 88.931,251.41L119.956,277.365L146.277,246.197L335.756,342.798L420.229,619.2L-147.277,594.207L-36.528,277.742Z" style="fill:none;"/>
            <clipPath id="_clip2">
                <path d="M-36.528,277.742L40.802,253.037C40.802,253.037 60.723,273.047 66.202,277.327C71.681,281.607 88.931,251.41 88.931,251.41L119.956,277.365L146.277,246.197L335.756,342.798L420.229,619.2L-147.277,594.207L-36.528,277.742Z"/>
            </clipPath>
            <g clip-path="url(#_clip2)">
                <g transform="matrix(0.536255,-0.243329,0.243329,0.536255,-975.728,697.563)">
                    <path d="M1798.29,479.09L1798.29,46.791C1923.08,51.3 2017.39,102.149 2086.49,191.308L1798.29,479.09Z" style="fill:rgb(255,200,61);"/>
                    <clipPath id="_clip3">
                        <path d="M1798.29,479.09L1798.29,46.791C1923.08,51.3 2017.39,102.149 2086.49,191.308L1798.29,479.09Z"/>
                    </clipPath>
                    <g clip-path="url(#_clip3)">
                        <path d="M1803.72,465.306L2092.34,178.778" style="fill:none;stroke:rgb(247,137,74);stroke-width:27.65px;stroke-linecap:round;stroke-miterlimit:1.5;"/>
                        <g transform="matrix(1,0,0,1,20.0342,14.1644)">
                            <circle cx="1851.55" cy="135.637" r="41.507" style="fill:rgb(175,13,26);"/>
                        </g>
                        <g transform="matrix(1,0,0,1,84.7128,109.119)">
                            <circle cx="1851.55" cy="135.637" r="41.507" style="fill:rgb(175,13,26);"/>
                        </g>
                        <g transform="matrix(1,0,0,1,1.69894,192.133)">
                            <circle cx="1851.55" cy="135.637" r="41.507" style="fill:rgb(175,13,26);"/>
                        </g>
                    </g>
                    <g transform="matrix(0.636614,0.302104,-0.378077,0.796709,824.654,-455.86)">
                        <path d="M1820.53,470.537L1821.37,415.821C1821.49,407.925 1815.18,401.416 1807.28,401.296C1799.38,401.175 1792.88,407.488 1792.76,415.384L1791.92,470.1C1791.8,477.996 1798.11,484.504 1806.01,484.625C1813.9,484.746 1820.41,478.433 1820.53,470.537Z" style="fill:rgb(255,200,61);"/>
                    </g>
                    <g transform="matrix(0.878616,0.477529,-0.477529,0.878616,346.874,-960.175)">
                        <path d="M2023.55,230.627C2029.05,217.075 2049.34,200.924 2063.83,194.628C2069.93,191.977 2079.73,192.4 2079.35,193.361C2073.32,208.35 2071.01,220.121 2070.94,224.771L2070.11,279.487C2070.04,284.136 2066.2,287.854 2061.55,287.783C2056.91,287.712 2053.19,283.879 2053.26,279.229C2053.26,279.229 2053.34,279.23 2053.35,264.759C2053.36,252.286 2039.13,252.876 2039.01,262.94C2038.48,307.774 2038.53,310.845 2038.53,310.845C2038.46,315.494 2034.63,319.212 2029.98,319.141C2025.33,319.07 2021.61,315.237 2021.68,310.587L2022.52,255.871C2022.57,252.474 2022.91,234.508 2023.55,230.627Z" style="fill:rgb(255,200,61);"/>
                    </g>
                    <path d="M1798.29,46.791C1918.04,50.993 2013.53,100.229 2086.49,191.308" style="fill:none;stroke:rgb(247,137,74);stroke-width:59.47px;stroke-linecap:round;stroke-miterlimit:1.5;"/>
                </g>
            </g>
            <g transform="matrix(0.794298,0,0,0.692872,23.8594,281.881)">
                <path d="M21.591,-43.055C24.848,-29.52 31.661,-17.534 39.815,-6.722C44.702,-0.24 52.038,11.85 60.218,3.976C66.202,-1.784 70.731,-9.846 75.214,-16.962C79.062,-23.072 81.458,-29.894 82.784,-30.228C84.109,-30.561 96.135,-13.556 106.14,-1.539C106.89,-0.639 113.28,7.71 118.353,6.879C124.859,5.814 126.246,1.773 128.697,-1.213C133.962,-7.624 137.09,-12.254 141.945,-19.036C144.732,-22.929 147.495,-26.847 150.14,-30.857C151.852,-33.451 153.964,-36.289 154.945,-39.351C157.915,-48.62 144.661,-54.335 141.691,-45.065C141.229,-43.624 142.033,-45.628 141.902,-45.41C141.553,-44.835 141.236,-44.236 140.889,-43.66C139.823,-41.892 138.679,-40.18 137.534,-38.476C134.5,-33.963 131.354,-29.54 128.174,-25.151C125.117,-20.931 122.023,-16.742 118.853,-12.624C117.652,-11.063 115.817,-11.395 114.47,-12.9C110.577,-17.248 106.208,-22.132 102.457,-26.624C96.784,-33.418 92.723,-40.108 86.079,-46.259C83.156,-48.966 76.957,-47.775 74.949,-44.609C71.176,-38.661 69.015,-32.959 65.604,-26.749C63.291,-22.54 57.317,-11.118 55.071,-11.215C53.154,-11.298 50.253,-16.69 48.145,-19.655C42.683,-27.336 37.751,-35.913 35.485,-45.33C33.18,-54.905 19.267,-52.712 21.591,-43.055" style="fill:rgb(47,47,47);fill-rule:nonzero;stroke:rgb(27,32,49);stroke-width:5.77px;"/>
            </g>
        </g>
    </g>
</svg>
